<?xml version="1.0" encoding="utf-8"?>
<!-- Generator: Adobe Illustrator 24.0.1, SVG Export Plug-In . SVG Version: 6.00 Build 0)  -->
<svg version="1.1" id="Dark_Theme_Icons" xmlns="http://www.w3.org/2000/svg" xmlns:xlink="http://www.w3.org/1999/xlink" x="0px"
	 y="0px" viewBox="0 0 33.67 33.91" style="enable-background:new 0 0 33.67 33.91;" xml:space="preserve">
<style type="text/css">
	.st0{fill:#1A1A1A;}
	.st1{fill:#C3C3C3;}
	.st2{fill:#2D2D2D;stroke:#C3C3C3;stroke-width:0.75;stroke-miterlimit:10;}
	.st3{fill:#C3C3C3;stroke:#2D2D2D;stroke-width:0.5;stroke-miterlimit:10;}
	.st4{fill:#2D2D2D;}
	.st5{fill:none;stroke:#2D2D2D;stroke-width:2;stroke-miterlimit:10;}
	.st6{fill:none;stroke:#2D2D2D;stroke-miterlimit:10;}
	.st7{fill:#C3C3C3;stroke:#2D2D2D;stroke-miterlimit:10;}
	.st8{fill:url(#SVGID_1_);}
	.st9{fill:url(#SVGID_2_);}
	.st10{fill:url(#SVGID_3_);}
	.st11{fill:url(#SVGID_4_);}
	.st12{fill:url(#SVGID_5_);}
	.st13{fill:url(#SVGID_6_);}
	.st14{fill:url(#SVGID_7_);}
	.st15{fill:url(#SVGID_8_);}
	.st16{fill:none;stroke:#C3C3C3;stroke-miterlimit:10;stroke-dasharray:1.5,2;}
	.st17{fill:#2D2D2D;stroke:#C3C3C3;stroke-miterlimit:10;}
	.st18{fill:url(#SVGID_9_);}
	.st19{fill:url(#SVGID_10_);}
	.st20{fill:url(#SVGID_11_);}
	.st21{fill:url(#SVGID_12_);}
	.st22{fill:url(#SVGID_13_);}
	.st23{fill:url(#SVGID_14_);}
	.st24{fill:url(#SVGID_15_);}
	.st25{fill:url(#SVGID_16_);}
	.st26{fill:url(#SVGID_17_);}
	.st27{fill:url(#SVGID_18_);}
	.st28{fill:url(#SVGID_19_);}
	.st29{fill:url(#SVGID_20_);}
	.st30{fill:url(#SVGID_21_);}
	.st31{display:none;fill:#C3C3C3;}
	.st32{fill:url(#SVGID_22_);}
	.st33{fill:url(#SVGID_23_);}
	.st34{fill:url(#SVGID_24_);}
	.st35{fill:url(#SVGID_25_);}
	.st36{fill:url(#SVGID_26_);}
	.st37{fill:url(#SVGID_27_);}
	.st38{fill:url(#SVGID_28_);}
	.st39{fill:url(#SVGID_29_);}
	.st40{fill:url(#SVGID_30_);}
	.st41{fill:none;stroke:#C3C3C3;stroke-miterlimit:10;}
	.st42{fill:url(#SVGID_31_);}
	.st43{fill:url(#SVGID_32_);}
	.st44{fill:url(#SVGID_33_);}
	.st45{fill:url(#SVGID_34_);}
	.st46{fill:url(#SVGID_35_);}
	.st47{fill:url(#SVGID_36_);}
</style>
<g id="Add_Comment">
	<linearGradient id="SVGID_1_" gradientUnits="userSpaceOnUse" x1="16.8352" y1="0" x2="16.8352" y2="33.9116">
		<stop  offset="0" style="stop-color:#1A1A1A"/>
		<stop  offset="1" style="stop-color:#333333"/>
	</linearGradient>
	<ellipse class="st8" cx="16.84" cy="16.96" rx="16.84" ry="16.96"/>
	<g>
		<g>
			<g>
				<g>
					<path class="st1" d="M6.07,18.31c0-2.13-0.01-4.25,0-6.38c0.02-2.78,1.65-4.46,4.4-4.48c4.25-0.02,8.5-0.02,12.75,0
						c2.69,0.01,4.35,1.69,4.38,4.38c0.02,2.41,0.02,4.82,0,7.23c-0.02,2.71-1.66,4.33-4.37,4.34c-3.8,0.02-7.6,0.04-11.4-0.02
						c-0.98-0.01-1.73,0.21-2.37,0.95c-0.51,0.58-1.08,1.12-1.69,1.6c-0.35,0.27-0.82,0.37-1.24,0.54
						c-0.15-0.44-0.42-0.87-0.43-1.31C6.04,22.88,6.07,20.59,6.07,18.31z M7.54,24.04c0.44-0.38,0.72-0.54,0.91-0.79
						c0.85-1.11,1.95-1.38,3.33-1.35c3.8,0.09,7.6,0.04,11.4,0.03c1.97-0.01,2.92-0.97,2.94-2.95c0.02-2.41,0.03-4.82,0-7.23
						c-0.02-1.74-1.02-2.8-2.72-2.82c-4.37-0.04-8.75-0.04-13.12,0c-1.66,0.01-2.71,1.05-2.72,2.69
						C7.52,15.66,7.54,19.71,7.54,24.04z"/>
				</g>
				<path class="st31" d="M20.14,14.5h-2.38v-2.38c0-0.65-0.41-1.15-0.93-1.15c-0.52,0-0.93,0.51-0.93,1.15v2.38h-2.38
					c-0.65,0-1.15,0.41-1.15,0.93c0,0.52,0.51,0.93,1.15,0.93h2.38v2.38c0,0.65,0.41,1.15,0.93,1.15c0.52,0,0.93-0.51,0.93-1.15
					v-2.38h2.38c0.65,0,1.15-0.41,1.15-0.93C21.29,14.91,20.79,14.5,20.14,14.5z"/>
			</g>
			<path class="st1" d="M18.8,16.71h-6.76c-0.27,0-0.5-0.22-0.5-0.5l0,0c0-0.27,0.22-0.5,0.5-0.5h6.76c0.27,0,0.5,0.22,0.5,0.5l0,0
				C19.3,16.48,19.08,16.71,18.8,16.71z"/>
			<path class="st1" d="M22.51,14.27H12.04c-0.27,0-0.5-0.22-0.5-0.5v0c0-0.27,0.22-0.5,0.5-0.5h10.47c0.27,0,0.5,0.22,0.5,0.5v0
				C23.01,14.04,22.78,14.27,22.51,14.27z"/>
		</g>
	</g>
</g>
</svg>
