<?xml version="1.0" encoding="utf-8"?>
<!-- Generator: Adobe Illustrator 24.0.1, SVG Export Plug-In . SVG Version: 6.00 Build 0)  -->
<svg version="1.1" id="Dark_Theme_Icons" xmlns="http://www.w3.org/2000/svg" xmlns:xlink="http://www.w3.org/1999/xlink" x="0px"
	 y="0px" viewBox="0 0 34.17 34.41" style="enable-background:new 0 0 34.17 34.41;" xml:space="preserve">
<style type="text/css">
	.st0{fill:#1A1A1A;}
	.st1{fill:#C3C3C3;}
	.st2{fill:#2D2D2D;stroke:#C3C3C3;stroke-width:0.75;stroke-miterlimit:10;}
	.st3{fill:#C3C3C3;stroke:#2D2D2D;stroke-width:0.5;stroke-miterlimit:10;}
	.st4{fill:#2D2D2D;}
	.st5{fill:none;stroke:#2D2D2D;stroke-width:2;stroke-miterlimit:10;}
	.st6{fill:none;stroke:#2D2D2D;stroke-miterlimit:10;}
	.st7{fill:#C3C3C3;stroke:#2D2D2D;stroke-miterlimit:10;}
	.st8{fill:url(#SVGID_1_);}
	.st9{fill:url(#SVGID_2_);}
	.st10{fill:url(#SVGID_3_);}
	.st11{fill:url(#SVGID_4_);}
	.st12{fill:url(#SVGID_5_);}
	.st13{fill:url(#SVGID_6_);}
	.st14{fill:url(#SVGID_7_);}
	.st15{fill:url(#SVGID_8_);}
	.st16{fill:none;stroke:#C3C3C3;stroke-miterlimit:10;stroke-dasharray:1.5,2;}
	.st17{fill:#2D2D2D;stroke:#C3C3C3;stroke-miterlimit:10;}
	.st18{fill:url(#SVGID_9_);}
	.st19{fill:url(#SVGID_10_);}
	.st20{fill:url(#SVGID_11_);}
	.st21{fill:url(#SVGID_12_);}
	.st22{fill:url(#SVGID_13_);}
	.st23{fill:url(#SVGID_14_);}
	.st24{fill:url(#SVGID_15_);}
	.st25{fill:url(#SVGID_16_);}
	.st26{fill:url(#SVGID_17_);}
	.st27{fill:url(#SVGID_18_);}
	.st28{fill:url(#SVGID_19_);}
	.st29{fill:url(#SVGID_20_);}
	.st30{fill:url(#SVGID_21_);}
	.st31{display:none;fill:#C3C3C3;}
	.st32{fill:url(#SVGID_22_);}
	.st33{fill:url(#SVGID_23_);}
	.st34{fill:url(#SVGID_24_);}
	.st35{fill:url(#SVGID_25_);}
	.st36{fill:url(#SVGID_26_);}
	.st37{fill:url(#SVGID_27_);}
	.st38{fill:url(#SVGID_28_);}
	.st39{fill:url(#SVGID_29_);}
	.st40{fill:url(#SVGID_30_);}
	.st41{fill:none;stroke:#C3C3C3;stroke-miterlimit:10;}
	.st42{fill:url(#SVGID_31_);}
	.st43{fill:url(#SVGID_32_);}
	.st44{fill:url(#SVGID_33_);}
	.st45{fill:url(#SVGID_34_);}
	.st46{fill:url(#SVGID_35_);}
	.st47{fill:url(#SVGID_36_);}
</style>
<g id="Replace">
	<ellipse class="st3" cx="17.09" cy="17.21" rx="16.84" ry="16.96"/>
	<g>
		<path class="st4" d="M22.73,18.33c-3.22,0-6.4,0-9.61,0c0-3.93,0-7.83,0-11.77c1.4,0,2.81,0,4.27,0c0,1.76,0,3.52,0,5.32
			c1.81,0,3.56,0,5.35,0C22.73,14.05,22.73,16.17,22.73,18.33z"/>
		<path class="st4" d="M7.73,25.85c0-3.94,0-7.84,0-11.76c1.42,0,2.81,0,4.26,0c0,1.76,0,3.52,0,5.34c1.82,0,3.58,0,5.37,0
			c0,2.17,0,4.27,0,6.42C14.17,25.85,10.97,25.85,7.73,25.85z M10.94,15.16c-0.75,0-1.43,0-2.12,0c0,3.22,0,6.42,0,9.62
			c2.51,0,4.99,0,7.47,0c0-1.43,0-2.82,0-4.27c-1.79,0-3.55,0-5.35,0C10.94,18.69,10.94,16.95,10.94,15.16z"/>
		<path class="st4" d="M18.5,6.72c1.35,1.36,2.72,2.73,4.08,4.08c-1.31,0-2.68,0-4.08,0C18.5,9.42,18.5,8.05,18.5,6.72z"/>
		<g>
			<g>
				<path class="st4" d="M26.44,21.22v2.08h-7.22v-2.08H26.44z"/>
			</g>
		</g>
	</g>
</g>
</svg>
