<?xml version="1.0" encoding="utf-8"?>
<!-- Generator: Adobe Illustrator 24.0.1, SVG Export Plug-In . SVG Version: 6.00 Build 0)  -->
<svg version="1.1" id="Dark_Theme_Icons" xmlns="http://www.w3.org/2000/svg" xmlns:xlink="http://www.w3.org/1999/xlink" x="0px"
	 y="0px" viewBox="0 0 33.67 33.91" style="enable-background:new 0 0 33.67 33.91;" xml:space="preserve">
<style type="text/css">
	.st0{fill:#1A1A1A;}
	.st1{fill:#C3C3C3;}
	.st2{fill:#2D2D2D;stroke:#C3C3C3;stroke-width:0.75;stroke-miterlimit:10;}
	.st3{fill:#C3C3C3;stroke:#2D2D2D;stroke-width:0.5;stroke-miterlimit:10;}
	.st4{fill:#2D2D2D;}
	.st5{fill:none;stroke:#2D2D2D;stroke-width:2;stroke-miterlimit:10;}
	.st6{fill:none;stroke:#2D2D2D;stroke-miterlimit:10;}
	.st7{fill:#C3C3C3;stroke:#2D2D2D;stroke-miterlimit:10;}
	.st8{fill:url(#SVGID_1_);}
	.st9{fill:url(#SVGID_2_);}
	.st10{fill:url(#SVGID_3_);}
	.st11{fill:url(#SVGID_4_);}
	.st12{fill:url(#SVGID_5_);}
	.st13{fill:url(#SVGID_6_);}
	.st14{fill:url(#SVGID_7_);}
	.st15{fill:url(#SVGID_8_);}
	.st16{fill:none;stroke:#C3C3C3;stroke-miterlimit:10;stroke-dasharray:1.5,2;}
	.st17{fill:#2D2D2D;stroke:#C3C3C3;stroke-miterlimit:10;}
	.st18{fill:url(#SVGID_9_);}
	.st19{fill:url(#SVGID_10_);}
	.st20{fill:url(#SVGID_11_);}
	.st21{fill:url(#SVGID_12_);}
	.st22{fill:url(#SVGID_13_);}
	.st23{fill:url(#SVGID_14_);}
	.st24{fill:url(#SVGID_15_);}
	.st25{fill:url(#SVGID_16_);}
	.st26{fill:url(#SVGID_17_);}
	.st27{fill:url(#SVGID_18_);}
	.st28{fill:url(#SVGID_19_);}
	.st29{fill:url(#SVGID_20_);}
	.st30{fill:url(#SVGID_21_);}
	.st31{display:none;fill:#C3C3C3;}
	.st32{fill:url(#SVGID_22_);}
	.st33{fill:url(#SVGID_23_);}
	.st34{fill:url(#SVGID_24_);}
	.st35{fill:url(#SVGID_25_);}
	.st36{fill:url(#SVGID_26_);}
	.st37{fill:url(#SVGID_27_);}
	.st38{fill:url(#SVGID_28_);}
	.st39{fill:url(#SVGID_29_);}
	.st40{fill:url(#SVGID_30_);}
	.st41{fill:none;stroke:#C3C3C3;stroke-miterlimit:10;}
	.st42{fill:url(#SVGID_31_);}
	.st43{fill:url(#SVGID_32_);}
	.st44{fill:url(#SVGID_33_);}
	.st45{fill:url(#SVGID_34_);}
	.st46{fill:url(#SVGID_35_);}
	.st47{fill:url(#SVGID_36_);}
</style>
<g id="Link_Nodes">
	<linearGradient id="SVGID_1_" gradientUnits="userSpaceOnUse" x1="16.8352" y1="0" x2="16.8352" y2="33.9116">
		<stop  offset="0" style="stop-color:#1A1A1A"/>
		<stop  offset="1" style="stop-color:#333333"/>
	</linearGradient>
	<ellipse class="st8" cx="16.84" cy="16.96" rx="16.84" ry="16.96"/>
	<g>
		<g>
			<path class="st1" d="M8.07,22c0.06-0.25,0.1-0.51,0.17-0.75c0.19-0.64,0.54-1.18,1.01-1.65c1.43-1.43,2.85-2.86,4.29-4.28
				c1.24-1.23,2.95-1.53,4.5-0.77c0.36,0.18,0.69,0.45,1,0.71c0.33,0.28,0.33,0.76,0.04,1.07c-0.28,0.31-0.75,0.35-1.08,0.06
				c-0.37-0.33-0.78-0.59-1.28-0.67c-0.72-0.12-1.37,0.06-1.93,0.53c-0.05,0.04-0.1,0.09-0.15,0.14c-1.44,1.44-2.89,2.88-4.32,4.32
				c-0.85,0.86-0.95,2.11-0.25,3.06c0.81,1.09,2.41,1.26,3.4,0.34c0.77-0.72,1.5-1.48,2.24-2.22c0.23-0.23,0.5-0.34,0.82-0.24
				c0.52,0.15,0.72,0.77,0.4,1.2c-0.03,0.03-0.05,0.07-0.08,0.1c-0.74,0.74-1.47,1.48-2.21,2.2c-0.62,0.61-1.38,0.97-2.25,1.08
				c-0.03,0-0.05,0.02-0.08,0.03c-0.24,0-0.48,0-0.73,0c-0.06-0.01-0.12-0.03-0.17-0.04c-1.51-0.25-2.56-1.09-3.11-2.52
				c-0.12-0.3-0.16-0.64-0.24-0.96C8.07,22.49,8.07,22.24,8.07,22z"/>
			<path class="st1" d="M17.83,20.22c-0.92-0.02-1.83-0.38-2.59-1.12c-0.32-0.31-0.33-0.78-0.04-1.09c0.28-0.31,0.76-0.34,1.08-0.04
				c0.51,0.47,1.1,0.73,1.81,0.69c0.53-0.03,1-0.22,1.4-0.57c0.24-0.21,0.46-0.45,0.69-0.67c1.4-1.4,2.8-2.8,4.2-4.2
				c0.8-0.8,0.96-1.93,0.41-2.86c-0.74-1.27-2.47-1.55-3.55-0.55c-0.72,0.66-1.39,1.38-2.09,2.07c-0.2,0.2-0.4,0.4-0.6,0.6
				c-0.35,0.34-0.82,0.35-1.13,0.03c-0.31-0.31-0.3-0.78,0.04-1.12c0.86-0.87,1.72-1.74,2.59-2.59c1.34-1.3,3.2-1.5,4.79-0.55
				c1.87,1.12,2.4,3.75,1.11,5.51c-0.15,0.2-0.32,0.4-0.49,0.58c-1.56,1.56-3.12,3.12-4.68,4.69
				C19.97,19.82,19.02,20.22,17.83,20.22z"/>
		</g>
	</g>
</g>
</svg>
