<?xml version="1.0" encoding="utf-8"?>
<!-- Generator: Adobe Illustrator 24.0.1, SVG Export Plug-In . SVG Version: 6.00 Build 0)  -->
<svg version="1.1" id="Dark_Theme_Icons" xmlns="http://www.w3.org/2000/svg" xmlns:xlink="http://www.w3.org/1999/xlink" x="0px"
	 y="0px" viewBox="0 0 33.67 33.91" style="enable-background:new 0 0 33.67 33.91;" xml:space="preserve">
<style type="text/css">
	.st0{fill:#1A1A1A;}
	.st1{fill:#C3C3C3;}
	.st2{fill:#2D2D2D;stroke:#C3C3C3;stroke-width:0.75;stroke-miterlimit:10;}
	.st3{fill:#C3C3C3;stroke:#2D2D2D;stroke-width:0.5;stroke-miterlimit:10;}
	.st4{fill:#2D2D2D;}
	.st5{fill:none;stroke:#2D2D2D;stroke-width:2;stroke-miterlimit:10;}
	.st6{fill:none;stroke:#2D2D2D;stroke-miterlimit:10;}
	.st7{fill:#C3C3C3;stroke:#2D2D2D;stroke-miterlimit:10;}
	.st8{fill:url(#SVGID_1_);}
	.st9{fill:url(#SVGID_2_);}
	.st10{fill:url(#SVGID_3_);}
	.st11{fill:url(#SVGID_4_);}
	.st12{fill:url(#SVGID_5_);}
	.st13{fill:url(#SVGID_6_);}
	.st14{fill:url(#SVGID_7_);}
	.st15{fill:url(#SVGID_8_);}
	.st16{fill:none;stroke:#C3C3C3;stroke-miterlimit:10;stroke-dasharray:1.5,2;}
	.st17{fill:#2D2D2D;stroke:#C3C3C3;stroke-miterlimit:10;}
	.st18{fill:url(#SVGID_9_);}
	.st19{fill:url(#SVGID_10_);}
	.st20{fill:url(#SVGID_11_);}
	.st21{fill:url(#SVGID_12_);}
	.st22{fill:url(#SVGID_13_);}
	.st23{fill:url(#SVGID_14_);}
	.st24{fill:url(#SVGID_15_);}
	.st25{fill:url(#SVGID_16_);}
	.st26{fill:url(#SVGID_17_);}
	.st27{fill:url(#SVGID_18_);}
	.st28{fill:url(#SVGID_19_);}
	.st29{fill:url(#SVGID_20_);}
	.st30{fill:url(#SVGID_21_);}
	.st31{display:none;fill:#C3C3C3;}
	.st32{fill:url(#SVGID_22_);}
	.st33{fill:url(#SVGID_23_);}
	.st34{fill:url(#SVGID_24_);}
	.st35{fill:url(#SVGID_25_);}
	.st36{fill:url(#SVGID_26_);}
	.st37{fill:url(#SVGID_27_);}
	.st38{fill:url(#SVGID_28_);}
	.st39{fill:url(#SVGID_29_);}
	.st40{fill:url(#SVGID_30_);}
	.st41{fill:none;stroke:#C3C3C3;stroke-miterlimit:10;}
	.st42{fill:url(#SVGID_31_);}
	.st43{fill:url(#SVGID_32_);}
	.st44{fill:url(#SVGID_33_);}
	.st45{fill:url(#SVGID_34_);}
	.st46{fill:url(#SVGID_35_);}
	.st47{fill:url(#SVGID_36_);}
</style>
<g id="Search_Content">
	<linearGradient id="SVGID_1_" gradientUnits="userSpaceOnUse" x1="16.8352" y1="0" x2="16.8352" y2="33.9116">
		<stop  offset="0" style="stop-color:#1A1A1A"/>
		<stop  offset="1" style="stop-color:#333333"/>
	</linearGradient>
	<ellipse class="st8" cx="16.84" cy="16.96" rx="16.84" ry="16.96"/>
	<g>
		<path class="st1" d="M4.62,16.41c0.42-0.01,0.77-0.13,1.04-0.34c0.27-0.22,0.44-0.52,0.53-0.9s0.13-1.04,0.14-1.96
			c0.01-0.92,0.02-1.53,0.05-1.83c0.05-0.47,0.14-0.84,0.28-1.12s0.3-0.51,0.5-0.68c0.2-0.17,0.45-0.3,0.76-0.39
			c0.21-0.06,0.55-0.08,1.02-0.08H9.4v1.3H9.14c-0.57,0-0.95,0.1-1.14,0.31c-0.19,0.21-0.28,0.67-0.28,1.39
			c0,1.45-0.03,2.37-0.09,2.75c-0.1,0.59-0.27,1.05-0.51,1.37C6.88,16.56,6.51,16.84,6,17.09c0.61,0.25,1.04,0.64,1.32,1.17
			s0.41,1.38,0.41,2.57c0,1.08,0.01,1.72,0.03,1.93c0.04,0.38,0.16,0.64,0.33,0.79c0.18,0.15,0.53,0.22,1.05,0.22H9.4v1.3H8.93
			c-0.54,0-0.93-0.04-1.17-0.13c-0.35-0.13-0.64-0.33-0.88-0.62s-0.38-0.65-0.45-1.08c-0.07-0.44-0.11-1.16-0.11-2.15
			c0-1-0.05-1.69-0.14-2.07c-0.09-0.38-0.27-0.68-0.53-0.91s-0.61-0.34-1.04-0.35V16.41z"/>
		<path class="st1" d="M11.33,21.49v-1.7h1.69v1.7H11.33z"/>
		<path class="st1" d="M16.02,21.49v-1.7h1.69v1.7H16.02z"/>
		<path class="st1" d="M20.72,21.49v-1.7h1.69v1.7H20.72z"/>
		<path class="st1" d="M29.04,16.41v1.35c-0.42,0.01-0.77,0.13-1.04,0.35c-0.27,0.22-0.44,0.52-0.53,0.9
			c-0.09,0.38-0.13,1.03-0.14,1.96s-0.02,1.53-0.05,1.83c-0.05,0.47-0.14,0.85-0.28,1.13c-0.13,0.28-0.3,0.5-0.5,0.67
			s-0.45,0.3-0.76,0.39c-0.21,0.06-0.55,0.09-1.02,0.09h-0.46v-1.3h0.26c0.57,0,0.95-0.1,1.14-0.31c0.19-0.21,0.28-0.67,0.28-1.4
			c0-1.38,0.03-2.26,0.07-2.63c0.09-0.61,0.26-1.11,0.53-1.47s0.64-0.66,1.12-0.86c-0.63-0.3-1.08-0.71-1.34-1.21
			c-0.26-0.5-0.39-1.35-0.39-2.54c0-1.08-0.01-1.73-0.04-1.94c-0.04-0.37-0.15-0.63-0.33-0.78c-0.18-0.15-0.53-0.22-1.05-0.22h-0.26
			v-1.3h0.46c0.54,0,0.93,0.04,1.17,0.13c0.35,0.12,0.64,0.33,0.87,0.62c0.23,0.29,0.38,0.65,0.45,1.09
			c0.07,0.44,0.11,1.16,0.11,2.15s0.05,1.69,0.14,2.07c0.09,0.38,0.26,0.68,0.53,0.9C28.27,16.28,28.62,16.4,29.04,16.41z"/>
	</g>
</g>
</svg>
