<?xml version="1.0" encoding="utf-8"?>
<!-- Generator: Adobe Illustrator 24.0.1, SVG Export Plug-In . SVG Version: 6.00 Build 0)  -->
<svg version="1.1" id="Dark_Theme_Icons" xmlns="http://www.w3.org/2000/svg" xmlns:xlink="http://www.w3.org/1999/xlink" x="0px"
	 y="0px" viewBox="0 0 33.68 37.19" style="enable-background:new 0 0 33.68 37.19;" xml:space="preserve">
<style type="text/css">
	.st0{fill:#1A1A1A;}
	.st1{fill:#C3C3C3;}
	.st2{fill:#2D2D2D;stroke:#C3C3C3;stroke-width:0.75;stroke-miterlimit:10;}
	.st3{fill:#C3C3C3;stroke:#2D2D2D;stroke-width:0.5;stroke-miterlimit:10;}
	.st4{fill:#2D2D2D;}
	.st5{fill:none;stroke:#2D2D2D;stroke-width:2;stroke-miterlimit:10;}
	.st6{fill:none;stroke:#2D2D2D;stroke-miterlimit:10;}
	.st7{fill:#C3C3C3;stroke:#2D2D2D;stroke-miterlimit:10;}
	.st8{fill:url(#SVGID_1_);}
	.st9{fill:url(#SVGID_2_);}
	.st10{fill:url(#SVGID_3_);}
	.st11{fill:url(#SVGID_4_);}
	.st12{fill:url(#SVGID_5_);}
	.st13{fill:url(#SVGID_6_);}
	.st14{fill:url(#SVGID_7_);}
	.st15{fill:url(#SVGID_8_);}
	.st16{fill:none;stroke:#C3C3C3;stroke-miterlimit:10;stroke-dasharray:1.5,2;}
	.st17{fill:#2D2D2D;stroke:#C3C3C3;stroke-miterlimit:10;}
	.st18{fill:url(#SVGID_9_);}
	.st19{fill:url(#SVGID_10_);}
	.st20{fill:url(#SVGID_11_);}
	.st21{fill:url(#SVGID_12_);}
	.st22{fill:url(#SVGID_13_);}
	.st23{fill:url(#SVGID_14_);}
	.st24{fill:url(#SVGID_15_);}
	.st25{fill:url(#SVGID_16_);}
	.st26{fill:url(#SVGID_17_);}
	.st27{fill:url(#SVGID_18_);}
	.st28{fill:url(#SVGID_19_);}
	.st29{fill:url(#SVGID_20_);}
	.st30{fill:url(#SVGID_21_);}
	.st31{display:none;fill:#C3C3C3;}
	.st32{fill:url(#SVGID_22_);}
	.st33{fill:url(#SVGID_23_);}
	.st34{fill:url(#SVGID_24_);}
	.st35{fill:url(#SVGID_25_);}
	.st36{fill:url(#SVGID_26_);}
	.st37{fill:url(#SVGID_27_);}
	.st38{fill:url(#SVGID_28_);}
	.st39{fill:url(#SVGID_29_);}
	.st40{fill:url(#SVGID_30_);}
	.st41{fill:none;stroke:#C3C3C3;stroke-miterlimit:10;}
	.st42{fill:url(#SVGID_31_);}
	.st43{fill:url(#SVGID_32_);}
	.st44{fill:url(#SVGID_33_);}
	.st45{fill:url(#SVGID_34_);}
	.st46{fill:url(#SVGID_35_);}
	.st47{fill:url(#SVGID_36_);}
</style>
<g id="CodeChart_Logo">
	<g>
		<g>
			<g>
				<path class="st1" d="M26.08,27.27c-1.37,0-2.41-0.37-3.14-1.11c-0.73-0.74-1.09-1.74-1.09-3.02c0-1.35,0.35-2.4,1.06-3.15
					c0.7-0.75,1.76-1.13,3.15-1.13c0.49,0,0.93,0.04,1.32,0.11c0.39,0.07,0.76,0.17,1.11,0.3v1.49c-0.72-0.29-1.48-0.44-2.3-0.44
					c-0.93,0-1.59,0.23-2,0.7c-0.4,0.46-0.61,1.17-0.61,2.12c0,1.79,0.88,2.68,2.63,2.68c0.4,0,0.79-0.04,1.18-0.11
					c0.39-0.07,0.76-0.18,1.11-0.32v1.5c-0.35,0.11-0.71,0.2-1.11,0.27C27.01,27.24,26.57,27.27,26.08,27.27z"/>
				<path class="st1" d="M17.93,27.27c-1.92,0-3.39-0.52-4.41-1.56c-1.02-1.04-1.53-2.45-1.53-4.25c0-1.9,0.5-3.38,1.49-4.43
					c0.99-1.06,2.47-1.58,4.44-1.58c0.69,0,1.31,0.05,1.86,0.15c0.55,0.1,1.07,0.24,1.56,0.42v2.1c-1.01-0.42-2.09-0.62-3.24-0.62
					c-1.31,0-2.24,0.33-2.81,0.98c-0.57,0.65-0.85,1.65-0.85,2.99c0,2.52,1.23,3.77,3.7,3.77c0.56,0,1.11-0.05,1.66-0.15
					c0.55-0.1,1.07-0.25,1.57-0.45v2.12c-0.49,0.15-1.01,0.28-1.56,0.37C19.23,27.22,18.61,27.27,17.93,27.27z"/>
			</g>
			<path class="st1" d="M28.57,31.9c-4.47,3.52-10.88,3.93-15.84,0.58c-2.97-2.01-4.99-5.05-5.67-8.58s0.05-7.1,2.05-10.08
				c2.01-2.98,5.05-4.99,8.58-5.67c3.52-0.68,7.1,0.05,10.08,2.05l0,0c6.14,4.14,7.76,12.51,3.62,18.65
				C30.58,30.05,29.63,31.06,28.57,31.9z M12.72,11.77c-0.98,0.77-1.85,1.7-2.57,2.77c-1.82,2.7-2.48,5.94-1.86,9.13
				c0.62,3.19,2.45,5.96,5.14,7.78c5.57,3.76,13.15,2.29,16.91-3.28c3.76-5.57,2.29-13.15-3.28-16.91c-2.7-1.82-5.94-2.48-9.13-1.86
				C15.99,9.77,14.22,10.58,12.72,11.77z"/>
			<path class="st1" d="M5.56,36.45c-0.12,0.09-0.24,0.18-0.37,0.25c-0.79,0.47-1.71,0.6-2.6,0.38c-0.89-0.22-1.64-0.78-2.11-1.57
				s-0.61-1.71-0.38-2.6c0.46-1.83,2.33-2.95,4.16-2.49l0,0c1.83,0.46,2.95,2.33,2.49,4.16C6.57,35.34,6.15,35.99,5.56,36.45z
				 M2.08,32.06c-0.36,0.29-0.64,0.69-0.76,1.17c-0.14,0.56-0.06,1.15,0.24,1.65c0.3,0.5,0.77,0.85,1.34,0.99
				c0.56,0.14,1.15,0.06,1.65-0.24c0.5-0.3,0.85-0.77,0.99-1.33c0.29-1.16-0.41-2.35-1.58-2.64l0,0C3.28,31.48,2.6,31.65,2.08,32.06
				z"/>
			
				<rect x="5.08" y="29.93" transform="matrix(0.7963 -0.6049 0.6049 0.7963 -16.8651 10.8921)" class="st1" width="5.31" height="1.11"/>
			<path class="st1" d="M8.26,6.12C8.16,6.2,8.05,6.28,7.94,6.35c-0.78,0.48-1.7,0.63-2.59,0.42C3.51,6.34,2.36,4.49,2.8,2.65
				C3.01,1.76,3.55,1,4.33,0.52c0.78-0.48,1.7-0.63,2.59-0.42C7.81,0.3,8.57,0.84,9.05,1.62c0.48,0.78,0.63,1.7,0.42,2.59
				C9.3,4.98,8.87,5.64,8.26,6.12z M4.79,1.73C4.4,2.03,4.13,2.45,4.02,2.93C3.75,4.1,4.47,5.27,5.64,5.55
				C6.2,5.68,6.79,5.58,7.28,5.28c0.49-0.31,0.84-0.79,0.97-1.35l0,0c0.13-0.57,0.04-1.15-0.27-1.64C7.68,1.79,7.2,1.45,6.63,1.31
				C6.07,1.18,5.48,1.28,4.99,1.58C4.92,1.63,4.85,1.67,4.79,1.73z"/>
			
				<rect x="9.52" y="4.81" transform="matrix(0.786 -0.6182 0.6182 0.786 -3.0598 8.0361)" class="st1" width="1.11" height="7.25"/>
		</g>
	</g>
</g>
</svg>
