<?xml version="1.0" encoding="utf-8"?>
<!-- Generator: Adobe Illustrator 24.0.1, SVG Export Plug-In . SVG Version: 6.00 Build 0)  -->
<svg version="1.1" id="Dark_Theme_Icons" xmlns="http://www.w3.org/2000/svg" xmlns:xlink="http://www.w3.org/1999/xlink" x="0px"
	 y="0px" viewBox="0 0 33.91 33.91" style="enable-background:new 0 0 33.91 33.91;" xml:space="preserve">
<style type="text/css">
	.st0{fill:#1A1A1A;}
	.st1{fill:#C3C3C3;}
	.st2{fill:#2D2D2D;stroke:#C3C3C3;stroke-width:0.75;stroke-miterlimit:10;}
	.st3{fill:#C3C3C3;stroke:#2D2D2D;stroke-width:0.5;stroke-miterlimit:10;}
	.st4{fill:#2D2D2D;}
	.st5{fill:none;stroke:#2D2D2D;stroke-width:2;stroke-miterlimit:10;}
	.st6{fill:none;stroke:#2D2D2D;stroke-miterlimit:10;}
	.st7{fill:#C3C3C3;stroke:#2D2D2D;stroke-miterlimit:10;}
	.st8{fill:url(#SVGID_1_);}
	.st9{fill:url(#SVGID_2_);}
	.st10{fill:url(#SVGID_3_);}
	.st11{fill:url(#SVGID_4_);}
	.st12{fill:url(#SVGID_5_);}
	.st13{fill:url(#SVGID_6_);}
	.st14{fill:url(#SVGID_7_);}
	.st15{fill:url(#SVGID_8_);}
	.st16{fill:none;stroke:#C3C3C3;stroke-miterlimit:10;stroke-dasharray:1.5,2;}
	.st17{fill:#2D2D2D;stroke:#C3C3C3;stroke-miterlimit:10;}
	.st18{fill:url(#SVGID_9_);}
	.st19{fill:url(#SVGID_10_);}
	.st20{fill:url(#SVGID_11_);}
	.st21{fill:url(#SVGID_12_);}
	.st22{fill:url(#SVGID_13_);}
	.st23{fill:url(#SVGID_14_);}
	.st24{fill:url(#SVGID_15_);}
	.st25{fill:url(#SVGID_16_);}
	.st26{fill:url(#SVGID_17_);}
	.st27{fill:url(#SVGID_18_);}
	.st28{fill:url(#SVGID_19_);}
	.st29{fill:url(#SVGID_20_);}
	.st30{fill:url(#SVGID_21_);}
	.st31{display:none;fill:#C3C3C3;}
	.st32{fill:url(#SVGID_22_);}
	.st33{fill:url(#SVGID_23_);}
	.st34{fill:url(#SVGID_24_);}
	.st35{fill:url(#SVGID_25_);}
	.st36{fill:url(#SVGID_26_);}
	.st37{fill:url(#SVGID_27_);}
	.st38{fill:url(#SVGID_28_);}
	.st39{fill:url(#SVGID_29_);}
	.st40{fill:url(#SVGID_30_);}
	.st41{fill:none;stroke:#C3C3C3;stroke-miterlimit:10;}
	.st42{fill:url(#SVGID_31_);}
	.st43{fill:url(#SVGID_32_);}
	.st44{fill:url(#SVGID_33_);}
	.st45{fill:url(#SVGID_34_);}
	.st46{fill:url(#SVGID_35_);}
	.st47{fill:url(#SVGID_36_);}
</style>
<g id="Fit_All">
	<linearGradient id="SVGID_1_" gradientUnits="userSpaceOnUse" x1="16.9558" y1="0" x2="16.9558" y2="33.9116">
		<stop  offset="0" style="stop-color:#1A1A1A"/>
		<stop  offset="1" style="stop-color:#333333"/>
	</linearGradient>
	<circle class="st8" cx="16.96" cy="16.96" r="16.96"/>
	<g>
		<g>
			<g>
				<g>
					<path class="st1" d="M9.2,13.54c0,0.82,0.29,1.5,0.64,1.5s0.64-0.68,0.64-1.5v-0.98c0-0.82,0.48-1.02,1.06-0.44l3.07,3.07
						c0.58,0.58,1.23,0.9,1.43,0.69c0.2-0.2-0.11-0.84-0.69-1.43l-3.07-3.07c-0.58-0.58-0.39-1.06,0.44-1.06h0.98
						c0.83,0,1.5-0.29,1.5-0.64s-0.67-0.64-1.5-0.64h-3c-0.82,0-1.5,0.68-1.5,1.5V13.54z"/>
				</g>
				<g>
					<path class="st1" d="M24.62,19.95c0-0.82-0.29-1.5-0.64-1.5s-0.64,0.68-0.64,1.5v0.98c0,0.83-0.48,1.02-1.06,0.44l-3.07-3.07
						c-0.58-0.58-1.23-0.9-1.43-0.69c-0.2,0.2,0.11,0.84,0.69,1.43l3.07,3.07c0.58,0.58,0.39,1.06-0.44,1.06h-0.98
						c-0.83,0-1.5,0.29-1.5,0.64s0.67,0.64,1.5,0.64h3c0.83,0,1.5-0.68,1.5-1.5V19.95z"/>
				</g>
			</g>
			<g>
				<g>
					<path class="st1" d="M13.7,24.46c0.82,0,1.5-0.29,1.5-0.64s-0.68-0.64-1.5-0.64h-0.98c-0.83,0-1.02-0.48-0.44-1.06l3.07-3.07
						c0.58-0.58,0.9-1.23,0.69-1.43c-0.2-0.2-0.84,0.11-1.43,0.69l-3.07,3.07c-0.58,0.58-1.06,0.39-1.06-0.44v-0.98
						c0-0.83-0.29-1.5-0.64-1.5s-0.64,0.67-0.64,1.5v3c0,0.83,0.68,1.5,1.5,1.5H13.7z"/>
				</g>
				<g>
					<path class="st1" d="M20.12,9.04c-0.83,0-1.5,0.29-1.5,0.64s0.67,0.64,1.5,0.64h0.98c0.82,0,1.02,0.48,0.44,1.06l-3.07,3.07
						c-0.58,0.58-0.9,1.23-0.69,1.43c0.2,0.2,0.84-0.11,1.43-0.69l3.07-3.07c0.58-0.58,1.06-0.39,1.06,0.44v0.98
						c0,0.82,0.29,1.5,0.64,1.5s0.64-0.68,0.64-1.5v-3c0-0.82-0.67-1.5-1.5-1.5H20.12z"/>
				</g>
			</g>
		</g>
	</g>
</g>
</svg>
