<?xml version="1.0" encoding="utf-8"?>
<!-- Generator: Adobe Illustrator 24.0.1, SVG Export Plug-In . SVG Version: 6.00 Build 0)  -->
<svg version="1.1" id="Dark_Theme_Icons" xmlns="http://www.w3.org/2000/svg" xmlns:xlink="http://www.w3.org/1999/xlink" x="0px"
	 y="0px" viewBox="0 0 34.17 34.41" style="enable-background:new 0 0 34.17 34.41;" xml:space="preserve">
<style type="text/css">
	.st0{fill:#1A1A1A;}
	.st1{fill:#C3C3C3;}
	.st2{fill:#2D2D2D;stroke:#C3C3C3;stroke-width:0.75;stroke-miterlimit:10;}
	.st3{fill:#C3C3C3;stroke:#2D2D2D;stroke-width:0.5;stroke-miterlimit:10;}
	.st4{fill:#2D2D2D;}
	.st5{fill:none;stroke:#2D2D2D;stroke-width:2;stroke-miterlimit:10;}
	.st6{fill:none;stroke:#2D2D2D;stroke-miterlimit:10;}
	.st7{fill:#C3C3C3;stroke:#2D2D2D;stroke-miterlimit:10;}
	.st8{fill:url(#SVGID_1_);}
	.st9{fill:url(#SVGID_2_);}
	.st10{fill:url(#SVGID_3_);}
	.st11{fill:url(#SVGID_4_);}
	.st12{fill:url(#SVGID_5_);}
	.st13{fill:url(#SVGID_6_);}
	.st14{fill:url(#SVGID_7_);}
	.st15{fill:url(#SVGID_8_);}
	.st16{fill:none;stroke:#C3C3C3;stroke-miterlimit:10;stroke-dasharray:1.5,2;}
	.st17{fill:#2D2D2D;stroke:#C3C3C3;stroke-miterlimit:10;}
	.st18{fill:url(#SVGID_9_);}
	.st19{fill:url(#SVGID_10_);}
	.st20{fill:url(#SVGID_11_);}
	.st21{fill:url(#SVGID_12_);}
	.st22{fill:url(#SVGID_13_);}
	.st23{fill:url(#SVGID_14_);}
	.st24{fill:url(#SVGID_15_);}
	.st25{fill:url(#SVGID_16_);}
	.st26{fill:url(#SVGID_17_);}
	.st27{fill:url(#SVGID_18_);}
	.st28{fill:url(#SVGID_19_);}
	.st29{fill:url(#SVGID_20_);}
	.st30{fill:url(#SVGID_21_);}
	.st31{display:none;fill:#C3C3C3;}
	.st32{fill:url(#SVGID_22_);}
	.st33{fill:url(#SVGID_23_);}
	.st34{fill:url(#SVGID_24_);}
	.st35{fill:url(#SVGID_25_);}
	.st36{fill:url(#SVGID_26_);}
	.st37{fill:url(#SVGID_27_);}
	.st38{fill:url(#SVGID_28_);}
	.st39{fill:url(#SVGID_29_);}
	.st40{fill:url(#SVGID_30_);}
	.st41{fill:none;stroke:#C3C3C3;stroke-miterlimit:10;}
	.st42{fill:url(#SVGID_31_);}
	.st43{fill:url(#SVGID_32_);}
	.st44{fill:url(#SVGID_33_);}
	.st45{fill:url(#SVGID_34_);}
	.st46{fill:url(#SVGID_35_);}
	.st47{fill:url(#SVGID_36_);}
</style>
<g id="Light_Theme">
	<ellipse class="st3" cx="17.09" cy="17.21" rx="16.84" ry="16.96"/>
	<g>
		<path class="st4" d="M27.24,7.57H6.74c-1.49,0-2.7,1.21-2.7,2.7v14.51c0,1.49,1.21,2.7,2.7,2.7h2.98v-1H6.74
			c-0.94,0-1.7-0.76-1.7-1.7V13.71h23.9v11.07c0,0.94-0.76,1.7-1.7,1.7v1c1.49,0,2.7-1.21,2.7-2.7V10.27
			C29.94,8.78,28.73,7.57,27.24,7.57z M5.05,12.71v-2.44c0-0.94,0.76-1.7,1.7-1.7h20.5c0.94,0,1.7,0.76,1.7,1.7v2.44H5.05z"/>
		<circle class="st4" cx="7.49" cy="10.54" r="0.87"/>
		<circle class="st4" cx="10.94" cy="10.54" r="0.87"/>
		<circle class="st4" cx="14.4" cy="10.54" r="0.87"/>
		<circle class="st4" cx="18.4" cy="23.53" r="4.02"/>
		<polygon class="st4" points="18.4,14.33 17.39,17.47 19.42,17.47 		"/>
		<polygon class="st4" points="11.9,17.02 13.4,19.96 14.83,18.53 		"/>
		<polygon class="st4" points="9.21,23.53 12.34,24.54 12.34,22.52 		"/>
		<polygon class="st4" points="11.9,30.03 14.83,28.53 13.4,27.1 		"/>
		<polygon class="st4" points="18.4,32.73 19.42,29.59 17.39,29.59 		"/>
		<polygon class="st4" points="24.91,30.03 23.4,27.1 21.97,28.53 		"/>
		<polygon class="st4" points="27.6,23.53 24.46,22.52 24.46,24.54 		"/>
		<polygon class="st4" points="24.91,17.02 21.97,18.53 23.4,19.96 		"/>
	</g>
</g>
</svg>
