<?xml version="1.0" encoding="utf-8"?>
<!-- Generator: Adobe Illustrator 24.0.1, SVG Export Plug-In . SVG Version: 6.00 Build 0)  -->
<svg version="1.1" id="Dark_Theme_Icons" xmlns="http://www.w3.org/2000/svg" xmlns:xlink="http://www.w3.org/1999/xlink" x="0px"
	 y="0px" viewBox="0 0 33.91 33.91" style="enable-background:new 0 0 33.91 33.91;" xml:space="preserve">
<style type="text/css">
	.st0{fill:#1A1A1A;}
	.st1{fill:#C3C3C3;}
	.st2{fill:#2D2D2D;stroke:#C3C3C3;stroke-width:0.75;stroke-miterlimit:10;}
	.st3{fill:#C3C3C3;stroke:#2D2D2D;stroke-width:0.5;stroke-miterlimit:10;}
	.st4{fill:#2D2D2D;}
	.st5{fill:none;stroke:#2D2D2D;stroke-width:2;stroke-miterlimit:10;}
	.st6{fill:none;stroke:#2D2D2D;stroke-miterlimit:10;}
	.st7{fill:#C3C3C3;stroke:#2D2D2D;stroke-miterlimit:10;}
	.st8{fill:url(#SVGID_1_);}
	.st9{fill:url(#SVGID_2_);}
	.st10{fill:url(#SVGID_3_);}
	.st11{fill:url(#SVGID_4_);}
	.st12{fill:url(#SVGID_5_);}
	.st13{fill:url(#SVGID_6_);}
	.st14{fill:url(#SVGID_7_);}
	.st15{fill:url(#SVGID_8_);}
	.st16{fill:none;stroke:#C3C3C3;stroke-miterlimit:10;stroke-dasharray:1.5,2;}
	.st17{fill:#2D2D2D;stroke:#C3C3C3;stroke-miterlimit:10;}
	.st18{fill:url(#SVGID_9_);}
	.st19{fill:url(#SVGID_10_);}
	.st20{fill:url(#SVGID_11_);}
	.st21{fill:url(#SVGID_12_);}
	.st22{fill:url(#SVGID_13_);}
	.st23{fill:url(#SVGID_14_);}
	.st24{fill:url(#SVGID_15_);}
	.st25{fill:url(#SVGID_16_);}
	.st26{fill:url(#SVGID_17_);}
	.st27{fill:url(#SVGID_18_);}
	.st28{fill:url(#SVGID_19_);}
	.st29{fill:url(#SVGID_20_);}
	.st30{fill:url(#SVGID_21_);}
	.st31{display:none;fill:#C3C3C3;}
	.st32{fill:url(#SVGID_22_);}
	.st33{fill:url(#SVGID_23_);}
	.st34{fill:url(#SVGID_24_);}
	.st35{fill:url(#SVGID_25_);}
	.st36{fill:url(#SVGID_26_);}
	.st37{fill:url(#SVGID_27_);}
	.st38{fill:url(#SVGID_28_);}
	.st39{fill:url(#SVGID_29_);}
	.st40{fill:url(#SVGID_30_);}
	.st41{fill:none;stroke:#C3C3C3;stroke-miterlimit:10;}
	.st42{fill:url(#SVGID_31_);}
	.st43{fill:url(#SVGID_32_);}
	.st44{fill:url(#SVGID_33_);}
	.st45{fill:url(#SVGID_34_);}
	.st46{fill:url(#SVGID_35_);}
	.st47{fill:url(#SVGID_36_);}
</style>
<g id="Reload">
	<linearGradient id="SVGID_1_" gradientUnits="userSpaceOnUse" x1="16.9558" y1="0" x2="16.9558" y2="33.9116">
		<stop  offset="0" style="stop-color:#1A1A1A"/>
		<stop  offset="1" style="stop-color:#333333"/>
	</linearGradient>
	<circle class="st8" cx="16.96" cy="16.96" r="16.96"/>
	<g>
		<g>
			<path class="st1" d="M26.52,9.58c-0.36-0.12-0.76,0.07-0.88,0.44l-1.13,3.27c-0.07-0.17-0.15-0.33-0.24-0.49
				c-0.22-0.4-0.47-0.78-0.76-1.13c-0.29-0.35-0.62-0.69-0.97-0.99c-0.36-0.3-0.74-0.58-1.15-0.82c-0.41-0.24-0.85-0.45-1.31-0.63
				c-0.46-0.17-0.94-0.31-1.44-0.41s-1.01-0.16-1.54-0.17c-0.53-0.01-1.04,0.02-1.55,0.09c-0.5,0.07-0.99,0.19-1.46,0.34
				c-0.47,0.15-0.92,0.34-1.34,0.56c-0.42,0.22-0.82,0.48-1.19,0.76c-0.37,0.29-0.71,0.6-1.02,0.94c-0.31,0.34-0.58,0.71-0.82,1.09
				c-0.24,0.39-0.43,0.8-0.59,1.22c-0.15,0.43-0.27,0.87-0.33,1.33c-0.01,0.05-0.01,0.1,0,0.15c0,0.05,0.01,0.09,0.03,0.14
				c0.01,0.04,0.03,0.09,0.05,0.13c0.02,0.04,0.05,0.08,0.08,0.11c0.03,0.03,0.06,0.07,0.1,0.1c0.04,0.03,0.08,0.05,0.12,0.07
				c0.04,0.02,0.09,0.04,0.13,0.05c0.05,0.01,0.09,0.02,0.14,0.02c0.04,0,0.08,0,0.12-0.01c0.04-0.01,0.08-0.02,0.12-0.03
				c0.04-0.01,0.07-0.03,0.11-0.05c0.03-0.02,0.07-0.04,0.1-0.07c0.03-0.02,0.06-0.05,0.08-0.08c0.03-0.03,0.05-0.06,0.07-0.1
				c0.02-0.03,0.04-0.07,0.05-0.11c0.01-0.04,0.02-0.08,0.03-0.12c0.05-0.38,0.14-0.74,0.27-1.09c0.13-0.35,0.29-0.69,0.49-1
				c0.2-0.32,0.42-0.62,0.68-0.9c0.26-0.28,0.54-0.54,0.85-0.77c0.31-0.23,0.64-0.44,1-0.63c0.35-0.18,0.73-0.34,1.12-0.46
				c0.39-0.12,0.8-0.22,1.22-0.28c0.42-0.06,0.86-0.09,1.3-0.08c0.44,0.01,0.88,0.06,1.29,0.14c0.42,0.08,0.82,0.2,1.21,0.34
				c0.39,0.14,0.75,0.32,1.1,0.52c0.35,0.2,0.67,0.43,0.97,0.68c0.3,0.25,0.57,0.52,0.81,0.81c0.24,0.29,0.46,0.6,0.64,0.93
				c0.08,0.15,0.16,0.3,0.22,0.46l-3.24-1.12c-0.37-0.13-0.77,0.07-0.89,0.43c-0.12,0.36,0.07,0.76,0.44,0.88l4.77,1.64
				c0.38,0.13,0.8-0.07,0.93-0.46l1.64-4.77C27.07,10.11,26.88,9.71,26.52,9.58z"/>
			<path class="st1" d="M25.08,18.64c-0.01-0.04-0.03-0.09-0.05-0.13c-0.02-0.04-0.05-0.08-0.08-0.11c-0.03-0.03-0.06-0.07-0.1-0.1
				c-0.04-0.03-0.08-0.05-0.12-0.07c-0.04-0.02-0.09-0.04-0.13-0.05c-0.05-0.01-0.09-0.02-0.14-0.02c-0.04,0-0.08,0-0.12,0.01
				c-0.04,0.01-0.08,0.02-0.12,0.03c-0.04,0.01-0.07,0.03-0.11,0.05c-0.03,0.02-0.07,0.04-0.1,0.07c-0.03,0.02-0.06,0.05-0.08,0.08
				c-0.03,0.03-0.05,0.06-0.07,0.1c-0.02,0.03-0.04,0.07-0.05,0.11c-0.01,0.04-0.02,0.08-0.03,0.12c-0.05,0.38-0.14,0.74-0.27,1.09
				c-0.13,0.35-0.29,0.69-0.49,1c-0.2,0.32-0.42,0.62-0.68,0.9c-0.26,0.28-0.54,0.54-0.85,0.77c-0.31,0.23-0.64,0.44-1,0.63
				c-0.35,0.18-0.73,0.34-1.12,0.46c-0.39,0.12-0.8,0.22-1.22,0.28c-0.42,0.06-0.86,0.09-1.3,0.08c-0.44-0.01-0.88-0.06-1.29-0.14
				c-0.42-0.08-0.82-0.2-1.21-0.34c-0.39-0.14-0.75-0.32-1.1-0.52c-0.35-0.2-0.67-0.43-0.97-0.68c-0.3-0.25-0.57-0.52-0.81-0.81
				c-0.24-0.29-0.46-0.6-0.64-0.93c-0.08-0.15-0.16-0.3-0.22-0.46l3.24,1.12c0.37,0.13,0.77-0.07,0.89-0.43
				c0.12-0.36-0.07-0.76-0.44-0.88l-4.77-1.64c-0.38-0.13-0.8,0.07-0.93,0.46l-1.64,4.77c-0.13,0.37,0.07,0.77,0.43,0.89
				c0.36,0.12,0.76-0.07,0.88-0.44l1.13-3.27c0.07,0.17,0.15,0.33,0.24,0.49c0.22,0.4,0.47,0.78,0.76,1.13
				c0.29,0.35,0.62,0.69,0.97,0.99c0.36,0.3,0.74,0.58,1.15,0.82c0.41,0.24,0.85,0.45,1.31,0.63c0.46,0.17,0.94,0.31,1.44,0.41
				c0.5,0.1,1.01,0.16,1.54,0.17c0.53,0.01,1.04-0.02,1.55-0.09c0.5-0.07,0.99-0.19,1.46-0.34c0.47-0.15,0.92-0.34,1.34-0.56
				c0.42-0.22,0.82-0.48,1.19-0.76c0.37-0.29,0.71-0.6,1.02-0.94c0.31-0.34,0.58-0.71,0.82-1.09c0.24-0.39,0.43-0.8,0.59-1.22
				c0.15-0.43,0.27-0.87,0.33-1.33c0.01-0.05,0.01-0.1,0-0.15C25.1,18.73,25.09,18.68,25.08,18.64z"/>
		</g>
	</g>
</g>
</svg>
