<?xml version="1.0" encoding="utf-8"?>
<!-- Generator: Adobe Illustrator 24.0.1, SVG Export Plug-In . SVG Version: 6.00 Build 0)  -->
<svg version="1.1" id="Dark_Theme_Icons" xmlns="http://www.w3.org/2000/svg" xmlns:xlink="http://www.w3.org/1999/xlink" x="0px"
	 y="0px" viewBox="0 0 33.67 33.91" style="enable-background:new 0 0 33.67 33.91;" xml:space="preserve">
<style type="text/css">
	.st0{fill:#1A1A1A;}
	.st1{fill:#C3C3C3;}
	.st2{fill:#2D2D2D;stroke:#C3C3C3;stroke-width:0.75;stroke-miterlimit:10;}
	.st3{fill:#C3C3C3;stroke:#2D2D2D;stroke-width:0.5;stroke-miterlimit:10;}
	.st4{fill:#2D2D2D;}
	.st5{fill:none;stroke:#2D2D2D;stroke-width:2;stroke-miterlimit:10;}
	.st6{fill:none;stroke:#2D2D2D;stroke-miterlimit:10;}
	.st7{fill:#C3C3C3;stroke:#2D2D2D;stroke-miterlimit:10;}
	.st8{fill:url(#SVGID_1_);}
	.st9{fill:url(#SVGID_2_);}
	.st10{fill:url(#SVGID_3_);}
	.st11{fill:url(#SVGID_4_);}
	.st12{fill:url(#SVGID_5_);}
	.st13{fill:url(#SVGID_6_);}
	.st14{fill:url(#SVGID_7_);}
	.st15{fill:url(#SVGID_8_);}
	.st16{fill:none;stroke:#C3C3C3;stroke-miterlimit:10;stroke-dasharray:1.5,2;}
	.st17{fill:#2D2D2D;stroke:#C3C3C3;stroke-miterlimit:10;}
	.st18{fill:url(#SVGID_9_);}
	.st19{fill:url(#SVGID_10_);}
	.st20{fill:url(#SVGID_11_);}
	.st21{fill:url(#SVGID_12_);}
	.st22{fill:url(#SVGID_13_);}
	.st23{fill:url(#SVGID_14_);}
	.st24{fill:url(#SVGID_15_);}
	.st25{fill:url(#SVGID_16_);}
	.st26{fill:url(#SVGID_17_);}
	.st27{fill:url(#SVGID_18_);}
	.st28{fill:url(#SVGID_19_);}
	.st29{fill:url(#SVGID_20_);}
	.st30{fill:url(#SVGID_21_);}
	.st31{display:none;fill:#C3C3C3;}
	.st32{fill:url(#SVGID_22_);}
	.st33{fill:url(#SVGID_23_);}
	.st34{fill:url(#SVGID_24_);}
	.st35{fill:url(#SVGID_25_);}
	.st36{fill:url(#SVGID_26_);}
	.st37{fill:url(#SVGID_27_);}
	.st38{fill:url(#SVGID_28_);}
	.st39{fill:url(#SVGID_29_);}
	.st40{fill:url(#SVGID_30_);}
	.st41{fill:none;stroke:#C3C3C3;stroke-miterlimit:10;}
	.st42{fill:url(#SVGID_31_);}
	.st43{fill:url(#SVGID_32_);}
	.st44{fill:url(#SVGID_33_);}
	.st45{fill:url(#SVGID_34_);}
	.st46{fill:url(#SVGID_35_);}
	.st47{fill:url(#SVGID_36_);}
</style>
<g id="Vertical">
	<linearGradient id="SVGID_1_" gradientUnits="userSpaceOnUse" x1="16.8352" y1="0" x2="16.8352" y2="33.9116">
		<stop  offset="5.586592e-03" style="stop-color:#1A1A1A"/>
		<stop  offset="1" style="stop-color:#333333"/>
	</linearGradient>
	<ellipse class="st8" cx="16.84" cy="16.96" rx="16.84" ry="16.96"/>
	<g>
		<path class="st1" d="M27.09,26.91H6.59c-1.49,0-2.7-1.21-2.7-2.7V9.7C3.89,8.21,5.1,7,6.59,7h20.5c1.49,0,2.7,1.21,2.7,2.7v14.51
			C29.79,25.7,28.57,26.91,27.09,26.91z M6.59,8c-0.94,0-1.7,0.76-1.7,1.7v14.51c0,0.94,0.76,1.7,1.7,1.7h20.5
			c0.94,0,1.7-0.76,1.7-1.7V9.7c0-0.94-0.76-1.7-1.7-1.7H6.59z"/>
	</g>
	<g>
		<rect x="6.54" y="16.46" class="st1" width="1.59" height="1"/>
		<rect x="11.3" y="16.46" class="st1" width="1.59" height="1"/>
		<rect x="16.06" y="16.46" class="st1" width="1.59" height="1"/>
		<rect x="20.82" y="16.46" class="st1" width="1.59" height="1"/>
		<rect x="25.58" y="16.46" class="st1" width="1.59" height="1"/>
	</g>
	<path class="st1" d="M13.74,13.3c0.21,0.21,0.66,0.09,1.01-0.26l2.1-2.1l2.1,2.1c0.35,0.35,0.81,0.47,1.01,0.26
		s0.09-0.66-0.26-1.01l-2.21-2.21c-0.35-0.35-0.92-0.35-1.27,0l-2.21,2.21C13.66,12.64,13.54,13.1,13.74,13.3z"/>
	<path class="st1" d="M19.97,20.61c-0.21-0.21-0.66-0.09-1.01,0.26l-2.1,2.1l-2.1-2.1c-0.35-0.35-0.81-0.47-1.01-0.26
		c-0.21,0.21-0.09,0.66,0.26,1.01l2.21,2.21c0.35,0.35,0.92,0.35,1.27,0l2.21-2.21C20.06,21.27,20.18,20.81,19.97,20.61z"/>
</g>
</svg>
