<?xml version="1.0" encoding="utf-8"?>
<!-- Generator: Adobe Illustrator 24.0.1, SVG Export Plug-In . SVG Version: 6.00 Build 0)  -->
<svg version="1.1" id="Dark_Theme_Icons" xmlns="http://www.w3.org/2000/svg" xmlns:xlink="http://www.w3.org/1999/xlink" x="0px"
	 y="0px" viewBox="0 0 33.67 33.91" style="enable-background:new 0 0 33.67 33.91;" xml:space="preserve">
<style type="text/css">
	.st0{fill:#1A1A1A;}
	.st1{fill:#C3C3C3;}
	.st2{fill:#2D2D2D;stroke:#C3C3C3;stroke-width:0.75;stroke-miterlimit:10;}
	.st3{fill:#C3C3C3;stroke:#2D2D2D;stroke-width:0.5;stroke-miterlimit:10;}
	.st4{fill:#2D2D2D;}
	.st5{fill:none;stroke:#2D2D2D;stroke-width:2;stroke-miterlimit:10;}
	.st6{fill:none;stroke:#2D2D2D;stroke-miterlimit:10;}
	.st7{fill:#C3C3C3;stroke:#2D2D2D;stroke-miterlimit:10;}
	.st8{fill:url(#SVGID_1_);}
	.st9{fill:url(#SVGID_2_);}
	.st10{fill:url(#SVGID_3_);}
	.st11{fill:url(#SVGID_4_);}
	.st12{fill:url(#SVGID_5_);}
	.st13{fill:url(#SVGID_6_);}
	.st14{fill:url(#SVGID_7_);}
	.st15{fill:url(#SVGID_8_);}
	.st16{fill:none;stroke:#C3C3C3;stroke-miterlimit:10;stroke-dasharray:1.5,2;}
	.st17{fill:#2D2D2D;stroke:#C3C3C3;stroke-miterlimit:10;}
	.st18{fill:url(#SVGID_9_);}
	.st19{fill:url(#SVGID_10_);}
	.st20{fill:url(#SVGID_11_);}
	.st21{fill:url(#SVGID_12_);}
	.st22{fill:url(#SVGID_13_);}
	.st23{fill:url(#SVGID_14_);}
	.st24{fill:url(#SVGID_15_);}
	.st25{fill:url(#SVGID_16_);}
	.st26{fill:url(#SVGID_17_);}
	.st27{fill:url(#SVGID_18_);}
	.st28{fill:url(#SVGID_19_);}
	.st29{fill:url(#SVGID_20_);}
	.st30{fill:url(#SVGID_21_);}
	.st31{display:none;fill:#C3C3C3;}
	.st32{fill:url(#SVGID_22_);}
	.st33{fill:url(#SVGID_23_);}
	.st34{fill:url(#SVGID_24_);}
	.st35{fill:url(#SVGID_25_);}
	.st36{fill:url(#SVGID_26_);}
	.st37{fill:url(#SVGID_27_);}
	.st38{fill:url(#SVGID_28_);}
	.st39{fill:url(#SVGID_29_);}
	.st40{fill:url(#SVGID_30_);}
	.st41{fill:none;stroke:#C3C3C3;stroke-miterlimit:10;}
	.st42{fill:url(#SVGID_31_);}
	.st43{fill:url(#SVGID_32_);}
	.st44{fill:url(#SVGID_33_);}
	.st45{fill:url(#SVGID_34_);}
	.st46{fill:url(#SVGID_35_);}
	.st47{fill:url(#SVGID_36_);}
</style>
<g id="Create_Match">
	<linearGradient id="SVGID_1_" gradientUnits="userSpaceOnUse" x1="16.8352" y1="0" x2="16.8352" y2="33.9116">
		<stop  offset="0" style="stop-color:#1A1A1A"/>
		<stop  offset="1" style="stop-color:#333333"/>
	</linearGradient>
	<ellipse class="st8" cx="16.84" cy="16.96" rx="16.84" ry="16.96"/>
	<path class="st1" d="M16.84,5.08L11.4,8.24L9.87,9.13l-3.25,1.89v11.88l10.21,5.94l10.21-5.94V11.02L16.84,5.08z M25.51,22
		l-8.68,5.05L8.16,22V11.91l1.71-0.99c0,2.08,0,4.51,0,5.98c0,0.76,0.25,1.01,1.01,1.02l5.69,0c-0.29,0.25-0.62,0.66-0.88,0.93
		c-0.36,0.38-0.35,0.82-0.02,1.14c0.33,0.32,0.76,0.31,1.13-0.06c0.73-0.72,1.45-1.45,2.16-2.19c0.36-0.38,0.37-0.81,0.01-1.18
		c-0.72-0.75-1.45-1.49-2.19-2.23c-0.36-0.35-0.82-0.36-1.14-0.05c-0.32,0.32-0.32,0.77,0.03,1.14c0.26,0.28,0.55,0.54,0.91,0.89
		c-1.78,0-3.44,0-5.16,0c0-0.22,0-0.41,0-0.59c0-1.29,0-3.86,0-5.7l5.42-3.15l8.68,5.05V22z"/>
</g>
</svg>
