<?xml version="1.0" encoding="utf-8"?>
<!-- Generator: Adobe Illustrator 24.0.1, SVG Export Plug-In . SVG Version: 6.00 Build 0)  -->
<svg version="1.1" id="Dark_Theme_Icons" xmlns="http://www.w3.org/2000/svg" xmlns:xlink="http://www.w3.org/1999/xlink" x="0px"
	 y="0px" viewBox="0 0 33.91 37.83" style="enable-background:new 0 0 33.91 37.83;" xml:space="preserve">
<style type="text/css">
	.st0{fill:#1A1A1A;}
	.st1{fill:#C3C3C3;}
	.st2{fill:#2D2D2D;stroke:#C3C3C3;stroke-width:0.75;stroke-miterlimit:10;}
	.st3{fill:#C3C3C3;stroke:#2D2D2D;stroke-width:0.5;stroke-miterlimit:10;}
	.st4{fill:#2D2D2D;}
	.st5{fill:none;stroke:#2D2D2D;stroke-width:2;stroke-miterlimit:10;}
	.st6{fill:none;stroke:#2D2D2D;stroke-miterlimit:10;}
	.st7{fill:#C3C3C3;stroke:#2D2D2D;stroke-miterlimit:10;}
	.st8{fill:url(#SVGID_1_);}
	.st9{fill:url(#SVGID_2_);}
	.st10{fill:url(#SVGID_3_);}
	.st11{fill:url(#SVGID_4_);}
	.st12{fill:url(#SVGID_5_);}
	.st13{fill:url(#SVGID_6_);}
	.st14{fill:url(#SVGID_7_);}
	.st15{fill:url(#SVGID_8_);}
	.st16{fill:none;stroke:#C3C3C3;stroke-miterlimit:10;stroke-dasharray:1.5,2;}
	.st17{fill:#2D2D2D;stroke:#C3C3C3;stroke-miterlimit:10;}
	.st18{fill:url(#SVGID_9_);}
	.st19{fill:url(#SVGID_10_);}
	.st20{fill:url(#SVGID_11_);}
	.st21{fill:url(#SVGID_12_);}
	.st22{fill:url(#SVGID_13_);}
	.st23{fill:url(#SVGID_14_);}
	.st24{fill:url(#SVGID_15_);}
	.st25{fill:url(#SVGID_16_);}
	.st26{fill:url(#SVGID_17_);}
	.st27{fill:url(#SVGID_18_);}
	.st28{fill:url(#SVGID_19_);}
	.st29{fill:url(#SVGID_20_);}
	.st30{fill:url(#SVGID_21_);}
	.st31{display:none;fill:#C3C3C3;}
	.st32{fill:url(#SVGID_22_);}
	.st33{fill:url(#SVGID_23_);}
	.st34{fill:url(#SVGID_24_);}
	.st35{fill:url(#SVGID_25_);}
	.st36{fill:url(#SVGID_26_);}
	.st37{fill:url(#SVGID_27_);}
	.st38{fill:url(#SVGID_28_);}
	.st39{fill:url(#SVGID_29_);}
	.st40{fill:url(#SVGID_30_);}
	.st41{fill:none;stroke:#C3C3C3;stroke-miterlimit:10;}
	.st42{fill:url(#SVGID_31_);}
	.st43{fill:url(#SVGID_32_);}
	.st44{fill:url(#SVGID_33_);}
	.st45{fill:url(#SVGID_34_);}
	.st46{fill:url(#SVGID_35_);}
	.st47{fill:url(#SVGID_36_);}
</style>
<g id="Edit_Diagram_Down">
	<g>
		<linearGradient id="SVGID_1_" gradientUnits="userSpaceOnUse" x1="16.9558" y1="0" x2="16.9558" y2="33.9116">
			<stop  offset="0" style="stop-color:#1A1A1A"/>
			<stop  offset="1" style="stop-color:#333333"/>
		</linearGradient>
		<circle class="st8" cx="16.96" cy="16.96" r="16.96"/>
		<g>
			<path class="st1" d="M25.5,10.13c0.83-0.83,1.02-2,0.41-2.61c-0.6-0.6-1.78-0.42-2.61,0.41l-9.62,8.51
				c-0.83,0.83-0.68,2.34-0.08,2.95l0.51,0.51c0.6,0.6,2.12,0.76,2.95-0.08L25.5,10.13z"/>
			<path class="st1" d="M14.34,21.84c-0.49-0.04-0.95-0.22-1.22-0.49l-0.51-0.51c-0.27-0.27-0.45-0.73-0.49-1.23
				c-1.06-0.21-2.27,0.13-3.16,1.02c-2.07,2.07-2.19-1.1-2.19-1.1c-2.9,2.9,2.15,9.47,6.38,5.61c0.06-0.05,0.11-0.1,0.16-0.15
				C14.2,24.1,14.55,22.9,14.34,21.84z"/>
		</g>
	</g>
	<g>
		<path class="st1" d="M28.12,33.62c-0.25-0.25-0.8-0.11-1.22,0.32l-2.54,2.54l-2.54-2.54c-0.42-0.42-0.97-0.57-1.22-0.32
			c-0.25,0.25-0.11,0.8,0.32,1.22l2.67,2.67c0.42,0.42,1.12,0.42,1.54,0l2.67-2.67C28.23,34.42,28.37,33.87,28.12,33.62z"/>
		<path class="st1" d="M28.12,29.34c-0.25-0.25-0.8-0.11-1.22,0.32l-2.54,2.54l-2.54-2.54c-0.42-0.42-0.97-0.57-1.22-0.32
			c-0.25,0.25-0.11,0.8,0.32,1.22l2.67,2.67c0.42,0.42,1.12,0.42,1.54,0l2.67-2.67C28.23,30.14,28.37,29.59,28.12,29.34z"/>
	</g>
</g>
</svg>
