<?xml version="1.0" encoding="utf-8"?>
<!-- Generator: Adobe Illustrator 24.0.1, SVG Export Plug-In . SVG Version: 6.00 Build 0)  -->
<svg version="1.1" id="Dark_Theme_Icons" xmlns="http://www.w3.org/2000/svg" xmlns:xlink="http://www.w3.org/1999/xlink" x="0px"
	 y="0px" viewBox="0 0 34.17 34.41" style="enable-background:new 0 0 34.17 34.41;" xml:space="preserve">
<style type="text/css">
	.st0{fill:#1A1A1A;}
	.st1{fill:#C3C3C3;}
	.st2{fill:#2D2D2D;stroke:#C3C3C3;stroke-width:0.75;stroke-miterlimit:10;}
	.st3{fill:#C3C3C3;stroke:#2D2D2D;stroke-width:0.5;stroke-miterlimit:10;}
	.st4{fill:#2D2D2D;}
	.st5{fill:none;stroke:#2D2D2D;stroke-width:2;stroke-miterlimit:10;}
	.st6{fill:none;stroke:#2D2D2D;stroke-miterlimit:10;}
	.st7{fill:#C3C3C3;stroke:#2D2D2D;stroke-miterlimit:10;}
	.st8{fill:url(#SVGID_1_);}
	.st9{fill:url(#SVGID_2_);}
	.st10{fill:url(#SVGID_3_);}
	.st11{fill:url(#SVGID_4_);}
	.st12{fill:url(#SVGID_5_);}
	.st13{fill:url(#SVGID_6_);}
	.st14{fill:url(#SVGID_7_);}
	.st15{fill:url(#SVGID_8_);}
	.st16{fill:none;stroke:#C3C3C3;stroke-miterlimit:10;stroke-dasharray:1.5,2;}
	.st17{fill:#2D2D2D;stroke:#C3C3C3;stroke-miterlimit:10;}
	.st18{fill:url(#SVGID_9_);}
	.st19{fill:url(#SVGID_10_);}
	.st20{fill:url(#SVGID_11_);}
	.st21{fill:url(#SVGID_12_);}
	.st22{fill:url(#SVGID_13_);}
	.st23{fill:url(#SVGID_14_);}
	.st24{fill:url(#SVGID_15_);}
	.st25{fill:url(#SVGID_16_);}
	.st26{fill:url(#SVGID_17_);}
	.st27{fill:url(#SVGID_18_);}
	.st28{fill:url(#SVGID_19_);}
	.st29{fill:url(#SVGID_20_);}
	.st30{fill:url(#SVGID_21_);}
	.st31{display:none;fill:#C3C3C3;}
	.st32{fill:url(#SVGID_22_);}
	.st33{fill:url(#SVGID_23_);}
	.st34{fill:url(#SVGID_24_);}
	.st35{fill:url(#SVGID_25_);}
	.st36{fill:url(#SVGID_26_);}
	.st37{fill:url(#SVGID_27_);}
	.st38{fill:url(#SVGID_28_);}
	.st39{fill:url(#SVGID_29_);}
	.st40{fill:url(#SVGID_30_);}
	.st41{fill:none;stroke:#C3C3C3;stroke-miterlimit:10;}
	.st42{fill:url(#SVGID_31_);}
	.st43{fill:url(#SVGID_32_);}
	.st44{fill:url(#SVGID_33_);}
	.st45{fill:url(#SVGID_34_);}
	.st46{fill:url(#SVGID_35_);}
	.st47{fill:url(#SVGID_36_);}
</style>
<g id="Show_Files">
	<ellipse class="st3" cx="17.09" cy="17.21" rx="16.84" ry="16.96"/>
	<g>
		<g>
			<path class="st4" d="M20.77,5.13h-9.71c-2.09,0-3.79,1.7-3.79,3.79v16.57c0,2.09,1.7,3.79,3.79,3.79h12.05
				c2.09,0,3.79-1.7,3.79-3.79V12.65L20.77,5.13z M21.23,8.53l2.89,3.55h-2.89V8.53z M23.11,27.5H11.06c-1.11,0-2-0.9-2-2V8.92
				c0-1.11,0.9-2,2-2h8.39v6.95h5.67v11.63C25.12,26.6,24.22,27.5,23.11,27.5z"/>
		</g>
		<g>
			<path class="st4" d="M21.3,29.9c-2.66-0.06-4.58-1.07-6.28-2.52c-0.9-0.77-1.68-1.69-2.5-2.54c-0.25-0.26-0.33-0.58-0.09-0.89
				c1.76-2.21,3.81-4.06,6.59-4.89c2.47-0.74,4.7-0.04,6.77,1.32c1.43,0.94,2.64,2.11,3.7,3.45c0.23,0.28,0.33,0.58,0.09,0.89
				c-1.77,2.21-3.81,4.05-6.59,4.88C22.34,29.79,21.64,29.84,21.3,29.9z M13.65,24.33c1.39,1.6,2.89,2.97,4.82,3.81
				c1.06,0.46,2.17,0.7,3.33,0.49c2.77-0.48,4.73-2.21,6.48-4.25c0.02-0.02,0.01-0.07,0.02-0.13c-1.3-1.5-2.76-2.82-4.6-3.67
				c-1.76-0.81-3.54-0.83-5.31-0.04C16.51,21.39,15.02,22.73,13.65,24.33z"/>
			<path class="st1" d="M13.69,24.33c1.37-1.59,2.86-2.94,4.75-3.78c1.77-0.79,3.54-0.77,5.31,0.04c1.84,0.85,3.3,2.17,4.6,3.67
				c-0.01,0.06,0,0.11-0.02,0.13c-1.76,2.03-3.72,3.76-6.48,4.25c-1.16,0.2-2.27-0.03-3.33-0.49C16.58,27.3,15.07,25.93,13.69,24.33
				z M24.5,24.33c0-1.93-1.53-3.46-3.45-3.46c-1.92,0-3.46,1.54-3.46,3.46c0,1.92,1.53,3.45,3.46,3.46
				C22.97,27.78,24.5,26.25,24.5,24.33z"/>
			<path class="st4" d="M21.01,20.87c-1.92,0-3.46,1.54-3.46,3.46c0,1.92,1.53,3.45,3.46,3.46c1.93,0,3.45-1.53,3.45-3.45
				C24.46,22.4,22.93,20.87,21.01,20.87z"/>
		</g>
	</g>
</g>
</svg>
