<?xml version="1.0" encoding="utf-8"?>
<!-- Generator: Adobe Illustrator 24.0.1, SVG Export Plug-In . SVG Version: 6.00 Build 0)  -->
<svg version="1.1" id="Dark_Theme_Icons" xmlns="http://www.w3.org/2000/svg" xmlns:xlink="http://www.w3.org/1999/xlink" x="0px"
	 y="0px" viewBox="0 0 33.67 33.91" style="enable-background:new 0 0 33.67 33.91;" xml:space="preserve">
<style type="text/css">
	.st0{fill:#1A1A1A;}
	.st1{fill:#C3C3C3;}
	.st2{fill:#2D2D2D;stroke:#C3C3C3;stroke-width:0.75;stroke-miterlimit:10;}
	.st3{fill:#C3C3C3;stroke:#2D2D2D;stroke-width:0.5;stroke-miterlimit:10;}
	.st4{fill:#2D2D2D;}
	.st5{fill:none;stroke:#2D2D2D;stroke-width:2;stroke-miterlimit:10;}
	.st6{fill:none;stroke:#2D2D2D;stroke-miterlimit:10;}
	.st7{fill:#C3C3C3;stroke:#2D2D2D;stroke-miterlimit:10;}
	.st8{fill:url(#SVGID_1_);}
	.st9{fill:url(#SVGID_2_);}
	.st10{fill:url(#SVGID_3_);}
	.st11{fill:url(#SVGID_4_);}
	.st12{fill:url(#SVGID_5_);}
	.st13{fill:url(#SVGID_6_);}
	.st14{fill:url(#SVGID_7_);}
	.st15{fill:url(#SVGID_8_);}
	.st16{fill:none;stroke:#C3C3C3;stroke-miterlimit:10;stroke-dasharray:1.5,2;}
	.st17{fill:#2D2D2D;stroke:#C3C3C3;stroke-miterlimit:10;}
	.st18{fill:url(#SVGID_9_);}
	.st19{fill:url(#SVGID_10_);}
	.st20{fill:url(#SVGID_11_);}
	.st21{fill:url(#SVGID_12_);}
	.st22{fill:url(#SVGID_13_);}
	.st23{fill:url(#SVGID_14_);}
	.st24{fill:url(#SVGID_15_);}
	.st25{fill:url(#SVGID_16_);}
	.st26{fill:url(#SVGID_17_);}
	.st27{fill:url(#SVGID_18_);}
	.st28{fill:url(#SVGID_19_);}
	.st29{fill:url(#SVGID_20_);}
	.st30{fill:url(#SVGID_21_);}
	.st31{display:none;fill:#C3C3C3;}
	.st32{fill:url(#SVGID_22_);}
	.st33{fill:url(#SVGID_23_);}
	.st34{fill:url(#SVGID_24_);}
	.st35{fill:url(#SVGID_25_);}
	.st36{fill:url(#SVGID_26_);}
	.st37{fill:url(#SVGID_27_);}
	.st38{fill:url(#SVGID_28_);}
	.st39{fill:url(#SVGID_29_);}
	.st40{fill:url(#SVGID_30_);}
	.st41{fill:none;stroke:#C3C3C3;stroke-miterlimit:10;}
	.st42{fill:url(#SVGID_31_);}
	.st43{fill:url(#SVGID_32_);}
	.st44{fill:url(#SVGID_33_);}
	.st45{fill:url(#SVGID_34_);}
	.st46{fill:url(#SVGID_35_);}
	.st47{fill:url(#SVGID_36_);}
</style>
<g id="Hide_Range">
	<linearGradient id="SVGID_1_" gradientUnits="userSpaceOnUse" x1="0" y1="16.9558" x2="33.6704" y2="16.9558">
		<stop  offset="0" style="stop-color:#1A1A1A"/>
		<stop  offset="1" style="stop-color:#333333"/>
	</linearGradient>
	<ellipse class="st8" cx="16.84" cy="16.96" rx="16.84" ry="16.96"/>
	<g>
		<g>
			<path class="st1" d="M9.82,10.36c0-0.4-0.04-0.81,0.01-1.21c0.07-0.62,0.39-0.96,0.89-0.96c0.5,0,0.84,0.35,0.88,0.97
				c0.05,0.84,0.05,1.68,0,2.52c-0.04,0.68-0.4,1.04-0.94,1.01c-0.5-0.03-0.8-0.4-0.85-1.03C9.79,11.24,9.82,10.8,9.82,10.36
				C9.82,10.36,9.82,10.36,9.82,10.36z"/>
			<path class="st1" d="M17.53,10.45c0,0.37,0.02,0.73,0,1.1c-0.04,0.73-0.35,1.16-0.94,1.15c-0.54-0.01-0.85-0.43-0.88-1.11
				c-0.03-0.77-0.03-1.54,0-2.3c0.03-0.68,0.34-1.08,0.89-1.09c0.54-0.01,0.86,0.37,0.92,1.05C17.55,9.64,17.53,10.05,17.53,10.45
				C17.53,10.45,17.53,10.45,17.53,10.45z"/>
			<path class="st1" d="M21.6,10.44c0-0.37-0.02-0.73,0-1.1c0.04-0.73,0.34-1.16,0.93-1.15c0.54,0.01,0.85,0.42,0.88,1.1
				c0.03,0.77,0.03,1.54,0,2.3c-0.03,0.68-0.34,1.09-0.88,1.1c-0.59,0.01-0.89-0.42-0.93-1.16C21.59,11.18,21.6,10.81,21.6,10.44z"
				/>
			<circle class="st1" cx="3.82" cy="11.79" r="0.91"/>
			<circle class="st1" cx="28.82" cy="11.79" r="0.91"/>
			<path class="st1" d="M30.91,19.6h-3.6v-1.42c0-0.33-0.19-0.59-0.42-0.59l-4.12-2.67c-0.23,0-0.42,0.27-0.42,0.59v3.13H10.95
				v-3.13c0-0.33-0.19-0.59-0.42-0.59l-4.12,2.67c-0.23,0-0.42,0.27-0.42,0.59v1.42H2.76c-0.51,0-0.92,0.46-0.92,1.02
				c0,0.56,0.42,1.02,0.92,1.02h3.23v3.21c0,0.33,0.19,0.59,0.42,0.59h4.12c0.23,0,0.42-0.27,0.42-0.59V22.4h11.39v2.45
				c0,0.33,0.19,0.59,0.42,0.59h4.12c0.23,0,0.42-0.27,0.42-0.59v-3.21h3.6c0.51,0,0.92-0.46,0.92-1.02
				C31.84,20.05,31.42,19.6,30.91,19.6z M10.19,23.42c0,0.23-0.13,0.41-0.29,0.41H7.04c-0.16,0-0.29-0.19-0.29-0.41v-4.63
				c0-0.23,0.13-0.41,0.29-0.41l2.86-1.86c0.16,0,0.29,0.19,0.29,0.41V23.42z M26.55,23.42c0,0.23-0.13,0.41-0.29,0.41h-2.86
				c-0.16,0-0.29-0.19-0.29-0.41v-6.49c0-0.23,0.13-0.41,0.29-0.41l2.86,1.86c0.16,0,0.29,0.19,0.29,0.41V23.42z"/>
		</g>
	</g>
</g>
</svg>
