<?xml version="1.0" encoding="utf-8"?>
<!-- Generator: Adobe Illustrator 24.0.1, SVG Export Plug-In . SVG Version: 6.00 Build 0)  -->
<svg version="1.1" id="Dark_Theme_Icons" xmlns="http://www.w3.org/2000/svg" xmlns:xlink="http://www.w3.org/1999/xlink" x="0px"
	 y="0px" viewBox="0 0 33.67 33.91" style="enable-background:new 0 0 33.67 33.91;" xml:space="preserve">
<style type="text/css">
	.st0{fill:#1A1A1A;}
	.st1{fill:#C3C3C3;}
	.st2{fill:#2D2D2D;stroke:#C3C3C3;stroke-width:0.75;stroke-miterlimit:10;}
	.st3{fill:#C3C3C3;stroke:#2D2D2D;stroke-width:0.5;stroke-miterlimit:10;}
	.st4{fill:#2D2D2D;}
	.st5{fill:none;stroke:#2D2D2D;stroke-width:2;stroke-miterlimit:10;}
	.st6{fill:none;stroke:#2D2D2D;stroke-miterlimit:10;}
	.st7{fill:#C3C3C3;stroke:#2D2D2D;stroke-miterlimit:10;}
	.st8{fill:url(#SVGID_1_);}
	.st9{fill:url(#SVGID_2_);}
	.st10{fill:url(#SVGID_3_);}
	.st11{fill:url(#SVGID_4_);}
	.st12{fill:url(#SVGID_5_);}
	.st13{fill:url(#SVGID_6_);}
	.st14{fill:url(#SVGID_7_);}
	.st15{fill:url(#SVGID_8_);}
	.st16{fill:none;stroke:#C3C3C3;stroke-miterlimit:10;stroke-dasharray:1.5,2;}
	.st17{fill:#2D2D2D;stroke:#C3C3C3;stroke-miterlimit:10;}
	.st18{fill:url(#SVGID_9_);}
	.st19{fill:url(#SVGID_10_);}
	.st20{fill:url(#SVGID_11_);}
	.st21{fill:url(#SVGID_12_);}
	.st22{fill:url(#SVGID_13_);}
	.st23{fill:url(#SVGID_14_);}
	.st24{fill:url(#SVGID_15_);}
	.st25{fill:url(#SVGID_16_);}
	.st26{fill:url(#SVGID_17_);}
	.st27{fill:url(#SVGID_18_);}
	.st28{fill:url(#SVGID_19_);}
	.st29{fill:url(#SVGID_20_);}
	.st30{fill:url(#SVGID_21_);}
	.st31{display:none;fill:#C3C3C3;}
	.st32{fill:url(#SVGID_22_);}
	.st33{fill:url(#SVGID_23_);}
	.st34{fill:url(#SVGID_24_);}
	.st35{fill:url(#SVGID_25_);}
	.st36{fill:url(#SVGID_26_);}
	.st37{fill:url(#SVGID_27_);}
	.st38{fill:url(#SVGID_28_);}
	.st39{fill:url(#SVGID_29_);}
	.st40{fill:url(#SVGID_30_);}
	.st41{fill:none;stroke:#C3C3C3;stroke-miterlimit:10;}
	.st42{fill:url(#SVGID_31_);}
	.st43{fill:url(#SVGID_32_);}
	.st44{fill:url(#SVGID_33_);}
	.st45{fill:url(#SVGID_34_);}
	.st46{fill:url(#SVGID_35_);}
	.st47{fill:url(#SVGID_36_);}
</style>
<g id="Download">
	<linearGradient id="SVGID_1_" gradientUnits="userSpaceOnUse" x1="16.8352" y1="0" x2="16.8352" y2="33.9116">
		<stop  offset="0" style="stop-color:#1A1A1A"/>
		<stop  offset="1" style="stop-color:#333333"/>
	</linearGradient>
	<ellipse class="st8" cx="16.84" cy="16.96" rx="16.84" ry="16.96"/>
	<g>
		<g>
			<path class="st1" d="M15.78,17.09c0-0.29,0-0.49,0-0.69c0-2.55,0-3.09,0-5.64c0-0.85,0.53-1.39,1.22-1.26
				c0.57,0.11,0.88,0.53,0.88,1.26c0,2.45,0,2.9,0,5.35c0,0.26,0,0.53,0,0.88c0.17-0.1,0.29-0.16,0.4-0.24
				c0.71-0.53,1.41-1.07,2.13-1.59c0.53-0.39,1.14-0.3,1.5,0.18c0.34,0.45,0.28,1.08-0.21,1.46c-1.41,1.08-2.83,2.14-4.25,3.19
				c-0.39,0.28-0.83,0.29-1.22,0.02c-1.43-0.99-2.84-1.98-4.25-3c-0.5-0.36-0.58-0.98-0.25-1.45c0.33-0.46,0.93-0.59,1.46-0.25
				c0.71,0.46,1.4,0.96,2.09,1.45C15.42,16.87,15.56,16.95,15.78,17.09z"/>
			<path class="st1" d="M10.44,22.31c4.29,0,8.49,0,12.78,0c0-0.34-0.01-0.68,0-1.01c0.02-0.66,0.44-1.1,1.04-1.11
				c0.59,0,1.02,0.44,1.04,1.1c0.02,0.68,0.02,1.36,0.01,2.04c-0.01,0.69-0.41,1.08-1.11,1.08c-4.91,0-9.81,0-14.72,0
				c-0.73,0-1.11-0.4-1.12-1.13c-0.01-0.66-0.01-1.32,0.01-1.98C8.38,20.64,8.8,20.2,9.4,20.2c0.6,0,1.02,0.44,1.04,1.1
				C10.45,21.62,10.44,21.93,10.44,22.31z"/>
		</g>
	</g>
</g>
</svg>
