<?xml version="1.0" encoding="utf-8"?>
<!-- Generator: Adobe Illustrator 24.0.1, SVG Export Plug-In . SVG Version: 6.00 Build 0)  -->
<svg version="1.1" id="Dark_Theme_Icons" xmlns="http://www.w3.org/2000/svg" xmlns:xlink="http://www.w3.org/1999/xlink" x="0px"
	 y="0px" viewBox="0 0 33.67 33.91" style="enable-background:new 0 0 33.67 33.91;" xml:space="preserve">
<style type="text/css">
	.st0{fill:#1A1A1A;}
	.st1{fill:#C3C3C3;}
	.st2{fill:#2D2D2D;stroke:#C3C3C3;stroke-width:0.75;stroke-miterlimit:10;}
	.st3{fill:#C3C3C3;stroke:#2D2D2D;stroke-width:0.5;stroke-miterlimit:10;}
	.st4{fill:#2D2D2D;}
	.st5{fill:none;stroke:#2D2D2D;stroke-width:2;stroke-miterlimit:10;}
	.st6{fill:none;stroke:#2D2D2D;stroke-miterlimit:10;}
	.st7{fill:#C3C3C3;stroke:#2D2D2D;stroke-miterlimit:10;}
	.st8{fill:url(#SVGID_1_);}
	.st9{fill:url(#SVGID_2_);}
	.st10{fill:url(#SVGID_3_);}
	.st11{fill:url(#SVGID_4_);}
	.st12{fill:url(#SVGID_5_);}
	.st13{fill:url(#SVGID_6_);}
	.st14{fill:url(#SVGID_7_);}
	.st15{fill:url(#SVGID_8_);}
	.st16{fill:none;stroke:#C3C3C3;stroke-miterlimit:10;stroke-dasharray:1.5,2;}
	.st17{fill:#2D2D2D;stroke:#C3C3C3;stroke-miterlimit:10;}
	.st18{fill:url(#SVGID_9_);}
	.st19{fill:url(#SVGID_10_);}
	.st20{fill:url(#SVGID_11_);}
	.st21{fill:url(#SVGID_12_);}
	.st22{fill:url(#SVGID_13_);}
	.st23{fill:url(#SVGID_14_);}
	.st24{fill:url(#SVGID_15_);}
	.st25{fill:url(#SVGID_16_);}
	.st26{fill:url(#SVGID_17_);}
	.st27{fill:url(#SVGID_18_);}
	.st28{fill:url(#SVGID_19_);}
	.st29{fill:url(#SVGID_20_);}
	.st30{fill:url(#SVGID_21_);}
	.st31{display:none;fill:#C3C3C3;}
	.st32{fill:url(#SVGID_22_);}
	.st33{fill:url(#SVGID_23_);}
	.st34{fill:url(#SVGID_24_);}
	.st35{fill:url(#SVGID_25_);}
	.st36{fill:url(#SVGID_26_);}
	.st37{fill:url(#SVGID_27_);}
	.st38{fill:url(#SVGID_28_);}
	.st39{fill:url(#SVGID_29_);}
	.st40{fill:url(#SVGID_30_);}
	.st41{fill:none;stroke:#C3C3C3;stroke-miterlimit:10;}
	.st42{fill:url(#SVGID_31_);}
	.st43{fill:url(#SVGID_32_);}
	.st44{fill:url(#SVGID_33_);}
	.st45{fill:url(#SVGID_34_);}
	.st46{fill:url(#SVGID_35_);}
	.st47{fill:url(#SVGID_36_);}
</style>
<g id="Get_File_Node">
	<linearGradient id="SVGID_1_" gradientUnits="userSpaceOnUse" x1="16.8352" y1="0" x2="16.8352" y2="33.9116">
		<stop  offset="0" style="stop-color:#1A1A1A"/>
		<stop  offset="1" style="stop-color:#333333"/>
	</linearGradient>
	<ellipse class="st8" cx="16.84" cy="16.96" rx="16.84" ry="16.96"/>
	<g>
		<g>
			<path class="st1" d="M20.31,5.47h-9.16c-1.97,0-3.58,1.62-3.58,3.61v15.75c0,1.99,1.61,3.61,3.58,3.61h11.38
				c1.97,0,3.58-1.62,3.58-3.61V12.63L20.31,5.47z M20.75,8.71l2.73,3.37h-2.73V8.71z M22.52,26.74H11.15
				c-1.04,0-1.89-0.85-1.89-1.91V9.08c0-1.05,0.85-1.91,1.89-1.91h7.92v6.61h5.35v11.05C24.42,25.88,23.57,26.74,22.52,26.74z"/>
		</g>
		<g>
			<path class="st1" d="M15.24,22.28l-4.22-1.85v-1.02l4.22-1.84v1.21l-2.94,1.13l2.94,1.18V22.28z"/>
			<path class="st1" d="M15.63,23.09l1.53-6.41h0.89l-1.54,6.41H15.63z"/>
			<path class="st1" d="M18.43,22.29v-1.2l2.95-1.17l-2.95-1.16v-1.19l4.23,1.84v1.02L18.43,22.29z"/>
		</g>
	</g>
</g>
</svg>
