<svg id="Icons" xmlns="http://www.w3.org/2000/svg" xmlns:xlink="http://www.w3.org/1999/xlink" width="33.91" height="37.76" viewBox="0 0 33.91 37.76"><defs><linearGradient id="linear-gradient" x1="16.96" x2="16.96" y2="33.91" gradientUnits="userSpaceOnUse"><stop offset="0" stop-color="#1a1a1a"/><stop offset="1" stop-color="#333"/></linearGradient></defs><title>CodeChart_Web_Icons_</title><g id="View_Settings_Up" data-name="View Settings Up"><circle cx="16.96" cy="16.96" r="16.96" fill="url(#linear-gradient)"/><path d="M31,16.75A19,19,0,0,0,4.78,14.49C1,17.6,2.6,17.88,5,19.81c.9.73,4.88,2.87,4.11,2.16-.44-.4-4.34-4.54-4.34-4.54s4.16-3,7-3.54a35.81,35.81,0,0,1,10.13,0c2,.38,5.28,2.43,6.8,3.89-.07.43-4.32,4.09-4.2,4.3s1.79-.72,4-1.81C29.13,20,32.56,18.27,31,16.75Z" fill="#c3c3c3"/><path d="M17,12a5.51,5.51,0,1,0,5.5,5.5A5.5,5.5,0,0,0,17,12Zm-2.68,7.71a2.21,2.21,0,1,1,2.21-2.21A2.21,2.21,0,0,1,14.28,19.72Z" fill="#c3c3c3"/><path d="M28.26,33.55c-.25-.24-.8-.1-1.22.32L24.5,36.41,22,33.87c-.43-.42-1-.56-1.22-.32s-.11.8.31,1.22l2.68,2.68a1.09,1.09,0,0,0,1.53,0l2.68-2.68C28.36,34.35,28.5,33.8,28.26,33.55Z" fill="#c3c3c3"/><path d="M28.26,29.27c-.25-.25-.8-.11-1.22.32L24.5,32.13,22,29.59c-.43-.43-1-.57-1.22-.32s-.11.8.31,1.22l2.68,2.67a1.09,1.09,0,0,0,1.53,0l2.68-2.67C28.36,30.07,28.5,29.52,28.26,29.27Z" fill="#c3c3c3"/></g></svg>