<svg id="Icons" xmlns="http://www.w3.org/2000/svg" width="34.17" height="34.41" viewBox="0 0 34.17 34.41"><title>CodeChart_Web_Icons_</title><g id="Show_Range" data-name="Show Range"><ellipse cx="17.09" cy="17.21" rx="16.84" ry="16.96" fill="#c3c3c3" stroke="#2d2d2d" stroke-miterlimit="10" stroke-width="0.5"/><path d="M10.07,10.61c0-.41,0-.82,0-1.21.08-.62.4-1,.9-1s.84.35.88,1a21.19,21.19,0,0,1,0,2.52c0,.68-.4,1.05-.93,1s-.8-.4-.85-1c0-.43,0-.87,0-1.31Z" fill="#2d2d2d"/><path d="M17.78,10.7c0,.37,0,.73,0,1.1,0,.73-.35,1.16-.94,1.15S16,12.52,16,11.84s0-1.54,0-2.3.34-1.09.88-1.1.86.37.92,1.05c0,.4,0,.81,0,1.21Z" fill="#2d2d2d"/><path d="M21.85,10.69c0-.36,0-.73,0-1.09,0-.73.34-1.17.93-1.16s.85.43.88,1.1,0,1.54,0,2.31-.34,1.09-.88,1.1-.89-.43-.93-1.16C21.84,11.43,21.85,11.06,21.85,10.69Z" fill="#2d2d2d"/><circle cx="4.07" cy="12.04" r="0.91" fill="#2d2d2d"/><circle cx="29.07" cy="12.04" r="0.91" fill="#2d2d2d"/><path d="M31.16,19.85h-3.6V18.43c0-.33-.19-.6-.42-.6L23,15.16c-.24,0-.43.27-.43.6v3.13H11.2V15.76c0-.33-.19-.6-.42-.6L6.66,17.83c-.24,0-.43.27-.43.6v1.42H3a1,1,0,0,0,0,2H6.23V25.1c0,.32.19.59.43.59h4.12c.23,0,.42-.27.42-.59V22.65H22.59V25.1c0,.32.19.59.43.59h4.12c.23,0,.42-.27.42-.59V21.88h3.6a1,1,0,0,0,0-2ZM10.44,23.67c0,.23-.13.41-.29.41H7.29c-.16,0-.3-.18-.3-.41V19c0-.23.14-.42.3-.42l2.86-1.85c.16,0,.29.18.29.41Zm16.36,0c0,.23-.14.41-.3.41H23.64c-.16,0-.29-.18-.29-.41V17.18c0-.23.13-.41.29-.41l2.86,1.85c.16,0,.3.19.3.42Z" fill="#2d2d2d"/></g></svg>