<svg id="Icons" xmlns="http://www.w3.org/2000/svg" xmlns:xlink="http://www.w3.org/1999/xlink" width="33.67" height="33.91" viewBox="0 0 33.67 33.91"><defs><linearGradient id="linear-gradient" x1="16.84" x2="16.84" y2="33.91" gradientUnits="userSpaceOnUse"><stop offset="0" stop-color="#1a1a1a"/><stop offset="1" stop-color="#333"/></linearGradient></defs><title>CodeChart_Web_Icons_</title><g id="Search_File" data-name="Search File"><ellipse cx="16.84" cy="16.96" rx="16.84" ry="16.96" fill="url(#linear-gradient)"/><path d="M15.15,20.76l3.62-4.12a3.27,3.27,0,0,1,.47-.51.87.87,0,0,1,1.2,0,.79.79,0,0,1,.07,1.17c-1.55,1.77-3.1,3.53-4.67,5.28a.82.82,0,0,1-1.28,0c-.46-.45-.91-.91-1.34-1.39a.83.83,0,0,1,0-1.28.8.8,0,0,1,1.22.06C14.69,20.23,14.88,20.46,15.15,20.76Z" fill="#c3c3c3"/><path d="M20.31,5.47H11.15A3.6,3.6,0,0,0,7.57,9.08V24.83a3.6,3.6,0,0,0,3.58,3.61H22.52a3.6,3.6,0,0,0,3.58-3.61V12.63Zm.44,3.24,2.73,3.37H20.75Zm1.77,18H11.15a1.91,1.91,0,0,1-1.9-1.91V9.08a1.91,1.91,0,0,1,1.9-1.91h7.91v6.61h5.36v11A1.91,1.91,0,0,1,22.52,26.74Z" fill="#c3c3c3"/></g></svg>