<svg id="Icons" xmlns="http://www.w3.org/2000/svg" xmlns:xlink="http://www.w3.org/1999/xlink" width="33.67" height="33.91" viewBox="0 0 33.67 33.91"><defs><linearGradient id="linear-gradient" x1="16.84" x2="16.84" y2="33.91" gradientUnits="userSpaceOnUse"><stop offset="0" stop-color="#1a1a1a"/><stop offset="1" stop-color="#333"/></linearGradient></defs><title>CodeChart_Web_Icons_</title><g id="Get_File_Node" data-name="Get File Node"><ellipse cx="16.84" cy="16.96" rx="16.84" ry="16.96" fill="url(#linear-gradient)"/><path d="M20.31,5.47H11.15A3.6,3.6,0,0,0,7.57,9.08V24.83a3.6,3.6,0,0,0,3.58,3.61H22.52a3.6,3.6,0,0,0,3.58-3.61V12.63Zm.44,3.24,2.73,3.37H20.75Zm1.77,18H11.15a1.91,1.91,0,0,1-1.9-1.91V9.08a1.91,1.91,0,0,1,1.9-1.91h7.91v6.61h5.36v11A1.91,1.91,0,0,1,22.52,26.74Z" fill="#c3c3c3"/><path d="M15.24,22.28,11,20.43v-1l4.23-1.84v1.2l-3,1.14,3,1.17Z" fill="#c3c3c3"/><path d="M15.63,23.09l1.52-6.41H18L16.5,23.09Z" fill="#c3c3c3"/><path d="M18.43,22.29v-1.2l2.95-1.17-2.95-1.15V17.58l4.23,1.84v1Z" fill="#c3c3c3"/></g></svg>