<svg id="Icons" xmlns="http://www.w3.org/2000/svg" xmlns:xlink="http://www.w3.org/1999/xlink" width="33.91" height="37.83" viewBox="0 0 33.91 37.83"><defs><linearGradient id="linear-gradient" x1="16.96" x2="16.96" y2="33.91" gradientUnits="userSpaceOnUse"><stop offset="0" stop-color="#1a1a1a"/><stop offset="1" stop-color="#333"/></linearGradient></defs><title>CodeChart_Web_Icons_</title><g id="Edit_Diagram_Down" data-name="Edit Diagram Down"><circle cx="16.96" cy="16.96" r="16.96" fill="url(#linear-gradient)"/><path d="M25.5,10.13a1.92,1.92,0,0,0,.41-2.61,1.92,1.92,0,0,0-2.6.42l-9.62,8.51a2.3,2.3,0,0,0-.08,2.95l.51.51a2.3,2.3,0,0,0,3-.08Z" fill="#c3c3c3"/><path d="M14.34,21.84a2,2,0,0,1-1.22-.49l-.51-.51a2,2,0,0,1-.49-1.23,3.55,3.55,0,0,0-3.16,1c-2.07,2.07-2.18-1.1-2.18-1.1-2.9,2.89,2.14,9.46,6.37,5.6.06,0,.11-.1.17-.15A3.55,3.55,0,0,0,14.34,21.84Z" fill="#c3c3c3"/><path d="M28.12,33.62c-.25-.25-.8-.1-1.22.32l-2.54,2.54-2.54-2.54c-.42-.42-1-.57-1.22-.32s-.1.8.32,1.22l2.67,2.68a1.1,1.1,0,0,0,1.54,0l2.67-2.68C28.23,34.42,28.37,33.87,28.12,33.62Z" fill="#c3c3c3"/><path d="M28.12,29.34c-.25-.25-.8-.11-1.22.32L24.36,32.2l-2.54-2.54c-.42-.43-1-.57-1.22-.32s-.1.8.32,1.22l2.67,2.67a1.1,1.1,0,0,0,1.54,0l2.67-2.67C28.23,30.14,28.37,29.59,28.12,29.34Z" fill="#c3c3c3"/></g></svg>