<svg id="Icons" xmlns="http://www.w3.org/2000/svg" width="34.17" height="34.41" viewBox="0 0 34.17 34.41"><title>CodeChart_Web_Icons_</title><g id="Show_Files" data-name="Show Files"><ellipse cx="17.09" cy="17.21" rx="16.84" ry="16.96" fill="#c3c3c3" stroke="#2d2d2d" stroke-miterlimit="10" stroke-width="0.5"/><path d="M20.77,5.13H11.06A3.79,3.79,0,0,0,7.27,8.92V25.49a3.79,3.79,0,0,0,3.79,3.79h12a3.79,3.79,0,0,0,3.79-3.79V12.65Zm.46,3.4,2.9,3.55h-2.9Zm1.88,19h-12a2,2,0,0,1-2-2V8.92a2,2,0,0,1,2-2h8.39v7h5.67V25.49A2,2,0,0,1,23.11,27.5Z" fill="#2d2d2d"/><path d="M21.3,29.9A9.52,9.52,0,0,1,15,27.37c-.89-.77-1.67-1.68-2.5-2.54a.62.62,0,0,1-.08-.89A13.42,13.42,0,0,1,19,19.05a7.87,7.87,0,0,1,6.78,1.32,16,16,0,0,1,3.7,3.45.64.64,0,0,1,.08.89A13.46,13.46,0,0,1,23,29.6,13,13,0,0,1,21.3,29.9Zm-7.65-5.57a13.78,13.78,0,0,0,4.82,3.81,5.83,5.83,0,0,0,3.34.49c2.76-.48,4.72-2.21,6.48-4.24,0,0,0-.07,0-.13a13.76,13.76,0,0,0-4.61-3.67,6.08,6.08,0,0,0-5.3,0A13.55,13.55,0,0,0,13.65,24.33Z" fill="#2d2d2d"/><path d="M13.69,24.33a13.6,13.6,0,0,1,4.74-3.78,6.11,6.11,0,0,1,5.31,0,13.82,13.82,0,0,1,4.6,3.67.45.45,0,0,1,0,.13c-1.76,2-3.72,3.76-6.49,4.24a5.78,5.78,0,0,1-3.33-.49A13.6,13.6,0,0,1,13.69,24.33Zm10.81,0A3.46,3.46,0,1,0,21,27.78,3.43,3.43,0,0,0,24.5,24.33Z" fill="#c3c3c3"/><path d="M21,20.87a3.46,3.46,0,1,0,3.45,3.46A3.45,3.45,0,0,0,21,20.87Z" fill="#2d2d2d"/></g></svg>