<svg id="Icons" xmlns="http://www.w3.org/2000/svg" xmlns:xlink="http://www.w3.org/1999/xlink" width="33.67" height="33.91" viewBox="0 0 33.67 33.91"><defs><linearGradient id="linear-gradient" x1="16.84" x2="16.84" y2="33.91" gradientUnits="userSpaceOnUse"><stop offset="0" stop-color="#1a1a1a"/><stop offset="1" stop-color="#333"/></linearGradient></defs><title>CodeChart_Web_Icons_</title><g id="Upload"><ellipse cx="16.84" cy="16.96" rx="16.84" ry="16.96" fill="url(#linear-gradient)"/><path d="M17.89,12.62V19c0,.85-.54,1.38-1.23,1.25s-.88-.53-.88-1.26V12.71c-.17.1-.29.16-.4.24-.71.53-1.41,1.07-2.13,1.59A1,1,0,1,1,12,12.9q2.11-1.62,4.25-3.19a1,1,0,0,1,1.22,0c1.43,1,2.85,2,4.26,3a1,1,0,0,1,.25,1.45,1,1,0,0,1-1.46.25c-.71-.47-1.39-1-2.09-1.45Z" fill="#c3c3c3"/><path d="M10.44,22.31H23.23c0-.34,0-.68,0-1a1,1,0,1,1,2.07,0c0,.68,0,1.36,0,2a1,1,0,0,1-1.11,1.08H9.48a1,1,0,0,1-1.12-1.13c0-.66,0-1.32,0-2a1,1,0,1,1,2.07,0C10.45,21.62,10.44,21.93,10.44,22.31Z" fill="#c3c3c3"/></g></svg>