<svg id="Icons" xmlns="http://www.w3.org/2000/svg" xmlns:xlink="http://www.w3.org/1999/xlink" width="33.67" height="33.91" viewBox="0 0 33.67 33.91"><defs><linearGradient id="linear-gradient" x1="16.84" x2="16.84" y2="33.91" gradientUnits="userSpaceOnUse"><stop offset="0" stop-color="#1a1a1a"/><stop offset="1" stop-color="#333"/></linearGradient></defs><title>CodeChart_Web_Icons_</title><g id="Search_Content" data-name="Search Content"><ellipse cx="16.84" cy="16.96" rx="16.84" ry="16.96" fill="url(#linear-gradient)"/><path d="M4.62,16.41a1.67,1.67,0,0,0,1-.35,1.6,1.6,0,0,0,.53-.9,10.38,10.38,0,0,0,.14-2c0-.92,0-1.53,0-1.83a3.67,3.67,0,0,1,.27-1.12,2.27,2.27,0,0,1,.5-.68,2.17,2.17,0,0,1,.76-.38,4.22,4.22,0,0,1,1-.08H9.4v1.3H9.14A1.54,1.54,0,0,0,8,10.72a2.33,2.33,0,0,0-.28,1.39,24.34,24.34,0,0,1-.09,2.75,3.12,3.12,0,0,1-.51,1.37A2.94,2.94,0,0,1,6,17.09a2.52,2.52,0,0,1,1.31,1.17,5.8,5.8,0,0,1,.41,2.57c0,1.08,0,1.72,0,1.93a1.16,1.16,0,0,0,.33.79,1.74,1.74,0,0,0,1.05.22H9.4v1.31H8.93a3.69,3.69,0,0,1-1.17-.14,1.87,1.87,0,0,1-.87-.62,2.21,2.21,0,0,1-.45-1.08,15.21,15.21,0,0,1-.11-2.15A11.24,11.24,0,0,0,6.19,19a1.67,1.67,0,0,0-.53-.91,1.67,1.67,0,0,0-1-.35Z" fill="#c3c3c3"/><path d="M11.33,21.49v-1.7H13v1.7Z" fill="#c3c3c3"/><path d="M16,21.49v-1.7h1.69v1.7Z" fill="#c3c3c3"/><path d="M20.72,21.49v-1.7h1.69v1.7Z" fill="#c3c3c3"/><path d="M29,16.41v1.35A1.55,1.55,0,0,0,27.47,19a11.41,11.41,0,0,0-.14,2c0,.93,0,1.54,0,1.83A3.4,3.4,0,0,1,27,23.93a2.18,2.18,0,0,1-.5.67,1.88,1.88,0,0,1-.76.38,3.58,3.58,0,0,1-1,.1h-.47V23.77h.26a1.54,1.54,0,0,0,1.14-.31,2.27,2.27,0,0,0,.28-1.4c0-1.38,0-2.26.07-2.63A3.39,3.39,0,0,1,26.54,18a2.65,2.65,0,0,1,1.12-.86,2.78,2.78,0,0,1-1.33-1.21,5.94,5.94,0,0,1-.39-2.54c0-1.08,0-1.72,0-1.93a1.14,1.14,0,0,0-.33-.78,1.74,1.74,0,0,0-1.05-.22h-.26V9.11h.47a3.67,3.67,0,0,1,1.17.13,1.92,1.92,0,0,1,.87.61,2.29,2.29,0,0,1,.45,1.09,15.21,15.21,0,0,1,.11,2.15,12.24,12.24,0,0,0,.14,2.07,1.59,1.59,0,0,0,.54.9A1.62,1.62,0,0,0,29,16.41Z" fill="#c3c3c3"/></g></svg>