<svg id="Icons" xmlns="http://www.w3.org/2000/svg" xmlns:xlink="http://www.w3.org/1999/xlink" width="33.91" height="33.91" viewBox="0 0 33.91 33.91"><defs><linearGradient id="linear-gradient" x1="16.96" x2="16.96" y2="33.91" gradientUnits="userSpaceOnUse"><stop offset="0" stop-color="#1a1a1a"/><stop offset="1" stop-color="#333"/></linearGradient></defs><title>CodeChart_Web_Icons_</title><g id="Approve_Changes" data-name="Approve Changes"><circle cx="16.96" cy="16.96" r="16.96" fill="url(#linear-gradient)"/><path d="M27.11,11a1.44,1.44,0,0,0-2,0L13.14,20.84,9.45,16.37a1.43,1.43,0,0,0-2-.41,1.43,1.43,0,0,0,0,2l4.22,5.11a1.66,1.66,0,0,0,1.29.66h.09a.86.86,0,0,0,.23-.05,1.71,1.71,0,0,0,.8-.37L26.7,13A1.43,1.43,0,0,0,27.11,11Z" fill="#c3c3c3"/></g></svg>