<svg id="Icons" xmlns="http://www.w3.org/2000/svg" xmlns:xlink="http://www.w3.org/1999/xlink" width="33.67" height="33.91" viewBox="0 0 33.67 33.91"><defs><linearGradient id="linear-gradient" x1="16.84" x2="16.84" y2="33.91" gradientUnits="userSpaceOnUse"><stop offset="0" stop-color="#1a1a1a"/><stop offset="1" stop-color="#333"/></linearGradient></defs><title>CodeChart_Web_Icons_</title><g id="Export"><ellipse cx="16.84" cy="16.96" rx="16.84" ry="16.96" fill="url(#linear-gradient)"/><path d="M24.17,18H15.84c-.84,0-1.38-.54-1.25-1.23s.53-.88,1.26-.88h8.23c-.1-.17-.16-.29-.24-.4-.53-.71-1.07-1.41-1.59-2.13a1,1,0,1,1,1.64-1.29q1.62,2.12,3.19,4.25a1,1,0,0,1,0,1.23c-1,1.42-2,2.84-3,4.25a1,1,0,0,1-1.45.25,1,1,0,0,1-.25-1.46c.47-.71,1-1.39,1.45-2.09Z" fill="#c3c3c3"/><path d="M10.48,10.56V23.35c.35,0,9.68,0,10,0a1,1,0,1,1,0,2.07c-.68,0-10.36,0-11,0a1,1,0,0,1-1.07-1.11q0-7.37,0-14.72A1,1,0,0,1,9.5,8.48c.66,0,10.32,0,11,0a1,1,0,1,1,0,2.07Z" fill="#c3c3c3"/></g></svg>