<svg id="Icons" xmlns="http://www.w3.org/2000/svg" xmlns:xlink="http://www.w3.org/1999/xlink" width="33.67" height="33.91" viewBox="0 0 33.67 33.91"><defs><linearGradient id="linear-gradient" x1="16.84" x2="16.84" y2="33.91" gradientUnits="userSpaceOnUse"><stop offset="0" stop-color="#1a1a1a"/><stop offset="1" stop-color="#333"/></linearGradient></defs><title>CodeChart_Web_Icons_</title><g id="Add_Comment" data-name="Add Comment"><ellipse cx="16.84" cy="16.96" rx="16.84" ry="16.96" fill="url(#linear-gradient)"/><path d="M6.07,18.31c0-2.13,0-4.25,0-6.38,0-2.78,1.65-4.46,4.4-4.48q6.37,0,12.75,0a4.09,4.09,0,0,1,4.37,4.38q0,3.62,0,7.23a4,4,0,0,1-4.37,4.34c-3.8,0-7.6,0-11.4,0a2.77,2.77,0,0,0-2.37.95,12.1,12.1,0,0,1-1.69,1.59,5.77,5.77,0,0,1-1.24.55,4.47,4.47,0,0,1-.43-1.31C6,22.88,6.07,20.59,6.07,18.31ZM7.54,24a7.25,7.25,0,0,0,.91-.79,3.67,3.67,0,0,1,3.33-1.35c3.8.09,7.6,0,11.4,0,2,0,2.92-1,2.94-2.95,0-2.41,0-4.82,0-7.23a2.59,2.59,0,0,0-2.73-2.82q-6.55,0-13.11,0a2.55,2.55,0,0,0-2.73,2.69C7.52,15.66,7.54,19.71,7.54,24Z" fill="#c3c3c3"/><rect x="11.55" y="15.71" width="7.75" height="0.99" rx="0.5" fill="#c3c3c3"/><rect x="11.55" y="13.27" width="11.46" height="0.99" rx="0.5" fill="#c3c3c3"/></g></svg>