<svg id="Icons" xmlns="http://www.w3.org/2000/svg" xmlns:xlink="http://www.w3.org/1999/xlink" width="33.67" height="33.91" viewBox="0 0 33.67 33.91"><defs><linearGradient id="linear-gradient" x1="16.84" x2="16.84" y2="33.91" gradientUnits="userSpaceOnUse"><stop offset="0" stop-color="#1a1a1a"/><stop offset="1" stop-color="#333"/></linearGradient></defs><title>CodeChart_Web_Icons_</title><g id="Search_Folder" data-name="Search Folder"><ellipse cx="16.84" cy="16.96" rx="16.84" ry="16.96" fill="url(#linear-gradient)"/><path d="M26.4,12.85a1.37,1.37,0,0,0-.88-.56v-.76A1.43,1.43,0,0,0,24,10H14.5a.4.4,0,0,1-.41-.24c-.17-.27-.36-.55-.58-.84a1.12,1.12,0,0,0-.9-.47H8.41a1.38,1.38,0,0,0-1.32,1l0,.12L7,24.32v.08a1.57,1.57,0,0,0,1.68,1.11H23c1.17,0,1.57-.33,1.78-1.49.47-2.54.94-5.09,1.4-7.63l.46-2.47A1.36,1.36,0,0,0,26.4,12.85Zm-2.85,11a2.07,2.07,0,0,0,0,.22.46.46,0,0,1,0,.17s-.1,0-.46,0H8.4a.14.14,0,0,1-.1-.05.18.18,0,0,1,0-.12l1.9-10.36c0-.13,0-.16.24-.16H25.27a.12.12,0,0,1,.13.17L25,16.14Zm.72-11.53H10.47A1.38,1.38,0,0,0,9,13.38l-.06.26-.66,3.61V10c0-.29,0-.3.31-.3h3.84a.21.21,0,0,1,.2.1l.51.79a1.42,1.42,0,0,0,1.28.67h9.53c.33,0,.33,0,.33.33Z" fill="#c3c3c3"/></g></svg>