<svg id="Icons" xmlns="http://www.w3.org/2000/svg" xmlns:xlink="http://www.w3.org/1999/xlink" width="33.67" height="33.91" viewBox="0 0 33.67 33.91"><defs><linearGradient id="linear-gradient" x1="16.84" x2="16.84" y2="33.91" gradientUnits="userSpaceOnUse"><stop offset="0" stop-color="#1a1a1a"/><stop offset="1" stop-color="#333"/></linearGradient></defs><title>CodeChart_Web_Icons_</title><g id="Add_Task" data-name="Add Task"><ellipse cx="16.84" cy="16.96" rx="16.84" ry="16.96" fill="url(#linear-gradient)"/><path d="M17.25,4.72c.3.09.62.16.91.28a2.32,2.32,0,0,1,1.23,1.27.29.29,0,0,0,.32.21H21l.34,0c.35,0,.49.22.49.59v.85h.26c.77,0,1.53,0,2.29,0a2.43,2.43,0,0,1,2.06,2c0,.23,0,.46,0,.69,0,5.34,0,10.69,0,16A2.43,2.43,0,0,1,24,29.19H9.89a2.61,2.61,0,0,1-2-.81A2,2,0,0,1,7.31,27V10.49A2.44,2.44,0,0,1,9.2,8a2.66,2.66,0,0,1,.69-.08H11.7l.26,0V7.05c0-.36.16-.54.52-.56.54,0,1.08,0,1.62,0a.35.35,0,0,0,.25-.14,2.66,2.66,0,0,1,2-1.57s.05,0,.08,0Zm4.62,4.41v1.13c0,.67-.2.87-.87.87H12.62a.63.63,0,0,1-.66-.67V9.34c0-.08,0-.15,0-.23l-.1,0H9.92a1.33,1.33,0,0,0-1.45,1.46V26.89a1,1,0,0,0,.67,1A2.56,2.56,0,0,0,10,28h13.9l.36,0a1.14,1.14,0,0,0,1.15-1.28V10.39a1.26,1.26,0,0,0-1.18-1.27c-.75,0-1.5,0-2.25,0ZM20.68,7.64h-1.4c-.53,0-.69-.12-.85-.62a1.64,1.64,0,0,0-1.54-1.21A1.68,1.68,0,0,0,15.32,7c-.17.52-.32.63-.87.63h-1.3V10h7.53Z" fill="#c3c3c3"/><path d="M12.41,17H10.76a.58.58,0,0,1-.66-.66q0-1.47,0-2.94c0-.49.23-.71.72-.71H14c.51,0,.73.22.73.73v2.89c0,.5-.2.69-.7.69Zm1.15-3.13H11.29v1.95h2.27Z" fill="#c3c3c3"/><path d="M19.66,24.82H16.54a1.54,1.54,0,0,1-.43-.05.59.59,0,0,1-.35-.57.55.55,0,0,1,.43-.51,1.24,1.24,0,0,1,.33,0h6.32a1.14,1.14,0,0,1,.52.12.5.5,0,0,1,.24.56.53.53,0,0,1-.43.45,1.46,1.46,0,0,1-.36,0Z" fill="#c3c3c3"/><path d="M19.67,15.5H16.5a.69.69,0,0,1-.64-.26.56.56,0,0,1,.33-.87,1,1,0,0,1,.3,0h6.38a.69.69,0,0,1,.65.28.57.57,0,0,1-.38.87,1.94,1.94,0,0,1-.34,0Z" fill="#c3c3c3"/><path d="M19.69,19h3.22a.67.67,0,0,1,.58.23.56.56,0,0,1-.3.89.92.92,0,0,1-.29,0H16.45c-.44,0-.7-.24-.69-.61a.57.57,0,0,1,.58-.55c.37,0,.74,0,1.1,0Z" fill="#c3c3c3"/><path d="M12,19.48l1.7-1.62a2.39,2.39,0,0,1,.26-.21.57.57,0,0,1,.74.13.55.55,0,0,1,0,.72l-.16.17-2.05,1.94c-.4.38-.66.37-1,0l-1-1a1,1,0,0,1-.16-.2.59.59,0,0,1,.08-.75.55.55,0,0,1,.74,0C11.44,18.9,11.7,19.18,12,19.48Z" fill="#c3c3c3"/><path d="M12,24.14l1.79-1.69a.58.58,0,0,1,.73-.15.55.55,0,0,1,.14.92c-.74.73-1.5,1.44-2.27,2.15a.54.54,0,0,1-.84,0l-1.07-1.09A1.08,1.08,0,0,1,10.3,24a.59.59,0,0,1,.12-.71.54.54,0,0,1,.7,0c.21.18.4.39.6.58Z" fill="#c3c3c3"/></g></svg>