<svg id="Icons" xmlns="http://www.w3.org/2000/svg" width="34.17" height="34.41" viewBox="0 0 34.17 34.41"><title>CodeChart_Web_Icons_</title><g id="Show_Labels" data-name="Show Labels"><ellipse cx="17.09" cy="17.21" rx="16.84" ry="16.96" fill="#c3c3c3" stroke="#2d2d2d" stroke-miterlimit="10" stroke-width="0.5"/><path d="M19.62,17.85l1.19,2.06c.75,1.29,1.52,2.58,2.27,3.87.38.65.2,1-.55,1-1.68,0-3.36-.08-5-.14a.68.68,0,0,0-.73.43c-.73,1.41-1.48,2.82-2.26,4.21-.13.23-.39.52-.61.53a1,1,0,0,1-.65-.46c-2.88-4.89-5.73-9.79-8.61-14.67a.92.92,0,0,1,0-1c.77-1.35,1.56-2.7,2.24-4.09A9.3,9.3,0,0,1,9.07,7l2.5-2.35a.91.91,0,0,1,1-.23L29,8.74l.34.1c.68.21.79.62.28,1.11-1.18,1.1-2.35,2.22-3.56,3.3a.76.76,0,0,0-.24,1c.48,1.5.94,3,1.4,4.51.24.77-.06,1.08-.85.88l-6-1.58Zm2.05,5.68s0,0,0,0q-4-6.83-8-13.64a.81.81,0,0,0-.57-.29c-1.48-.07-3-.08-4.44-.15a.7.7,0,0,0-.76.47c-.67,1.27-1.35,2.53-2.06,3.78a.75.75,0,0,0,0,.86c1.54,2.57,3.05,5.15,4.57,7.72,1.14,1.94,2.28,3.87,3.47,5.87.75-1.37,1.48-2.67,2.17-4a1,1,0,0,1,1.12-.64C18.66,23.55,20.16,23.53,21.67,23.53Zm6.54-13.8c-.08-.07-.09-.09-.11-.09C23,8.27,17.85,6.89,12.71,5.54a.81.81,0,0,0-.64.2C11.23,6.48,10.42,7.26,9.6,8c-.1.1-.18.22-.27.32l0,.18c1.34,0,2.68,0,4,0a1.17,1.17,0,0,1,1.17.68c1.32,2.31,2.67,4.6,4,6.88a1.32,1.32,0,0,0,.66.5c1.11.33,2.24.61,3.36.91l3.31.88c-.47-1.54-.88-3-1.34-4.38a1,1,0,0,1,.31-1.14C26,11.83,27.1,10.78,28.21,9.73Z" fill="#2d2d2d"/><path d="M8.45,13.2a1.93,1.93,0,1,1,1.93,1.94A1.88,1.88,0,0,1,8.45,13.2Zm2.74,0a.85.85,0,0,0-.8-.8.8.8,0,1,0,0,1.6A.84.84,0,0,0,11.19,13.23Z" fill="#2d2d2d"/></g></svg>