<svg id="Icons" xmlns="http://www.w3.org/2000/svg" xmlns:xlink="http://www.w3.org/1999/xlink" width="33.91" height="33.91" viewBox="0 0 33.91 33.91"><defs><linearGradient id="linear-gradient" x1="16.96" x2="16.96" y2="33.91" gradientUnits="userSpaceOnUse"><stop offset="0" stop-color="#1a1a1a"/><stop offset="1" stop-color="#333"/></linearGradient></defs><title>CodeChart_Web_Icons_</title><g id="Smaller_Text" data-name="Smaller Text"><circle cx="16.96" cy="16.96" r="16.96" fill="url(#linear-gradient)"/><path d="M17.91,16.46H13.06a1,1,0,0,1-1.15-.93,1,1,0,0,1,1.15-.93h4.85a1.05,1.05,0,0,1,1.15.93A1.05,1.05,0,0,1,17.91,16.46Z" fill="#c3c3c3"/><path d="M26.25,24.86a1.64,1.64,0,0,0-.47-.9l-4-4a7.75,7.75,0,0,0,1.53-4.63,7.87,7.87,0,1,0-3.52,6.54l4,4A1.57,1.57,0,0,0,25,26.4a1.25,1.25,0,0,0,.92-.38A1.31,1.31,0,0,0,26.25,24.86ZM9.56,15.35a5.93,5.93,0,1,1,5.92,5.93A5.93,5.93,0,0,1,9.56,15.35Z" fill="#c3c3c3"/></g></svg>