<svg id="Icons" xmlns="http://www.w3.org/2000/svg" width="33.68" height="37.19" viewBox="0 0 33.68 37.19"><title>CodeChart_Web_Icons_</title><g id="CodeChart_Logo" data-name="CodeChart Logo"><path d="M26.08,27.27a4.21,4.21,0,0,1-3.14-1.11,4.12,4.12,0,0,1-1.09-3A4.44,4.44,0,0,1,22.91,20a4.12,4.12,0,0,1,3.15-1.12,7.74,7.74,0,0,1,1.33.1,6.11,6.11,0,0,1,1.1.3v1.49a6,6,0,0,0-2.3-.44,2.55,2.55,0,0,0-2,.69,3.22,3.22,0,0,0-.6,2.13c0,1.79.87,2.68,2.63,2.68a6.62,6.62,0,0,0,1.17-.11,5.69,5.69,0,0,0,1.11-.32v1.5a8.43,8.43,0,0,1-1.1.27A7.54,7.54,0,0,1,26.08,27.27Z" fill="#c3c3c3"/><path d="M17.93,27.27a5.91,5.91,0,0,1-4.42-1.56A5.79,5.79,0,0,1,12,21.47,6.26,6.26,0,0,1,13.47,17a5.82,5.82,0,0,1,4.44-1.58,10.46,10.46,0,0,1,1.86.15,9.38,9.38,0,0,1,1.56.42v2.1a8.53,8.53,0,0,0-3.24-.62,3.55,3.55,0,0,0-2.82,1,4.45,4.45,0,0,0-.85,3q0,3.77,3.7,3.77a9.23,9.23,0,0,0,1.66-.15,8.22,8.22,0,0,0,1.56-.45v2.11a11.34,11.34,0,0,1-1.55.38A11.74,11.74,0,0,1,17.93,27.27Z" fill="#c3c3c3"/><path d="M28.57,31.9a13.47,13.47,0,0,1-15.84.59,13.44,13.44,0,0,1,15-22.28h0a13.44,13.44,0,0,1,.81,21.69ZM12.72,11.77a12.19,12.19,0,1,0,5.21-2.38A12.13,12.13,0,0,0,12.72,11.77Z" fill="#c3c3c3"/><path d="M5.56,36.45c-.12.09-.24.18-.37.26a3.42,3.42,0,0,1-4.7-1.19,3.39,3.39,0,0,1-.38-2.6,3.42,3.42,0,0,1,4.16-2.48h0a3.42,3.42,0,0,1,1.29,6ZM2.08,32.06a2.15,2.15,0,0,0-.76,1.17A2.17,2.17,0,0,0,2.9,35.87,2.18,2.18,0,0,0,4,31.65H4A2.17,2.17,0,0,0,2.08,32.06Z" fill="#c3c3c3"/><rect x="5.08" y="29.93" width="5.31" height="1.11" transform="matrix(0.8, -0.6, 0.6, 0.8, -16.87, 10.89)" fill="#c3c3c3"/><path d="M8.26,6.12l-.32.23A3.43,3.43,0,0,1,4.33.52a3.42,3.42,0,0,1,4.72,1.1,3.42,3.42,0,0,1,.42,2.59A3.33,3.33,0,0,1,8.26,6.12ZM4.79,1.73A2.1,2.1,0,0,0,4,2.93a2.17,2.17,0,1,0,4.23,1h0A2.17,2.17,0,0,0,5,1.58,1.49,1.49,0,0,0,4.79,1.73Z" fill="#c3c3c3"/><rect x="9.52" y="4.81" width="1.11" height="7.25" transform="translate(-3.06 8.04) rotate(-38.19)" fill="#c3c3c3"/></g></svg>