<svg id="Icons" xmlns="http://www.w3.org/2000/svg" width="34.17" height="34.41" viewBox="0 0 34.17 34.41"><title>CodeChart_Web_Icons_</title><g id="Light_Theme" data-name="Light Theme"><ellipse cx="17.09" cy="17.21" rx="16.84" ry="16.96" fill="#c3c3c3" stroke="#2d2d2d" stroke-miterlimit="10" stroke-width="0.5"/><path d="M27.24,7.57H6.74a2.7,2.7,0,0,0-2.69,2.7V24.78a2.7,2.7,0,0,0,2.69,2.7h3v-1h-3a1.7,1.7,0,0,1-1.69-1.7V13.71H28.94V24.78a1.7,1.7,0,0,1-1.7,1.7v1a2.7,2.7,0,0,0,2.7-2.7V10.27A2.7,2.7,0,0,0,27.24,7.57ZM5.05,12.71V10.27a1.7,1.7,0,0,1,1.69-1.7h20.5a1.7,1.7,0,0,1,1.7,1.7v2.44Z" fill="#2d2d2d"/><circle cx="7.49" cy="10.54" r="0.87" fill="#2d2d2d"/><circle cx="10.94" cy="10.54" r="0.87" fill="#2d2d2d"/><circle cx="14.4" cy="10.54" r="0.87" fill="#2d2d2d"/><circle cx="18.4" cy="23.53" r="4.02" fill="#2d2d2d"/><polygon points="18.4 14.33 17.39 17.47 19.41 17.47 18.4 14.33" fill="#2d2d2d"/><polygon points="11.9 17.02 13.4 19.96 14.83 18.53 11.9 17.02" fill="#2d2d2d"/><polygon points="9.21 23.53 12.34 24.54 12.34 22.52 9.21 23.53" fill="#2d2d2d"/><polygon points="11.9 30.03 14.83 28.53 13.4 27.1 11.9 30.03" fill="#2d2d2d"/><polygon points="18.4 32.73 19.41 29.59 17.39 29.59 18.4 32.73" fill="#2d2d2d"/><polygon points="24.91 30.03 23.4 27.1 21.97 28.53 24.91 30.03" fill="#2d2d2d"/><polygon points="27.6 23.53 24.46 22.52 24.46 24.54 27.6 23.53" fill="#2d2d2d"/><polygon points="24.91 17.02 21.97 18.53 23.4 19.96 24.91 17.02" fill="#2d2d2d"/></g></svg>