<svg id="Icons" xmlns="http://www.w3.org/2000/svg" xmlns:xlink="http://www.w3.org/1999/xlink" width="33.67" height="33.91" viewBox="0 0 33.67 33.91"><defs><linearGradient id="linear-gradient" x1="16.84" x2="16.84" y2="33.91" gradientUnits="userSpaceOnUse"><stop offset="0" stop-color="#1a1a1a"/><stop offset="1" stop-color="#333"/></linearGradient></defs><title>CodeChart_Web_Icons_</title><g id="Add_File_Node" data-name="Add File Node"><ellipse cx="16.84" cy="16.96" rx="16.84" ry="16.96" fill="url(#linear-gradient)"/><rect x="11.11" y="20.82" width="7.75" height="0.99" rx="0.5" fill="#c3c3c3"/><rect x="11.11" y="18.38" width="11.46" height="0.99" rx="0.5" fill="#c3c3c3"/><rect x="11.11" y="16.15" width="11.46" height="0.99" rx="0.5" fill="#c3c3c3"/><path d="M20.31,5.47H11.15A3.6,3.6,0,0,0,7.57,9.08V24.83a3.6,3.6,0,0,0,3.58,3.61H22.52a3.6,3.6,0,0,0,3.58-3.61V12.63Zm.44,3.24,2.73,3.37H20.75Zm1.77,18H11.15a1.91,1.91,0,0,1-1.9-1.91V9.08a1.91,1.91,0,0,1,1.9-1.91h7.91v6.61h5.36v11A1.91,1.91,0,0,1,22.52,26.74Z" fill="#c3c3c3"/></g></svg>