<svg id="Icons" xmlns="http://www.w3.org/2000/svg" xmlns:xlink="http://www.w3.org/1999/xlink" width="33.91" height="33.91" viewBox="0 0 33.91 33.91"><defs><linearGradient id="linear-gradient" x1="16.96" x2="16.96" y2="33.91" gradientUnits="userSpaceOnUse"><stop offset="0" stop-color="#1a1a1a"/><stop offset="1" stop-color="#333"/></linearGradient></defs><title>CodeChart_Web_Icons_</title><g id="Fit_All" data-name="Fit All"><circle cx="16.96" cy="16.96" r="16.96" fill="url(#linear-gradient)"/><path d="M9.2,13.54c0,.83.29,1.5.64,1.5s.65-.67.65-1.5v-1c0-.83.47-1,1.06-.44l3.07,3.07c.58.58,1.22.89,1.42.69s-.11-.84-.69-1.42l-3.07-3.08c-.59-.58-.39-1.06.44-1.06h1c.83,0,1.5-.29,1.5-.64S14.53,9,13.7,9h-3a1.5,1.5,0,0,0-1.5,1.5Z" fill="#c3c3c3"/><path d="M24.62,20c0-.82-.29-1.5-.64-1.5s-.65.68-.65,1.5v1c0,.82-.47,1-1.06.44L19.2,18.31c-.58-.58-1.22-.9-1.42-.7s.11.85.69,1.43l3.07,3.07c.58.58.39,1.06-.44,1.06h-1c-.83,0-1.5.29-1.5.64s.67.65,1.5.65h3a1.51,1.51,0,0,0,1.5-1.5Z" fill="#c3c3c3"/><path d="M13.7,24.46c.83,0,1.5-.29,1.5-.65s-.67-.64-1.5-.64h-1c-.83,0-1-.48-.44-1.06L15.35,19c.58-.58.89-1.22.69-1.43s-.84.12-1.42.7l-3.07,3.07c-.59.58-1.06.38-1.06-.44V20c0-.82-.29-1.5-.65-1.5s-.64.68-.64,1.5v3a1.5,1.5,0,0,0,1.5,1.5Z" fill="#c3c3c3"/><path d="M20.12,9c-.83,0-1.5.29-1.5.64s.67.64,1.5.64h1c.83,0,1,.48.44,1.06l-3.07,3.08c-.58.58-.9,1.22-.69,1.42s.84-.11,1.42-.69l3.07-3.07c.59-.59,1.06-.39,1.06.44v1c0,.83.29,1.5.65,1.5s.64-.67.64-1.5v-3A1.5,1.5,0,0,0,23.12,9Z" fill="#c3c3c3"/></g></svg>