<svg id="Icons" xmlns="http://www.w3.org/2000/svg" xmlns:xlink="http://www.w3.org/1999/xlink" width="33.67" height="33.91" viewBox="0 0 33.67 33.91"><defs><linearGradient id="linear-gradient" x1="16.84" x2="16.84" y2="33.91" gradientUnits="userSpaceOnUse"><stop offset="0" stop-color="#1a1a1a"/><stop offset="1" stop-color="#333"/></linearGradient></defs><title>CodeChart_Web_Icons_</title><g id="Add_Code_Node" data-name="Add Code Node"><ellipse cx="16.84" cy="16.96" rx="16.84" ry="16.96" fill="url(#linear-gradient)"/><path d="M14.28,19.71,8.92,17.36v-1.3l5.36-2.34v1.53l-3.73,1.44,3.73,1.5Z" fill="#c3c3c3"/><path d="M14.78,20.74l1.94-8.14h1.12l-2,8.14Z" fill="#c3c3c3"/><path d="M18.34,19.71V18.19l3.74-1.48-3.74-1.47v-1.5l5.36,2.33v1.29Z" fill="#c3c3c3"/><path d="M16.31,28.82,6,22.89V11L16.31,5.1,26.58,11V22.89ZM7.54,22l8.77,5.06L25.08,22V11.89L16.31,6.83,7.54,11.89Z" fill="#c3c3c3"/></g></svg>