<svg id="Icons" xmlns="http://www.w3.org/2000/svg" xmlns:xlink="http://www.w3.org/1999/xlink" width="33.91" height="33.91" viewBox="0 0 33.91 33.91"><defs><linearGradient id="linear-gradient" x1="16.96" x2="16.96" y2="33.91" gradientUnits="userSpaceOnUse"><stop offset="0" stop-color="#1a1a1a"/><stop offset="1" stop-color="#333"/></linearGradient></defs><title>CodeChart_Web_Icons_</title><g id="Reload"><circle cx="16.96" cy="16.96" r="16.96" fill="url(#linear-gradient)"/><path d="M26.52,9.58a.7.7,0,0,0-.88.44l-1.13,3.27c-.07-.16-.15-.33-.24-.49a6.57,6.57,0,0,0-.76-1.13,7,7,0,0,0-1-1,8,8,0,0,0-1.15-.82,7.53,7.53,0,0,0-1.31-.63,8.52,8.52,0,0,0-1.44-.41,8.64,8.64,0,0,0-1.54-.17,9.86,9.86,0,0,0-1.55.09,8.51,8.51,0,0,0-1.45.34,8.4,8.4,0,0,0-1.34.56,8.19,8.19,0,0,0-1.2.77,6.94,6.94,0,0,0-1,.94,6.62,6.62,0,0,0-.82,1.09,7.21,7.21,0,0,0-.59,1.22A7.39,7.39,0,0,0,8.81,15a.65.65,0,0,0,0,.14.59.59,0,0,0,0,.14l.06.13a.44.44,0,0,0,.08.11.47.47,0,0,0,.1.1.41.41,0,0,0,.11.07l.14.05.14,0h.12l.12,0,.11-.05.1-.06.08-.08.07-.1,0-.11a.5.5,0,0,0,0-.12,5.79,5.79,0,0,1,.27-1.09,5.45,5.45,0,0,1,.49-1,6.64,6.64,0,0,1,.68-.9,6.22,6.22,0,0,1,.85-.77,6.47,6.47,0,0,1,1-.63,7.68,7.68,0,0,1,2.35-.74,7.9,7.9,0,0,1,1.3-.08,9.09,9.09,0,0,1,1.29.14,9.37,9.37,0,0,1,1.21.34,7.81,7.81,0,0,1,1.09.52,6.73,6.73,0,0,1,1,.68,6.2,6.2,0,0,1,.81.81,5.3,5.3,0,0,1,.64.93c.08.15.15.3.22.46l-3.24-1.12a.7.7,0,0,0-.89.43.69.69,0,0,0,.44.88l4.76,1.64a.73.73,0,0,0,.94-.45L27,10.47A.71.71,0,0,0,26.52,9.58Z" fill="#c3c3c3"/><path d="M25.08,18.64a.52.52,0,0,0-.06-.13L25,18.4a.94.94,0,0,0-.1-.1l-.12-.07-.14-.05-.14,0h-.12l-.12,0-.11.05-.09.06-.09.09-.07.09s0,.07,0,.11a.27.27,0,0,0,0,.12,5,5,0,0,1-.27,1.09,5.15,5.15,0,0,1-.49,1,5.91,5.91,0,0,1-.68.9,6.22,6.22,0,0,1-.85.77,6.47,6.47,0,0,1-1,.63,7.32,7.32,0,0,1-1.12.46,7.09,7.09,0,0,1-1.23.28,7.69,7.69,0,0,1-2.59-.06,7.57,7.57,0,0,1-1.2-.34,7.42,7.42,0,0,1-1.1-.52,6.73,6.73,0,0,1-1-.68,5.64,5.64,0,0,1-.81-.81,5.91,5.91,0,0,1-.64-.93c-.08-.15-.15-.3-.22-.46l3.24,1.12a.7.7,0,0,0,.89-.43.69.69,0,0,0-.44-.88L9.54,18.22a.74.74,0,0,0-.94.45L7,23.44a.7.7,0,1,0,1.32.45L9.4,20.62c.08.16.15.33.24.49a6.57,6.57,0,0,0,.76,1.13,7.56,7.56,0,0,0,1,1,7.75,7.75,0,0,0,1.15.82,7.89,7.89,0,0,0,1.31.63,7.68,7.68,0,0,0,1.44.41,8.64,8.64,0,0,0,1.54.17,8.94,8.94,0,0,0,3-.43,8.69,8.69,0,0,0,1.33-.56,7.44,7.44,0,0,0,1.2-.77,7.58,7.58,0,0,0,1-.94,7.16,7.16,0,0,0,.81-1.09,6.24,6.24,0,0,0,.59-1.22,6.64,6.64,0,0,0,.33-1.33.33.33,0,0,0,0-.14A.59.59,0,0,0,25.08,18.64Z" fill="#c3c3c3"/></g></svg>