<svg id="Icons" xmlns="http://www.w3.org/2000/svg" xmlns:xlink="http://www.w3.org/1999/xlink" width="33.67" height="33.91" viewBox="0 0 33.67 33.91"><defs><linearGradient id="linear-gradient" x1="16.84" x2="16.84" y2="33.91" gradientUnits="userSpaceOnUse"><stop offset="0" stop-color="#1a1a1a"/><stop offset="1" stop-color="#333"/></linearGradient></defs><title>CodeChart_Web_Icons_</title><g id="Replace_Node" data-name="Replace Node"><ellipse cx="16.84" cy="16.96" rx="16.84" ry="16.96" fill="url(#linear-gradient)"/><path d="M8,5.75a.57.57,0,0,0,0,.81l2,2H9.54a5.85,5.85,0,0,0-1.09.16,6.77,6.77,0,0,0-1.07.37,7.16,7.16,0,0,0-1,.56,6.47,6.47,0,0,0-.91.75,7.1,7.1,0,0,0-.81.91A7.67,7.67,0,0,0,4,12.35a8.17,8.17,0,0,0-.47,1.17,7.48,7.48,0,0,0-.26,1.19,6.7,6.7,0,0,0,0,1.18,6.12,6.12,0,0,0,.48,2.22,4.83,4.83,0,0,0,.52,1A5.2,5.2,0,0,0,4.9,20a5.9,5.9,0,0,0,.86.71l.11.05.11,0a.21.21,0,0,0,.11,0H6.2l.11,0,.09-.06.08-.09.07-.09,0-.1a.29.29,0,0,0,0-.09.17.17,0,0,0,0-.1.28.28,0,0,0,0-.09.46.46,0,0,0,0-.09.41.41,0,0,0,0-.09l-.06-.07s0-.05-.08-.06a5,5,0,0,1-.71-.58,4.72,4.72,0,0,1-.56-.71,5.25,5.25,0,0,1-.43-.81,6.69,6.69,0,0,1-.27-.9,6,6,0,0,1-.11-1,6.57,6.57,0,0,1,0-1,7.49,7.49,0,0,1,.22-1,8.07,8.07,0,0,1,.4-1,6.75,6.75,0,0,1,.55-.9,7.11,7.11,0,0,1,.67-.77A5.65,5.65,0,0,1,7,10.55a5,5,0,0,1,.83-.48,4.85,4.85,0,0,1,.88-.31,4.8,4.8,0,0,1,.91-.15H10l-2,2a.56.56,0,0,0,0,.8.57.57,0,0,0,.8,0l2.87-2.94a.6.6,0,0,0,0-.84L8.77,5.75A.58.58,0,0,0,8,5.75Z" fill="#c3c3c3"/><path d="M27.69,13.17h-.22l-.11,0-.09.07-.08.08a.36.36,0,0,0-.07.1l0,.09a.3.3,0,0,0,0,.1.14.14,0,0,0,0,.09.34.34,0,0,0,0,.1l0,.09.05.08.06.07.08.07a4.33,4.33,0,0,1,.71.57,4.72,4.72,0,0,1,.56.71,4.92,4.92,0,0,1,.43.82,6.14,6.14,0,0,1,.27.89,6,6,0,0,1,.11,1,6.57,6.57,0,0,1-.05,1,7.17,7.17,0,0,1-.22,1,7.47,7.47,0,0,1-.4,1,6.75,6.75,0,0,1-.55.9,6.27,6.27,0,0,1-.67.77,6.61,6.61,0,0,1-.77.63,5.21,5.21,0,0,1-.83.47,4.85,4.85,0,0,1-.88.31,4.67,4.67,0,0,1-.91.15h-.41l1.95-2a.57.57,0,1,0-.81-.79L22,24.45a.6.6,0,0,0,0,.84l2.94,2.87a.56.56,0,1,0,.79-.8l-2-2h.45a6,6,0,0,0,2.16-.53,7.16,7.16,0,0,0,1-.56,8.05,8.05,0,0,0,.92-.74,9,9,0,0,0,.8-.92,6.83,6.83,0,0,0,.66-1.07,7.73,7.73,0,0,0,.47-1.17,7.24,7.24,0,0,0,.26-1.19A6.7,6.7,0,0,0,30.46,18a6.13,6.13,0,0,0-.14-1.14A5.44,5.44,0,0,0,30,15.8a5.11,5.11,0,0,0-.52-1,5.2,5.2,0,0,0-.69-.86,5.9,5.9,0,0,0-.86-.71l-.11-.05Z" fill="#c3c3c3"/><polygon points="8.83 21.13 8.83 26.72 13.66 29.51 18.5 26.72 18.5 21.13 13.66 18.34 8.83 21.13" fill="none" stroke="#c3c3c3" stroke-miterlimit="10"/><polygon points="15.17 7.2 15.17 12.78 20.01 15.57 24.84 12.78 24.84 7.2 20.01 4.4 15.17 7.2" fill="none" stroke="#c3c3c3" stroke-miterlimit="10"/></g></svg>