<svg id="Icons" xmlns="http://www.w3.org/2000/svg" xmlns:xlink="http://www.w3.org/1999/xlink" width="33.67" height="33.91" viewBox="0 0 33.67 33.91"><defs><linearGradient id="linear-gradient" x1="16.84" x2="16.84" y2="33.91" gradientUnits="userSpaceOnUse"><stop offset="0" stop-color="#1a1a1a"/><stop offset="1" stop-color="#333"/></linearGradient></defs><title>CodeChart_Web_Icons_</title><g id="Create_Match" data-name="Create Match"><ellipse cx="16.84" cy="16.96" rx="16.84" ry="16.96" fill="url(#linear-gradient)"/><path d="M16.84,5.08,11.4,8.24l-1.53.89L6.62,11V22.89l10.22,5.94,10.21-5.94V11ZM25.51,22l-8.67,5.05L8.16,22V11.91l1.71-1v6c0,.76.25,1,1,1h5.68c-.29.25-.62.66-.88.93a.78.78,0,1,0,1.11,1.09q1.09-1.08,2.16-2.19a.78.78,0,0,0,0-1.18c-.72-.76-1.45-1.5-2.19-2.23a.78.78,0,0,0-1.14-.05.77.77,0,0,0,0,1.14c.26.28.55.54.91.89H11.41V10l5.43-3.16,8.67,5.05Z" fill="#c3c3c3"/></g></svg>