<svg id="Icons" xmlns="http://www.w3.org/2000/svg" xmlns:xlink="http://www.w3.org/1999/xlink" width="33.67" height="33.91" viewBox="0 0 33.67 33.91"><defs><linearGradient id="linear-gradient" x1="16.84" x2="16.84" y2="33.91" gradientUnits="userSpaceOnUse"><stop offset="0" stop-color="#1a1a1a"/><stop offset="1" stop-color="#333"/></linearGradient></defs><title>CodeChart_Web_Icons_</title><g id="Load_from_Cloud" data-name="Load from Cloud"><ellipse cx="16.84" cy="16.96" rx="16.84" ry="16.96" fill="url(#linear-gradient)"/><path d="M17.74,13.46a1,1,0,0,0-1,1v2.63a1,1,0,0,0,1.94,0V14.42A1,1,0,0,0,17.74,13.46Z" fill="#c3c3c3"/><path d="M13.65,15.63a1,1,0,0,0-1.37,0,1,1,0,0,0,0,1.36l1.85,1.86a1,1,0,0,0,.69.28.94.94,0,0,0,.68-.28h0a.92.92,0,0,0,.29-.68.94.94,0,0,0-.29-.69Z" fill="#c3c3c3"/><path d="M14.52,21a1,1,0,0,0-1-1H10.92a1,1,0,0,0,0,1.93h2.63A1,1,0,0,0,14.52,21Z" fill="#c3c3c3"/><path d="M15.36,23.27a1,1,0,0,0-.68-.28,1,1,0,0,0-.69.28l-1.86,1.86a1,1,0,0,0,0,1.37,1,1,0,0,0,.69.28.93.93,0,0,0,.68-.28l1.86-1.86a1,1,0,0,0,.28-.68,1,1,0,0,0-.28-.69Z" fill="#c3c3c3"/><path d="M17.54,24.26a1,1,0,0,0-1,1v2.63a1,1,0,1,0,1.93,0V25.22A1,1,0,0,0,17.54,24.26Z" fill="#c3c3c3"/><path d="M21.14,23.41a1,1,0,0,0-1.37,0h0a1,1,0,0,0,0,1.37l1.86,1.86a.94.94,0,0,0,.68.28,1,1,0,0,0,.69-.28,1,1,0,0,0,0-1.37Z" fill="#c3c3c3"/><path d="M24.35,20.27H21.72a1,1,0,0,0,0,1.94h2.63a1,1,0,0,0,0-1.94Z" fill="#c3c3c3"/><path d="M20.6,19.29a.92.92,0,0,0,.68-.29l1.86-1.85a1,1,0,0,0-1.37-1.37l-1.86,1.85a1,1,0,0,0-.28.69,1,1,0,0,0,1,1Z" fill="#c3c3c3"/><path d="M32.25,17.84a5.33,5.33,0,0,0-3.51-4.28c-.41-.16-.85-.24-1.28-.36a8.1,8.1,0,0,0-5.59-8.13c-4.4-1.27-7.61.39-9.89,4.2l-.08,0a4.2,4.2,0,0,0-6.53,3.07c0,.25-.16.33-.36.42a5.71,5.71,0,0,0-3.64,5.16,5.91,5.91,0,0,0,6,6.26H8.91a10,10,0,0,1-.41-1.24h-1A4.63,4.63,0,0,1,3,20.08a4.74,4.74,0,0,1,3.13-6.53l.4-.11A3.1,3.1,0,0,1,8.32,10c1.71-.77,3,0,4.18,1.34a7.23,7.23,0,0,1,3.72-4.73A6.65,6.65,0,0,1,20.4,6a6.88,6.88,0,0,1,5.46,4.63,7.15,7.15,0,0,1,.2,3.7c.56,0,1.08,0,1.58.13a4.27,4.27,0,0,1-.47,8.44h0a10.9,10.9,0,0,1-.41,1.26h.05A5.51,5.51,0,0,0,32.14,20c.06-.25.11-.5.17-.76V18A.94.94,0,0,1,32.25,17.84Z" fill="#c3c3c3"/></g></svg>