<svg id="Icons" xmlns="http://www.w3.org/2000/svg" xmlns:xlink="http://www.w3.org/1999/xlink" width="33.67" height="33.91" viewBox="0 0 33.67 33.91"><defs><linearGradient id="linear-gradient" x1="16.84" x2="16.84" y2="33.91" gradientUnits="userSpaceOnUse"><stop offset="0" stop-color="#1a1a1a"/><stop offset="1" stop-color="#333"/></linearGradient></defs><title>CodeChart_Web_Icons_</title><g id="Save_Download_to_Cloud" data-name="Save Download to Cloud"><ellipse cx="16.84" cy="16.96" rx="16.84" ry="16.96" fill="url(#linear-gradient)"/><path d="M16,11.53c.58-.58.87-1.26.63-1.49s-.91,0-1.49.62l-.56.56c-.59.59-1.06.39-1.06-.44v-3c0-.83-.23-1.5-.5-1.5s-.49.67-.49,1.5v3c0,.83-.48,1-1.06.44l-.56-.56c-.58-.58-1.25-.86-1.49-.62s0,.91.63,1.49L12,13.45a1.51,1.51,0,0,0,2.12,0Z" fill="#c3c3c3"/><path d="M23.54,10A4.48,4.48,0,0,0,22,9a7.23,7.23,0,0,0-.94-.26,6,6,0,0,0-4.12-6c-3.24-.94-5.61.29-7.29,3.09l-.06,0A3.1,3.1,0,0,0,4.76,8c0,.19-.12.25-.26.32a4.2,4.2,0,0,0-2.69,3.8,4.35,4.35,0,0,0,4.4,4.61q2.68,0,5.37,0v-.91H6.37A3.45,3.45,0,0,1,3,13.79,3.5,3.5,0,0,1,5.32,9l.3-.08A2.28,2.28,0,0,1,6.94,6.36c1.26-.56,2.24,0,3.08,1a5.33,5.33,0,0,1,2.74-3.49A5.08,5.08,0,0,1,19.87,6.8,5.27,5.27,0,0,1,20,9.53c.41,0,.79,0,1.16.09a3.13,3.13,0,0,1,2.26,1.84l.68-.68A4.12,4.12,0,0,0,23.54,10Z" fill="#c3c3c3"/><rect x="25.5" y="6" width="1.06" height="6.94" rx="0.53" transform="translate(14.32 -15.63) rotate(45)" fill="#c3c3c3"/><rect x="9.56" y="20.86" width="1.06" height="9.15" rx="0.53" transform="translate(20.94 0.32) rotate(45)" fill="#c3c3c3"/><rect x="22.01" y="15.32" width="1.84" height="4.65" rx="0.59" fill="#c3c3c3"/><path d="M28,16.84,26.6,15.49a.58.58,0,0,0-.41-.17h-.5v5.9a.59.59,0,0,1-.59.59H18a.59.59,0,0,1-.59-.59V15.89a.59.59,0,0,0-.58-.57H15.63a.59.59,0,0,0-.59.59v12a.58.58,0,0,0,.59.58H27.57a.58.58,0,0,0,.59-.58V17.26A.56.56,0,0,0,28,16.84Zm-2.23,10a.45.45,0,0,1-.45.45H17.91a.46.46,0,0,1-.46-.45v-.49a.46.46,0,0,1,.46-.45H25.3a.45.45,0,0,1,.45.45Zm0-2.37a.46.46,0,0,1-.45.46H17.91a.47.47,0,0,1-.46-.46V24a.46.46,0,0,1,.46-.45H25.3a.45.45,0,0,1,.45.45Z" fill="#c3c3c3"/></g></svg>