<svg id="Icons" xmlns="http://www.w3.org/2000/svg" xmlns:xlink="http://www.w3.org/1999/xlink" width="33.67" height="33.91" viewBox="0 0 33.67 33.91"><defs><linearGradient id="linear-gradient" x1="16.84" x2="16.84" y2="33.91" gradientUnits="userSpaceOnUse"><stop offset="0" stop-color="#1a1a1a"/><stop offset="1" stop-color="#333"/></linearGradient></defs><title>CodeChart_Web_Icons_</title><g id="Download"><ellipse cx="16.84" cy="16.96" rx="16.84" ry="16.96" fill="url(#linear-gradient)"/><path d="M15.78,17.09v-.68c0-2.55,0-3.09,0-5.64,0-.85.53-1.39,1.22-1.26s.88.53.88,1.26V17c.17-.1.29-.15.4-.23.71-.53,1.41-1.07,2.13-1.59a1,1,0,1,1,1.29,1.64Q19.6,18.43,17.46,20a1,1,0,0,1-1.22,0Q14.1,18.55,12,17a1,1,0,0,1-.24-1.45,1,1,0,0,1,1.45-.25c.71.46,1.4,1,2.09,1.44C15.42,16.87,15.56,17,15.78,17.09Z" fill="#c3c3c3"/><path d="M10.44,22.31H23.23c0-.34,0-.68,0-1a1,1,0,1,1,2.07,0c0,.68,0,1.36,0,2a1,1,0,0,1-1.11,1.08H9.48a1,1,0,0,1-1.12-1.13c0-.66,0-1.32,0-2a1,1,0,1,1,2.07,0C10.45,21.62,10.44,21.93,10.44,22.31Z" fill="#c3c3c3"/></g></svg>