<svg id="Icons" xmlns="http://www.w3.org/2000/svg" width="34.17" height="34.41" viewBox="0 0 34.17 34.41"><title>CodeChart_Web_Icons_</title><g id="Horizontal"><ellipse cx="17.09" cy="17.21" rx="16.84" ry="16.96" fill="#c3c3c3" stroke="#2d2d2d" stroke-miterlimit="10" stroke-width="0.5"/><path d="M27.34,27.16H6.84a2.7,2.7,0,0,1-2.7-2.7V10a2.7,2.7,0,0,1,2.7-2.7h20.5A2.71,2.71,0,0,1,30,10V24.46A2.71,2.71,0,0,1,27.34,27.16ZM6.84,8.25A1.7,1.7,0,0,0,5.14,10V24.46a1.7,1.7,0,0,0,1.7,1.7h20.5a1.7,1.7,0,0,0,1.7-1.7V10a1.71,1.71,0,0,0-1.7-1.7Z" fill="#2d2d2d"/><rect x="16.59" y="23.55" width="1" height="1.59" fill="#2d2d2d"/><rect x="16.59" y="18.79" width="1" height="1.59" fill="#2d2d2d"/><rect x="16.59" y="14.03" width="1" height="1.59" fill="#2d2d2d"/><rect x="16.59" y="9.27" width="1" height="1.59" fill="#2d2d2d"/><path d="M12.85,20.54c.22-.22.1-.71-.28-1.08l-2.25-2.25L12.57,15c.38-.38.5-.87.28-1.08s-.7-.1-1.08.28L9.4,16.52a1,1,0,0,0,0,1.37l2.37,2.36C12.15,20.63,12.63,20.76,12.85,20.54Z" fill="#2d2d2d"/><path d="M21.36,13.88c-.22.21-.09.7.28,1.08l2.25,2.25-2.25,2.25c-.37.37-.5.86-.28,1.08s.71.09,1.08-.29l2.37-2.36a1,1,0,0,0,0-1.37l-2.37-2.36C22.07,13.78,21.58,13.66,21.36,13.88Z" fill="#2d2d2d"/></g></svg>