<svg id="Icons" xmlns="http://www.w3.org/2000/svg" xmlns:xlink="http://www.w3.org/1999/xlink" width="33.91" height="33.91" viewBox="0 0 33.91 33.91"><defs><linearGradient id="linear-gradient" x1="16.96" x2="16.96" y2="33.91" gradientUnits="userSpaceOnUse"><stop offset="0" stop-color="#1a1a1a"/><stop offset="1" stop-color="#333"/></linearGradient></defs><title>CodeChart_Web_Icons_</title><g id="Clear"><circle cx="16.96" cy="16.96" r="16.96" fill="url(#linear-gradient)"/><path d="M25.05,18.27l-1.31-.57c-.16,2.47-4.32,8.63-4.64,8.83L17.52,26S18.8,23.07,19,22.29s.59-2.05.59-2.05-3.32,4.5-4.81,4.77L12,23.44a12.66,12.66,0,0,0,1.93-1.81,18.87,18.87,0,0,0,1-1.89s-3.58,2.57-4.66,2.51L8.18,20.17c3.56-.32,9-5.35,9-5.35l-1.29-.56c-1.21,1-4.61,4.26-8.73,4.3-3.78.05,1.33,4.51,2.54,5.33A25.08,25.08,0,0,0,14,26.24c2.1.9,4.66,2,6.37,1.54C20.4,27.78,24.46,21.24,25.05,18.27Z" fill="#c3c3c3"/><path d="M23.85,11.92l1.66-5.08a.89.89,0,0,0-.45-1.16.87.87,0,0,0-1.16.46l-2.53,4.7" fill="#c3c3c3"/><path d="M23.82,12.71l-3-1.31a3.59,3.59,0,0,0-4.58,2.12l9.16,4A3.59,3.59,0,0,0,23.82,12.71Zm.54,3.52-6.5-2.82a2.33,2.33,0,0,1,3.08-1.13l2.14.93A2.33,2.33,0,0,1,24.36,16.23Z" fill="#c3c3c3"/></g></svg>