<svg id="Icons" xmlns="http://www.w3.org/2000/svg" xmlns:xlink="http://www.w3.org/1999/xlink" width="33.67" height="33.91" viewBox="0 0 33.67 33.91"><defs><linearGradient id="linear-gradient" x1="16.84" x2="16.84" y2="33.91" gradientUnits="userSpaceOnUse"><stop offset="0" stop-color="#1a1a1a"/><stop offset="1" stop-color="#333"/></linearGradient></defs><title>CodeChart_Web_Icons_</title><g id="Link_Nodes" data-name="Link Nodes"><ellipse cx="16.84" cy="16.96" rx="16.84" ry="16.96" fill="url(#linear-gradient)"/><path d="M8.07,22c0-.25.1-.51.17-.75a3.9,3.9,0,0,1,1-1.66c1.43-1.43,2.85-2.86,4.28-4.28A3.84,3.84,0,0,1,18,14.54a5.34,5.34,0,0,1,1,.71.75.75,0,0,1,0,1.08.76.76,0,0,1-1.08.05,2.52,2.52,0,0,0-1.28-.67,2.28,2.28,0,0,0-1.92.54l-.15.13c-1.44,1.44-2.89,2.88-4.32,4.33a2.32,2.32,0,0,0,3.15,3.4c.76-.72,1.49-1.48,2.24-2.23a.77.77,0,0,1,1.21,1l-.08.1-2.21,2.2a3.79,3.79,0,0,1-2.25,1.08l-.08,0h-.72l-.18,0A3.81,3.81,0,0,1,8.3,23.69a7.89,7.89,0,0,1-.23-1Z" fill="#c3c3c3"/><path d="M17.83,20.22a3.74,3.74,0,0,1-2.58-1.11.76.76,0,0,1,0-1.09A.75.75,0,0,1,16.28,18a2.39,2.39,0,0,0,1.81.7,2.25,2.25,0,0,0,1.4-.57c.24-.22.46-.45.69-.68l4.19-4.19a2.32,2.32,0,0,0-3.13-3.42c-.72.67-1.4,1.38-2.09,2.07l-.61.61a.79.79,0,0,1-1.13,0,.77.77,0,0,1,0-1.12c.86-.87,1.71-1.74,2.59-2.59a3.86,3.86,0,0,1,5.9,4.95,5.37,5.37,0,0,1-.49.58L20.77,19A4,4,0,0,1,17.83,20.22Z" fill="#c3c3c3"/></g></svg>