<svg id="Icons" xmlns="http://www.w3.org/2000/svg" xmlns:xlink="http://www.w3.org/1999/xlink" width="33.67" height="33.91" viewBox="0 0 33.67 33.91"><defs><linearGradient id="linear-gradient" x1="16.84" x2="16.84" y2="33.91" gradientUnits="userSpaceOnUse"><stop offset="0" stop-color="#1a1a1a"/><stop offset="1" stop-color="#333"/></linearGradient></defs><title>CodeChart_Web_Icons_</title><g id="Import"><ellipse cx="16.84" cy="16.96" rx="16.84" ry="16.96" fill="url(#linear-gradient)"/><path d="M16,18H7.65c-.85,0-1.39-.54-1.26-1.23s.53-.88,1.26-.88h8.23c-.1-.17-.15-.29-.23-.4-.53-.71-1.07-1.41-1.59-2.13a1,1,0,1,1,1.64-1.29q1.61,2.12,3.19,4.25a1,1,0,0,1,0,1.23q-1.47,2.13-3,4.25a1,1,0,0,1-1.46.25,1,1,0,0,1-.24-1.46c.46-.71,1-1.39,1.44-2.09C15.75,18.37,15.83,18.23,16,18Z" fill="#c3c3c3"/><path d="M23.19,23.35V10.57h-10a1,1,0,1,1,0-2.07c.68,0,10.36,0,11,0a1,1,0,0,1,1.07,1.11q0,7.36,0,14.72a1,1,0,0,1-1.12,1.12c-.66,0-10.32,0-11,0a1,1,0,1,1,0-2.08C13.49,23.34,22.81,23.35,23.19,23.35Z" fill="#c3c3c3"/></g></svg>