<svg id="Icons" xmlns="http://www.w3.org/2000/svg" width="16.03" height="16.03" viewBox="0 0 16.03 16.03"><title>CodeChart_Web_Icons_</title><g id="menu_arrow" data-name="menu arrow"><circle cx="8.02" cy="8.02" r="7.64" fill="#2d2d2d" stroke="#c3c3c3" stroke-miterlimit="10" stroke-width="0.75"/><path d="M11.78,8.12c-.25-.25-.8-.11-1.22.31L8,11,5.48,8.43c-.43-.42-1-.56-1.22-.31s-.11.79.32,1.22L7.25,12a1.1,1.1,0,0,0,1.54,0l2.67-2.67C11.88,8.91,12,8.36,11.78,8.12Z" fill="#c3c3c3"/><path d="M11.78,3.83c-.25-.25-.8-.1-1.22.32L8,6.69,5.48,4.15c-.43-.42-1-.57-1.22-.32s-.11.8.32,1.22L7.25,7.72a1.08,1.08,0,0,0,1.54,0l2.67-2.67C11.88,4.63,12,4.08,11.78,3.83Z" fill="#c3c3c3"/></g></svg>