<?xml version="1.0" encoding="utf-8"?>
<!-- Generator: Adobe Illustrator 24.0.1, SVG Export Plug-In . SVG Version: 6.00 Build 0)  -->
<svg version="1.1" id="Light_Theme_Icons" xmlns="http://www.w3.org/2000/svg" xmlns:xlink="http://www.w3.org/1999/xlink" x="0px"
	 y="0px" viewBox="0 0 33.67 33.91" style="enable-background:new 0 0 33.67 33.91;" xml:space="preserve">
<style type="text/css">
	.st0{fill:url(#SVGID_1_);}
	.st1{fill:#5B5B5B;}
	.st2{fill:url(#SVGID_2_);}
	.st3{fill:url(#SVGID_3_);}
	.st4{fill:url(#SVGID_4_);}
	.st5{display:none;fill:#5B5B5B;}
	.st6{fill:url(#SVGID_5_);}
	.st7{fill:url(#SVGID_6_);}
	.st8{fill:#4F4F4F;}
	.st9{fill:url(#SVGID_7_);}
	.st10{fill:url(#SVGID_8_);}
	.st11{fill:url(#SVGID_9_);}
	.st12{fill:url(#SVGID_10_);}
	.st13{fill:url(#SVGID_11_);}
	.st14{fill:none;stroke:#4F4F4F;stroke-miterlimit:10;}
	.st15{fill:url(#SVGID_12_);}
	.st16{fill:url(#SVGID_13_);}
	.st17{fill:url(#SVGID_14_);}
	.st18{fill:url(#SVGID_15_);}
	.st19{fill:#2D2D2D;}
	.st20{fill:url(#SVGID_16_);}
	.st21{fill:url(#SVGID_17_);}
	.st22{fill:url(#SVGID_18_);}
	.st23{fill:url(#SVGID_19_);}
	.st24{fill:#EDEDED;}
	.st25{fill:url(#SVGID_20_);}
	.st26{fill:url(#SVGID_21_);}
	.st27{fill:url(#SVGID_22_);}
	.st28{fill:url(#SVGID_23_);}
	.st29{fill:url(#SVGID_24_);}
	.st30{fill:url(#SVGID_25_);}
	.st31{fill:url(#SVGID_26_);}
	.st32{fill:url(#SVGID_27_);}
	.st33{fill:url(#SVGID_28_);}
	.st34{fill:url(#SVGID_29_);}
	.st35{fill:url(#SVGID_30_);}
	.st36{fill:#C4C4C4;}
	.st37{fill:url(#SVGID_31_);}
	.st38{fill:url(#SVGID_32_);}
	.st39{fill:url(#SVGID_33_);}
	.st40{fill:url(#SVGID_34_);}
	.st41{fill:url(#SVGID_35_);}
	.st42{fill:url(#SVGID_36_);}
	.st43{fill:url(#SVGID_37_);}
	.st44{fill:#C3C3C3;stroke:#4F4F4F;stroke-width:0.75;stroke-miterlimit:10;}
</style>
<g id="Show_Lines_1_">
	<g>
		<linearGradient id="SVGID_1_" gradientUnits="userSpaceOnUse" x1="0" y1="16.9558" x2="33.6704" y2="16.9558">
			<stop  offset="0" style="stop-color:#D6D6D6"/>
			<stop  offset="1" style="stop-color:#C4C4C4"/>
		</linearGradient>
		<ellipse class="st0" cx="16.84" cy="16.96" rx="16.84" ry="16.96"/>
	</g>
	<path class="st1" d="M27.21,18.93c-0.58-0.13-1.17-0.09-1.72,0.09l-4.87-6.84h4.11c1.63,0,2.95-1.33,2.95-2.95V7.97
		c0-1.63-1.33-2.95-2.95-2.95H8.94c-1.63,0-2.95,1.33-2.95,2.95v1.26c0,1.63,1.33,2.95,2.95,2.95h4.11l-4.87,6.84
		c-0.55-0.18-1.14-0.22-1.72-0.09c-1.78,0.4-2.91,2.17-2.52,3.95c0.19,0.86,0.71,1.6,1.45,2.08c0.54,0.34,1.15,0.52,1.78,0.52
		c0.24,0,0.48-0.03,0.72-0.08c1.78-0.4,2.91-2.17,2.52-3.95c-0.1-0.47-0.31-0.9-0.59-1.27l5.69-7.99h0.34v11.95
		c-1.34,0.43-2.31,1.67-2.31,3.14c0,1.83,1.49,3.31,3.31,3.31s3.31-1.49,3.31-3.31c0-1.48-0.98-2.71-2.31-3.14V12.19h0.34l5.69,7.99
		c-0.28,0.37-0.49,0.8-0.59,1.27C22.87,23.23,24,25,25.78,25.4c0.24,0.05,0.48,0.08,0.71,0.08c1.52,0,2.89-1.05,3.23-2.6v0
		C30.13,21.1,29,19.33,27.21,18.93z M7.67,24.42c-0.61,0.13-1.22,0.02-1.74-0.31c-0.52-0.33-0.88-0.85-1.01-1.45v0
		c-0.28-1.24,0.51-2.48,1.76-2.76c0.17-0.04,0.34-0.06,0.5-0.06c0.44,0,0.86,0.12,1.24,0.36c0.52,0.33,0.88,0.85,1.01,1.45
		C9.7,22.91,8.91,24.15,7.67,24.42z M19.15,27.27c0,1.28-1.04,2.31-2.31,2.31s-2.31-1.04-2.31-2.31s1.04-2.31,2.31-2.31
		S19.15,26,19.15,27.27z M17.84,11.19h-0.13h-1.75h-0.13h-2.08H8.94c-1.08,0-1.95-0.88-1.95-1.95V7.97c0-1.08,0.88-1.95,1.95-1.95
		h15.8c1.08,0,1.95,0.88,1.95,1.95v1.26c0,1.08-0.88,1.95-1.95,1.95h-4.82H17.84z M28.76,22.66c-0.27,1.25-1.51,2.04-2.76,1.76
		c-1.25-0.28-2.03-1.51-1.76-2.76c0.13-0.6,0.49-1.12,1.01-1.45c0.38-0.24,0.8-0.36,1.24-0.36c0.17,0,0.34,0.02,0.5,0.06
		C28.24,20.18,29.03,21.42,28.76,22.66z"/>
</g>
</svg>
