<?xml version="1.0" encoding="utf-8"?>
<!-- Generator: Adobe Illustrator 24.0.1, SVG Export Plug-In . SVG Version: 6.00 Build 0)  -->
<svg version="1.1" id="Light_Theme_Icons" xmlns="http://www.w3.org/2000/svg" xmlns:xlink="http://www.w3.org/1999/xlink" x="0px"
	 y="0px" viewBox="0 0 18.76 18.76" style="enable-background:new 0 0 18.76 18.76;" xml:space="preserve">
<style type="text/css">
	.st0{fill:url(#SVGID_1_);}
	.st1{fill:#5B5B5B;}
	.st2{fill:url(#SVGID_2_);}
	.st3{fill:url(#SVGID_3_);}
	.st4{fill:url(#SVGID_4_);}
	.st5{display:none;fill:#5B5B5B;}
	.st6{fill:url(#SVGID_5_);}
	.st7{fill:url(#SVGID_6_);}
	.st8{fill:#4F4F4F;}
	.st9{fill:url(#SVGID_7_);}
	.st10{fill:url(#SVGID_8_);}
	.st11{fill:url(#SVGID_9_);}
	.st12{fill:url(#SVGID_10_);}
	.st13{fill:url(#SVGID_11_);}
	.st14{fill:none;stroke:#4F4F4F;stroke-miterlimit:10;}
	.st15{fill:url(#SVGID_12_);}
	.st16{fill:url(#SVGID_13_);}
	.st17{fill:url(#SVGID_14_);}
	.st18{fill:url(#SVGID_15_);}
	.st19{fill:#2D2D2D;}
	.st20{fill:url(#SVGID_16_);}
	.st21{fill:url(#SVGID_17_);}
	.st22{fill:url(#SVGID_18_);}
	.st23{fill:url(#SVGID_19_);}
	.st24{fill:#EDEDED;}
	.st25{fill:url(#SVGID_20_);}
	.st26{fill:url(#SVGID_21_);}
	.st27{fill:url(#SVGID_22_);}
	.st28{fill:url(#SVGID_23_);}
	.st29{fill:url(#SVGID_24_);}
	.st30{fill:url(#SVGID_25_);}
	.st31{fill:url(#SVGID_26_);}
	.st32{fill:url(#SVGID_27_);}
	.st33{fill:url(#SVGID_28_);}
	.st34{fill:url(#SVGID_29_);}
	.st35{fill:url(#SVGID_30_);}
	.st36{fill:#C4C4C4;}
	.st37{fill:url(#SVGID_31_);}
	.st38{fill:url(#SVGID_32_);}
	.st39{fill:url(#SVGID_33_);}
	.st40{fill:url(#SVGID_34_);}
	.st41{fill:url(#SVGID_35_);}
	.st42{fill:url(#SVGID_36_);}
	.st43{fill:url(#SVGID_37_);}
	.st44{fill:#C3C3C3;stroke:#4F4F4F;stroke-width:0.75;stroke-miterlimit:10;}
</style>
<g>
	<g>
		<g>
			<path class="st36" d="M12.95,0c-0.82,0-1.5,0.35-1.5,0.78s0.68,0.78,1.5,0.78h1.85c0.82,0,1.02,0.48,0.44,1.06l-4.19,4.19
				c-0.58,0.58-0.86,1.26-0.62,1.51c0.24,0.24,0.92-0.03,1.51-0.62l4.19-4.19c0.58-0.58,1.06-0.39,1.06,0.44V5.8
				c0,0.82,0.35,1.5,0.78,1.5s0.78-0.68,0.78-1.5V1.5c0-0.82-0.67-1.5-1.5-1.5H12.95z"/>
		</g>
		<g>
			<path class="st36" d="M5.8,18.76c0.82,0,1.5-0.35,1.5-0.78s-0.68-0.78-1.5-0.78H3.96c-0.83,0-1.02-0.48-0.44-1.06l4.19-4.19
				c0.58-0.58,0.86-1.26,0.62-1.51s-0.92,0.03-1.51,0.62l-4.19,4.19c-0.58,0.58-1.06,0.39-1.06-0.44v-1.85c0-0.82-0.35-1.5-0.78-1.5
				S0,12.13,0,12.95v4.3c0,0.83,0.68,1.5,1.5,1.5H5.8z"/>
		</g>
	</g>
</g>
</svg>
