<?xml version="1.0" encoding="utf-8"?>
<!-- Generator: Adobe Illustrator 24.0.1, SVG Export Plug-In . SVG Version: 6.00 Build 0)  -->
<svg version="1.1" id="Light_Theme_Icons" xmlns="http://www.w3.org/2000/svg" xmlns:xlink="http://www.w3.org/1999/xlink" x="0px"
	 y="0px" viewBox="0 0 33.67 33.91" style="enable-background:new 0 0 33.67 33.91;" xml:space="preserve">
<style type="text/css">
	.st0{fill:url(#SVGID_1_);}
	.st1{fill:#5B5B5B;}
	.st2{fill:url(#SVGID_2_);}
	.st3{fill:url(#SVGID_3_);}
	.st4{fill:url(#SVGID_4_);}
	.st5{display:none;fill:#5B5B5B;}
	.st6{fill:url(#SVGID_5_);}
	.st7{fill:url(#SVGID_6_);}
	.st8{fill:#4F4F4F;}
	.st9{fill:url(#SVGID_7_);}
	.st10{fill:url(#SVGID_8_);}
	.st11{fill:url(#SVGID_9_);}
	.st12{fill:url(#SVGID_10_);}
	.st13{fill:url(#SVGID_11_);}
	.st14{fill:none;stroke:#4F4F4F;stroke-miterlimit:10;}
	.st15{fill:url(#SVGID_12_);}
	.st16{fill:url(#SVGID_13_);}
	.st17{fill:url(#SVGID_14_);}
	.st18{fill:url(#SVGID_15_);}
	.st19{fill:#2D2D2D;}
	.st20{fill:url(#SVGID_16_);}
	.st21{fill:url(#SVGID_17_);}
	.st22{fill:url(#SVGID_18_);}
	.st23{fill:url(#SVGID_19_);}
	.st24{fill:#EDEDED;}
	.st25{fill:url(#SVGID_20_);}
	.st26{fill:url(#SVGID_21_);}
	.st27{fill:url(#SVGID_22_);}
	.st28{fill:url(#SVGID_23_);}
	.st29{fill:url(#SVGID_24_);}
	.st30{fill:url(#SVGID_25_);}
	.st31{fill:url(#SVGID_26_);}
	.st32{fill:url(#SVGID_27_);}
	.st33{fill:url(#SVGID_28_);}
	.st34{fill:url(#SVGID_29_);}
	.st35{fill:url(#SVGID_30_);}
	.st36{fill:#C4C4C4;}
	.st37{fill:url(#SVGID_31_);}
	.st38{fill:url(#SVGID_32_);}
	.st39{fill:url(#SVGID_33_);}
	.st40{fill:url(#SVGID_34_);}
	.st41{fill:url(#SVGID_35_);}
	.st42{fill:url(#SVGID_36_);}
	.st43{fill:url(#SVGID_37_);}
	.st44{fill:#C3C3C3;stroke:#4F4F4F;stroke-width:0.75;stroke-miterlimit:10;}
</style>
<g id="Export_1_">
	<linearGradient id="SVGID_1_" gradientUnits="userSpaceOnUse" x1="16.8352" y1="0" x2="16.8352" y2="33.9116">
		<stop  offset="0" style="stop-color:#D6D6D6"/>
		<stop  offset="1" style="stop-color:#C4C4C4"/>
	</linearGradient>
	<ellipse class="st0" cx="16.84" cy="16.96" rx="16.84" ry="16.96"/>
	<g>
		<g>
			<path class="st1" d="M24.17,18.01c-0.29,0-0.49,0-0.69,0c-2.55,0-5.09,0-7.64,0c-0.85,0-1.39-0.53-1.26-1.22
				c0.11-0.57,0.53-0.88,1.26-0.88c2.45,0,4.9,0,7.35,0c0.26,0,0.53,0,0.88,0c-0.1-0.17-0.16-0.29-0.24-0.4
				c-0.53-0.71-1.07-1.41-1.59-2.13c-0.39-0.53-0.3-1.14,0.18-1.5c0.45-0.34,1.08-0.28,1.46,0.21c1.08,1.41,2.14,2.83,3.19,4.25
				c0.28,0.39,0.29,0.83,0.02,1.22c-0.99,1.43-1.98,2.84-3,4.25c-0.36,0.5-0.98,0.58-1.45,0.25c-0.46-0.33-0.59-0.93-0.25-1.46
				c0.46-0.71,0.96-1.4,1.45-2.09C23.94,18.37,24.03,18.23,24.17,18.01z"/>
			<path class="st1" d="M10.48,10.56c0,4.29,0,8.49,0,12.78c0.34,0,9.68-0.01,10.01,0c0.66,0.02,1.1,0.44,1.11,1.04
				c0,0.59-0.44,1.02-1.1,1.04c-0.68,0.02-10.36,0.02-11.04,0.01c-0.69-0.01-1.08-0.41-1.08-1.11c0-4.91,0-9.81,0-14.72
				c0-0.73,0.4-1.11,1.13-1.12c0.66-0.01,10.32-0.01,10.98,0.01c0.67,0.02,1.11,0.44,1.11,1.03c0,0.6-0.44,1.02-1.1,1.04
				C20.18,10.57,10.86,10.56,10.48,10.56z"/>
		</g>
	</g>
</g>
</svg>
