<?xml version="1.0" encoding="utf-8"?>
<!-- Generator: Adobe Illustrator 24.0.1, SVG Export Plug-In . SVG Version: 6.00 Build 0)  -->
<svg version="1.1" id="Light_Theme_Icons" xmlns="http://www.w3.org/2000/svg" xmlns:xlink="http://www.w3.org/1999/xlink" x="0px"
	 y="0px" viewBox="0 0 33.67 33.91" style="enable-background:new 0 0 33.67 33.91;" xml:space="preserve">
<style type="text/css">
	.st0{fill:url(#SVGID_1_);}
	.st1{fill:#5B5B5B;}
	.st2{fill:url(#SVGID_2_);}
	.st3{fill:url(#SVGID_3_);}
	.st4{fill:url(#SVGID_4_);}
	.st5{display:none;fill:#5B5B5B;}
	.st6{fill:url(#SVGID_5_);}
	.st7{fill:url(#SVGID_6_);}
	.st8{fill:#4F4F4F;}
	.st9{fill:url(#SVGID_7_);}
	.st10{fill:url(#SVGID_8_);}
	.st11{fill:url(#SVGID_9_);}
	.st12{fill:url(#SVGID_10_);}
	.st13{fill:url(#SVGID_11_);}
	.st14{fill:none;stroke:#4F4F4F;stroke-miterlimit:10;}
	.st15{fill:url(#SVGID_12_);}
	.st16{fill:url(#SVGID_13_);}
	.st17{fill:url(#SVGID_14_);}
	.st18{fill:url(#SVGID_15_);}
	.st19{fill:#2D2D2D;}
	.st20{fill:url(#SVGID_16_);}
	.st21{fill:url(#SVGID_17_);}
	.st22{fill:url(#SVGID_18_);}
	.st23{fill:url(#SVGID_19_);}
	.st24{fill:#EDEDED;}
	.st25{fill:url(#SVGID_20_);}
	.st26{fill:url(#SVGID_21_);}
	.st27{fill:url(#SVGID_22_);}
	.st28{fill:url(#SVGID_23_);}
	.st29{fill:url(#SVGID_24_);}
	.st30{fill:url(#SVGID_25_);}
	.st31{fill:url(#SVGID_26_);}
	.st32{fill:url(#SVGID_27_);}
	.st33{fill:url(#SVGID_28_);}
	.st34{fill:url(#SVGID_29_);}
	.st35{fill:url(#SVGID_30_);}
	.st36{fill:#C4C4C4;}
	.st37{fill:url(#SVGID_31_);}
	.st38{fill:url(#SVGID_32_);}
	.st39{fill:url(#SVGID_33_);}
	.st40{fill:url(#SVGID_34_);}
	.st41{fill:url(#SVGID_35_);}
	.st42{fill:url(#SVGID_36_);}
	.st43{fill:url(#SVGID_37_);}
	.st44{fill:#C3C3C3;stroke:#4F4F4F;stroke-width:0.75;stroke-miterlimit:10;}
</style>
<g id="Light_Theme_1_">
	<linearGradient id="SVGID_1_" gradientUnits="userSpaceOnUse" x1="0" y1="16.9558" x2="33.6704" y2="16.9558">
		<stop  offset="0" style="stop-color:#D6D6D6"/>
		<stop  offset="1" style="stop-color:#C4C4C4"/>
	</linearGradient>
	<ellipse class="st0" cx="16.84" cy="16.96" rx="16.84" ry="16.96"/>
	<g>
		<path class="st1" d="M26.99,7.32H6.49c-1.49,0-2.7,1.21-2.7,2.7v14.51c0,1.49,1.21,2.7,2.7,2.7h2.98v-1H6.49
			c-0.94,0-1.7-0.76-1.7-1.7V13.46h23.9v11.07c0,0.94-0.76,1.7-1.7,1.7v1c1.49,0,2.7-1.21,2.7-2.7V10.02
			C29.69,8.53,28.48,7.32,26.99,7.32z M4.8,12.46v-2.44c0-0.94,0.76-1.7,1.7-1.7h20.5c0.94,0,1.7,0.76,1.7,1.7v2.44H4.8z"/>
		<circle class="st1" cx="7.24" cy="10.29" r="0.87"/>
		<circle class="st1" cx="10.69" cy="10.29" r="0.87"/>
		<circle class="st1" cx="14.15" cy="10.29" r="0.87"/>
		<circle class="st1" cx="18.15" cy="23.28" r="4.02"/>
		<polygon class="st1" points="18.15,14.08 17.14,17.22 19.17,17.22 		"/>
		<polygon class="st1" points="11.65,16.77 13.15,19.71 14.58,18.28 		"/>
		<polygon class="st1" points="8.96,23.28 12.09,24.29 12.09,22.27 		"/>
		<polygon class="st1" points="11.65,29.78 14.58,28.28 13.15,26.85 		"/>
		<polygon class="st1" points="18.15,32.48 19.17,29.34 17.14,29.34 		"/>
		<polygon class="st1" points="24.66,29.78 23.15,26.85 21.72,28.28 		"/>
		<polygon class="st1" points="27.35,23.28 24.21,22.27 24.21,24.29 		"/>
		<polygon class="st1" points="24.66,16.77 21.72,18.28 23.15,19.71 		"/>
	</g>
</g>
</svg>
