<?xml version="1.0" encoding="utf-8"?>
<!-- Generator: Adobe Illustrator 24.0.1, SVG Export Plug-In . SVG Version: 6.00 Build 0)  -->
<svg version="1.1" id="Light_Theme_Icons" xmlns="http://www.w3.org/2000/svg" xmlns:xlink="http://www.w3.org/1999/xlink" x="0px"
	 y="0px" viewBox="0 0 33.67 33.91" style="enable-background:new 0 0 33.67 33.91;" xml:space="preserve">
<style type="text/css">
	.st0{fill:url(#SVGID_1_);}
	.st1{fill:#5B5B5B;}
	.st2{fill:url(#SVGID_2_);}
	.st3{fill:url(#SVGID_3_);}
	.st4{fill:url(#SVGID_4_);}
	.st5{display:none;fill:#5B5B5B;}
	.st6{fill:url(#SVGID_5_);}
	.st7{fill:url(#SVGID_6_);}
	.st8{fill:#4F4F4F;}
	.st9{fill:url(#SVGID_7_);}
	.st10{fill:url(#SVGID_8_);}
	.st11{fill:url(#SVGID_9_);}
	.st12{fill:url(#SVGID_10_);}
	.st13{fill:url(#SVGID_11_);}
	.st14{fill:none;stroke:#4F4F4F;stroke-miterlimit:10;}
	.st15{fill:url(#SVGID_12_);}
	.st16{fill:url(#SVGID_13_);}
	.st17{fill:url(#SVGID_14_);}
	.st18{fill:url(#SVGID_15_);}
	.st19{fill:#2D2D2D;}
	.st20{fill:url(#SVGID_16_);}
	.st21{fill:url(#SVGID_17_);}
	.st22{fill:url(#SVGID_18_);}
	.st23{fill:url(#SVGID_19_);}
	.st24{fill:#EDEDED;}
	.st25{fill:url(#SVGID_20_);}
	.st26{fill:url(#SVGID_21_);}
	.st27{fill:url(#SVGID_22_);}
	.st28{fill:url(#SVGID_23_);}
	.st29{fill:url(#SVGID_24_);}
	.st30{fill:url(#SVGID_25_);}
	.st31{fill:url(#SVGID_26_);}
	.st32{fill:url(#SVGID_27_);}
	.st33{fill:url(#SVGID_28_);}
	.st34{fill:url(#SVGID_29_);}
	.st35{fill:url(#SVGID_30_);}
	.st36{fill:#C4C4C4;}
	.st37{fill:url(#SVGID_31_);}
	.st38{fill:url(#SVGID_32_);}
	.st39{fill:url(#SVGID_33_);}
	.st40{fill:url(#SVGID_34_);}
	.st41{fill:url(#SVGID_35_);}
	.st42{fill:url(#SVGID_36_);}
	.st43{fill:url(#SVGID_37_);}
	.st44{fill:#C3C3C3;stroke:#4F4F4F;stroke-width:0.75;stroke-miterlimit:10;}
</style>
<g id="Vertical_1_">
	<ellipse class="st1" cx="16.84" cy="16.96" rx="16.84" ry="16.96"/>
	<g>
		<g>
			<g>
				<path class="st24" d="M27.09,26.91H6.59c-1.49,0-2.7-1.21-2.7-2.7V9.7C3.89,8.21,5.1,7,6.59,7h20.5c1.49,0,2.7,1.21,2.7,2.7
					v14.51C29.79,25.7,28.57,26.91,27.09,26.91z M6.59,8c-0.94,0-1.7,0.76-1.7,1.7v14.51c0,0.94,0.76,1.7,1.7,1.7h20.5
					c0.94,0,1.7-0.76,1.7-1.7V9.7c0-0.94-0.76-1.7-1.7-1.7H6.59z"/>
			</g>
			<g>
				<rect x="16.34" y="23.3" class="st24" width="1" height="1.59"/>
				<rect x="16.34" y="18.54" class="st24" width="1" height="1.59"/>
				<rect x="16.34" y="13.78" class="st24" width="1" height="1.59"/>
				<rect x="16.34" y="9.02" class="st24" width="1" height="1.59"/>
			</g>
			<path class="st24" d="M12.6,20.29c0.22-0.22,0.09-0.71-0.28-1.08l-2.25-2.25l2.25-2.25c0.37-0.37,0.5-0.86,0.28-1.08
				s-0.71-0.09-1.08,0.28l-2.37,2.37c-0.37,0.37-0.37,0.99,0,1.36L11.52,20C11.9,20.38,12.38,20.51,12.6,20.29z"/>
			<path class="st24" d="M21.11,13.63c-0.22,0.22-0.09,0.71,0.28,1.08l2.25,2.25l-2.25,2.25c-0.37,0.37-0.5,0.86-0.28,1.08
				s0.71,0.09,1.08-0.28l2.37-2.37c0.37-0.37,0.37-0.99,0-1.36l-2.37-2.37C21.82,13.53,21.33,13.41,21.11,13.63z"/>
		</g>
	</g>
</g>
</svg>
