<?xml version="1.0" encoding="utf-8"?>
<!-- Generator: Adobe Illustrator 24.0.1, SVG Export Plug-In . SVG Version: 6.00 Build 0)  -->
<svg version="1.1" id="Light_Theme_Icons" xmlns="http://www.w3.org/2000/svg" xmlns:xlink="http://www.w3.org/1999/xlink" x="0px"
	 y="0px" viewBox="0 0 33.91 33.91" style="enable-background:new 0 0 33.91 33.91;" xml:space="preserve">
<style type="text/css">
	.st0{fill:url(#SVGID_1_);}
	.st1{fill:#5B5B5B;}
	.st2{fill:url(#SVGID_2_);}
	.st3{fill:url(#SVGID_3_);}
	.st4{fill:url(#SVGID_4_);}
	.st5{display:none;fill:#5B5B5B;}
	.st6{fill:url(#SVGID_5_);}
	.st7{fill:url(#SVGID_6_);}
	.st8{fill:#4F4F4F;}
	.st9{fill:url(#SVGID_7_);}
	.st10{fill:url(#SVGID_8_);}
	.st11{fill:url(#SVGID_9_);}
	.st12{fill:url(#SVGID_10_);}
	.st13{fill:url(#SVGID_11_);}
	.st14{fill:none;stroke:#4F4F4F;stroke-miterlimit:10;}
	.st15{fill:url(#SVGID_12_);}
	.st16{fill:url(#SVGID_13_);}
	.st17{fill:url(#SVGID_14_);}
	.st18{fill:url(#SVGID_15_);}
	.st19{fill:#2D2D2D;}
	.st20{fill:url(#SVGID_16_);}
	.st21{fill:url(#SVGID_17_);}
	.st22{fill:url(#SVGID_18_);}
	.st23{fill:url(#SVGID_19_);}
	.st24{fill:#EDEDED;}
	.st25{fill:url(#SVGID_20_);}
	.st26{fill:url(#SVGID_21_);}
	.st27{fill:url(#SVGID_22_);}
	.st28{fill:url(#SVGID_23_);}
	.st29{fill:url(#SVGID_24_);}
	.st30{fill:url(#SVGID_25_);}
	.st31{fill:url(#SVGID_26_);}
	.st32{fill:url(#SVGID_27_);}
	.st33{fill:url(#SVGID_28_);}
	.st34{fill:url(#SVGID_29_);}
	.st35{fill:url(#SVGID_30_);}
	.st36{fill:#C4C4C4;}
	.st37{fill:url(#SVGID_31_);}
	.st38{fill:url(#SVGID_32_);}
	.st39{fill:url(#SVGID_33_);}
	.st40{fill:url(#SVGID_34_);}
	.st41{fill:url(#SVGID_35_);}
	.st42{fill:url(#SVGID_36_);}
	.st43{fill:url(#SVGID_37_);}
	.st44{fill:#C3C3C3;stroke:#4F4F4F;stroke-width:0.75;stroke-miterlimit:10;}
</style>
<g id="Fit_All_1_">
	<linearGradient id="SVGID_1_" gradientUnits="userSpaceOnUse" x1="16.9558" y1="0" x2="16.9558" y2="33.9116">
		<stop  offset="0" style="stop-color:#D6D6D6"/>
		<stop  offset="1" style="stop-color:#C4C4C4"/>
	</linearGradient>
	<circle class="st0" cx="16.96" cy="16.96" r="16.96"/>
	<g>
		<g>
			<g>
				<g>
					<path class="st8" d="M13.72,9.03c-0.58,0.58-0.86,1.27-0.61,1.52c0.25,0.25,0.93-0.02,1.52-0.61l0.7-0.7
						c0.58-0.58,1.06-0.39,1.06,0.44v4.34c0,0.82,0.23,1.5,0.52,1.5c0.28,0,0.52-0.68,0.52-1.5V9.68c0-0.82,0.48-1.02,1.06-0.44
						l0.7,0.7c0.58,0.58,1.27,0.86,1.52,0.61c0.25-0.25-0.02-0.93-0.61-1.52L17.97,6.9c-0.58-0.58-1.54-0.58-2.12,0L13.72,9.03z"/>
				</g>
				<g>
					<path class="st8" d="M20.09,24.47c0.58-0.58,0.86-1.27,0.61-1.52c-0.25-0.25-0.93,0.02-1.52,0.61l-0.7,0.7
						c-0.58,0.58-1.06,0.39-1.06-0.44v-4.34c0-0.83-0.23-1.5-0.52-1.5c-0.28,0-0.52,0.68-0.52,1.5v4.34c0,0.83-0.48,1.02-1.06,0.44
						l-0.7-0.7c-0.58-0.58-1.27-0.86-1.52-0.61c-0.25,0.25,0.02,0.93,0.61,1.52l2.12,2.12c0.58,0.58,1.54,0.58,2.12,0L20.09,24.47z"
						/>
				</g>
			</g>
			<g>
				<g>
					<path class="st8" d="M9.19,19.93c0.58,0.58,1.27,0.86,1.52,0.61c0.25-0.25-0.02-0.93-0.61-1.52l-0.7-0.7
						c-0.58-0.58-0.39-1.06,0.44-1.06h4.34c0.82,0,1.5-0.23,1.5-0.52c0-0.28-0.68-0.52-1.5-0.52H9.84c-0.82,0-1.02-0.48-0.44-1.06
						l0.7-0.7c0.58-0.58,0.86-1.27,0.61-1.52c-0.25-0.25-0.93,0.02-1.52,0.61l-2.12,2.12c-0.58,0.58-0.58,1.54,0,2.12L9.19,19.93z"
						/>
				</g>
				<g>
					<path class="st8" d="M24.63,13.56c-0.58-0.58-1.27-0.86-1.52-0.61c-0.25,0.25,0.02,0.93,0.61,1.52l0.7,0.7
						c0.58,0.58,0.39,1.06-0.44,1.06h-4.34c-0.83,0-1.5,0.23-1.5,0.52c0,0.28,0.68,0.52,1.5,0.52h4.34c0.82,0,1.02,0.48,0.44,1.06
						l-0.7,0.7c-0.58,0.58-0.86,1.27-0.61,1.52c0.25,0.25,0.93-0.02,1.52-0.61l2.12-2.12c0.58-0.58,0.58-1.54,0-2.12L24.63,13.56z"
						/>
				</g>
			</g>
		</g>
	</g>
</g>
</svg>
