<?xml version="1.0" encoding="utf-8"?>
<!-- Generator: Adobe Illustrator 24.0.1, SVG Export Plug-In . SVG Version: 6.00 Build 0)  -->
<svg version="1.1" id="Light_Theme_Icons" xmlns="http://www.w3.org/2000/svg" xmlns:xlink="http://www.w3.org/1999/xlink" x="0px"
	 y="0px" viewBox="0 0 33.91 33.91" style="enable-background:new 0 0 33.91 33.91;" xml:space="preserve">
<style type="text/css">
	.st0{fill:url(#SVGID_1_);}
	.st1{fill:#5B5B5B;}
	.st2{fill:url(#SVGID_2_);}
	.st3{fill:url(#SVGID_3_);}
	.st4{fill:url(#SVGID_4_);}
	.st5{display:none;fill:#5B5B5B;}
	.st6{fill:url(#SVGID_5_);}
	.st7{fill:url(#SVGID_6_);}
	.st8{fill:#4F4F4F;}
	.st9{fill:url(#SVGID_7_);}
	.st10{fill:url(#SVGID_8_);}
	.st11{fill:url(#SVGID_9_);}
	.st12{fill:url(#SVGID_10_);}
	.st13{fill:url(#SVGID_11_);}
	.st14{fill:none;stroke:#4F4F4F;stroke-miterlimit:10;}
	.st15{fill:url(#SVGID_12_);}
	.st16{fill:url(#SVGID_13_);}
	.st17{fill:url(#SVGID_14_);}
	.st18{fill:url(#SVGID_15_);}
	.st19{fill:#2D2D2D;}
	.st20{fill:url(#SVGID_16_);}
	.st21{fill:url(#SVGID_17_);}
	.st22{fill:url(#SVGID_18_);}
	.st23{fill:url(#SVGID_19_);}
	.st24{fill:#EDEDED;}
	.st25{fill:url(#SVGID_20_);}
	.st26{fill:url(#SVGID_21_);}
	.st27{fill:url(#SVGID_22_);}
	.st28{fill:url(#SVGID_23_);}
	.st29{fill:url(#SVGID_24_);}
	.st30{fill:url(#SVGID_25_);}
	.st31{fill:url(#SVGID_26_);}
	.st32{fill:url(#SVGID_27_);}
	.st33{fill:url(#SVGID_28_);}
	.st34{fill:url(#SVGID_29_);}
	.st35{fill:url(#SVGID_30_);}
	.st36{fill:#C4C4C4;}
	.st37{fill:url(#SVGID_31_);}
	.st38{fill:url(#SVGID_32_);}
	.st39{fill:url(#SVGID_33_);}
	.st40{fill:url(#SVGID_34_);}
	.st41{fill:url(#SVGID_35_);}
	.st42{fill:url(#SVGID_36_);}
	.st43{fill:url(#SVGID_37_);}
	.st44{fill:#C3C3C3;stroke:#4F4F4F;stroke-width:0.75;stroke-miterlimit:10;}
</style>
<g id="Clear_1_">
	<linearGradient id="SVGID_1_" gradientUnits="userSpaceOnUse" x1="16.9558" y1="0" x2="16.9558" y2="33.9116">
		<stop  offset="0" style="stop-color:#D6D6D6"/>
		<stop  offset="1" style="stop-color:#C4C4C4"/>
	</linearGradient>
	<circle class="st0" cx="16.96" cy="16.96" r="16.96"/>
	<g>
		<path class="st8" d="M25.05,18.27l-1.31-0.57c-0.16,2.48-4.33,8.64-4.64,8.83L17.52,26c0,0,1.27-2.94,1.49-3.71
			c0.21-0.75,0.59-2.06,0.59-2.06s-3.32,4.5-4.81,4.77l-2.81-1.57c-0.04,0.07,1.38-1.11,1.92-1.82c0.29-0.37,1-1.88,1-1.88
			s-3.58,2.57-4.66,2.5l-2.06-2.08c3.56-0.32,9.02-5.35,9.02-5.35l-1.29-0.56c-1.2,1-4.61,4.26-8.73,4.31
			c-3.78,0.04,1.33,4.51,2.54,5.33c1.04,0.7,2.39,1.52,4.31,2.34c2.1,0.9,4.66,2.02,6.37,1.54C20.4,27.78,24.46,21.24,25.05,18.27z"
			/>
		<path class="st8" d="M23.85,11.92l1.66-5.08c0.19-0.45-0.01-0.97-0.45-1.16c-0.44-0.19-0.96,0.01-1.16,0.46l-2.53,4.7"/>
		<path class="st8" d="M23.82,12.71l-3.01-1.31c-1.69-0.74-3.75,0.22-4.58,2.12l9.16,3.99C26.21,15.6,25.51,13.45,23.82,12.71z
			 M24.36,16.23l-6.49-2.83c0.5-1.14,1.88-1.65,3.08-1.12l2.14,0.93C24.28,13.73,24.85,15.09,24.36,16.23z"/>
	</g>
</g>
</svg>
