<?xml version="1.0" encoding="utf-8"?>
<!-- Generator: Adobe Illustrator 24.0.1, SVG Export Plug-In . SVG Version: 6.00 Build 0)  -->
<svg version="1.1" id="Light_Theme_Icons" xmlns="http://www.w3.org/2000/svg" xmlns:xlink="http://www.w3.org/1999/xlink" x="0px"
	 y="0px" viewBox="0 0 33.91 33.91" style="enable-background:new 0 0 33.91 33.91;" xml:space="preserve">
<style type="text/css">
	.st0{fill:url(#SVGID_1_);}
	.st1{fill:#5B5B5B;}
	.st2{fill:url(#SVGID_2_);}
	.st3{fill:url(#SVGID_3_);}
	.st4{fill:url(#SVGID_4_);}
	.st5{display:none;fill:#5B5B5B;}
	.st6{fill:url(#SVGID_5_);}
	.st7{fill:url(#SVGID_6_);}
	.st8{fill:#4F4F4F;}
	.st9{fill:url(#SVGID_7_);}
	.st10{fill:url(#SVGID_8_);}
	.st11{fill:url(#SVGID_9_);}
	.st12{fill:url(#SVGID_10_);}
	.st13{fill:url(#SVGID_11_);}
	.st14{fill:none;stroke:#4F4F4F;stroke-miterlimit:10;}
	.st15{fill:url(#SVGID_12_);}
	.st16{fill:url(#SVGID_13_);}
	.st17{fill:url(#SVGID_14_);}
	.st18{fill:url(#SVGID_15_);}
	.st19{fill:#2D2D2D;}
	.st20{fill:url(#SVGID_16_);}
	.st21{fill:url(#SVGID_17_);}
	.st22{fill:url(#SVGID_18_);}
	.st23{fill:url(#SVGID_19_);}
	.st24{fill:#EDEDED;}
	.st25{fill:url(#SVGID_20_);}
	.st26{fill:url(#SVGID_21_);}
	.st27{fill:url(#SVGID_22_);}
	.st28{fill:url(#SVGID_23_);}
	.st29{fill:url(#SVGID_24_);}
	.st30{fill:url(#SVGID_25_);}
	.st31{fill:url(#SVGID_26_);}
	.st32{fill:url(#SVGID_27_);}
	.st33{fill:url(#SVGID_28_);}
	.st34{fill:url(#SVGID_29_);}
	.st35{fill:url(#SVGID_30_);}
	.st36{fill:#C4C4C4;}
	.st37{fill:url(#SVGID_31_);}
	.st38{fill:url(#SVGID_32_);}
	.st39{fill:url(#SVGID_33_);}
	.st40{fill:url(#SVGID_34_);}
	.st41{fill:url(#SVGID_35_);}
	.st42{fill:url(#SVGID_36_);}
	.st43{fill:url(#SVGID_37_);}
	.st44{fill:#C3C3C3;stroke:#4F4F4F;stroke-width:0.75;stroke-miterlimit:10;}
</style>
<g id="Increase_Text_Size">
	<linearGradient id="SVGID_1_" gradientUnits="userSpaceOnUse" x1="16.9558" y1="0" x2="16.9558" y2="33.9116">
		<stop  offset="0" style="stop-color:#D6D6D6"/>
		<stop  offset="1" style="stop-color:#C4C4C4"/>
	</linearGradient>
	<circle class="st0" cx="16.96" cy="16.96" r="16.96"/>
	<g>
		<path class="st8" d="M17.91,14.42h-1.49v-1.49c0-0.65-0.41-1.15-0.93-1.15s-0.93,0.51-0.93,1.15v1.49h-1.49
			c-0.65,0-1.15,0.41-1.15,0.93c0,0.52,0.51,0.93,1.15,0.93h1.49v1.49c0,0.65,0.41,1.15,0.93,1.15s0.93-0.51,0.93-1.15v-1.49h1.49
			c0.65,0,1.15-0.41,1.15-0.93C19.06,14.83,18.55,14.42,17.91,14.42z"/>
		<path class="st8" d="M26.25,24.86c-0.05-0.33-0.22-0.65-0.47-0.9l-3.98-3.98c0.96-1.3,1.53-2.9,1.53-4.63
			c0-4.32-3.52-7.84-7.84-7.84s-7.84,3.52-7.84,7.84s3.52,7.84,7.84,7.84c1.6,0,3.09-0.48,4.33-1.31l4.02,4.02
			c0.33,0.33,0.74,0.49,1.13,0.49c0.34,0,0.67-0.12,0.93-0.38C26.19,25.73,26.32,25.3,26.25,24.86z M9.56,15.35
			c0-3.27,2.66-5.92,5.92-5.92s5.92,2.66,5.92,5.92s-2.66,5.92-5.92,5.92S9.56,18.62,9.56,15.35z"/>
	</g>
</g>
</svg>
