<?xml version="1.0" encoding="utf-8"?>
<!-- Generator: Adobe Illustrator 24.0.1, SVG Export Plug-In . SVG Version: 6.00 Build 0)  -->
<svg version="1.1" id="Light_Theme_Icons" xmlns="http://www.w3.org/2000/svg" xmlns:xlink="http://www.w3.org/1999/xlink" x="0px"
	 y="0px" viewBox="0 0 33.67 33.91" style="enable-background:new 0 0 33.67 33.91;" xml:space="preserve">
<style type="text/css">
	.st0{fill:url(#SVGID_1_);}
	.st1{fill:#5B5B5B;}
	.st2{fill:url(#SVGID_2_);}
	.st3{fill:url(#SVGID_3_);}
	.st4{fill:url(#SVGID_4_);}
	.st5{display:none;fill:#5B5B5B;}
	.st6{fill:url(#SVGID_5_);}
	.st7{fill:url(#SVGID_6_);}
	.st8{fill:#4F4F4F;}
	.st9{fill:url(#SVGID_7_);}
	.st10{fill:url(#SVGID_8_);}
	.st11{fill:url(#SVGID_9_);}
	.st12{fill:url(#SVGID_10_);}
	.st13{fill:url(#SVGID_11_);}
	.st14{fill:none;stroke:#4F4F4F;stroke-miterlimit:10;}
	.st15{fill:url(#SVGID_12_);}
	.st16{fill:url(#SVGID_13_);}
	.st17{fill:url(#SVGID_14_);}
	.st18{fill:url(#SVGID_15_);}
	.st19{fill:#2D2D2D;}
	.st20{fill:url(#SVGID_16_);}
	.st21{fill:url(#SVGID_17_);}
	.st22{fill:url(#SVGID_18_);}
	.st23{fill:url(#SVGID_19_);}
	.st24{fill:#EDEDED;}
	.st25{fill:url(#SVGID_20_);}
	.st26{fill:url(#SVGID_21_);}
	.st27{fill:url(#SVGID_22_);}
	.st28{fill:url(#SVGID_23_);}
	.st29{fill:url(#SVGID_24_);}
	.st30{fill:url(#SVGID_25_);}
	.st31{fill:url(#SVGID_26_);}
	.st32{fill:url(#SVGID_27_);}
	.st33{fill:url(#SVGID_28_);}
	.st34{fill:url(#SVGID_29_);}
	.st35{fill:url(#SVGID_30_);}
	.st36{fill:#C4C4C4;}
	.st37{fill:url(#SVGID_31_);}
	.st38{fill:url(#SVGID_32_);}
	.st39{fill:url(#SVGID_33_);}
	.st40{fill:url(#SVGID_34_);}
	.st41{fill:url(#SVGID_35_);}
	.st42{fill:url(#SVGID_36_);}
	.st43{fill:url(#SVGID_37_);}
	.st44{fill:#C3C3C3;stroke:#4F4F4F;stroke-width:0.75;stroke-miterlimit:10;}
</style>
<g id="Search_Folder_1_">
	<linearGradient id="SVGID_1_" gradientUnits="userSpaceOnUse" x1="16.8352" y1="0" x2="16.8352" y2="33.9116">
		<stop  offset="0" style="stop-color:#D6D6D6"/>
		<stop  offset="1" style="stop-color:#C4C4C4"/>
	</linearGradient>
	<ellipse class="st0" cx="16.84" cy="16.96" rx="16.84" ry="16.96"/>
	<path class="st8" d="M26.4,12.85c-0.21-0.29-0.52-0.49-0.88-0.55v-0.77c0-1-0.57-1.58-1.56-1.58l-2.04,0c-2.47,0-4.94,0-7.41,0.01
		c0,0,0,0-0.01,0c-0.21,0-0.31-0.06-0.41-0.23c-0.17-0.28-0.36-0.56-0.58-0.85c-0.23-0.31-0.55-0.47-0.9-0.47l-0.78,0
		c-1.14,0-2.28,0-3.42,0c-0.6,0-1.11,0.37-1.32,0.96L7.04,9.49L7.02,24.32l0.01,0.08c0.33,0.99,1.11,1.11,1.68,1.11
		c0.01,0,0.01,0,0.01,0c3.59-0.01,7.18-0.01,10.77-0.01l3.49,0c1.16,0,1.56-0.33,1.78-1.49c0.47-2.54,0.94-5.09,1.41-7.64l0.45-2.47
		C26.7,13.53,26.62,13.15,26.4,12.85z M23.55,23.8c-0.02,0.08-0.03,0.15-0.03,0.22c-0.01,0.07-0.02,0.16-0.03,0.18
		c-0.02,0.01-0.1,0.05-0.47,0.05c0,0-0.01,0-0.01,0c-2.4,0-4.8,0-7.2,0c-1.08,0-2.16,0-3.24,0l-4.02,0c-0.05,0-0.11,0-0.16-0.01
		c-0.03-0.01-0.08-0.02-0.1-0.05c-0.03-0.04-0.02-0.09-0.02-0.12l1.9-10.36c0.02-0.13,0.03-0.16,0.24-0.16l14.71,0
		c0.05,0,0.09,0,0.14,0c0.05,0,0.1,0.02,0.12,0.05c0.03,0.04,0.02,0.1,0.02,0.13l-0.44,2.43C24.49,18.69,24.02,21.24,23.55,23.8z
		 M24.27,12.27l-13.79,0c-0.79,0-1.33,0.41-1.49,1.11c-0.02,0.09-0.04,0.17-0.05,0.26l-0.66,3.61V9.97c0-0.3,0-0.3,0.31-0.31l0.96,0
		c0.96,0,1.92,0,2.88,0c0.1-0.01,0.15,0.03,0.2,0.1c0.17,0.26,0.34,0.53,0.52,0.79c0.31,0.46,0.71,0.67,1.28,0.67c0,0,0.01,0,0.01,0
		c2.42-0.01,4.83-0.01,7.25-0.01l2.27,0c0.33,0,0.33,0,0.33,0.33V12.27z"/>
</g>
</svg>
