<?xml version="1.0" encoding="utf-8"?>
<!-- Generator: Adobe Illustrator 24.0.1, SVG Export Plug-In . SVG Version: 6.00 Build 0)  -->
<svg version="1.1" id="Light_Theme_Icons" xmlns="http://www.w3.org/2000/svg" xmlns:xlink="http://www.w3.org/1999/xlink" x="0px"
	 y="0px" viewBox="0 0 33.67 33.91" style="enable-background:new 0 0 33.67 33.91;" xml:space="preserve">
<style type="text/css">
	.st0{fill:url(#SVGID_1_);}
	.st1{fill:#5B5B5B;}
	.st2{fill:url(#SVGID_2_);}
	.st3{fill:url(#SVGID_3_);}
	.st4{fill:url(#SVGID_4_);}
	.st5{display:none;fill:#5B5B5B;}
	.st6{fill:url(#SVGID_5_);}
	.st7{fill:url(#SVGID_6_);}
	.st8{fill:#4F4F4F;}
	.st9{fill:url(#SVGID_7_);}
	.st10{fill:url(#SVGID_8_);}
	.st11{fill:url(#SVGID_9_);}
	.st12{fill:url(#SVGID_10_);}
	.st13{fill:url(#SVGID_11_);}
	.st14{fill:none;stroke:#4F4F4F;stroke-miterlimit:10;}
	.st15{fill:url(#SVGID_12_);}
	.st16{fill:url(#SVGID_13_);}
	.st17{fill:url(#SVGID_14_);}
	.st18{fill:url(#SVGID_15_);}
	.st19{fill:#2D2D2D;}
	.st20{fill:url(#SVGID_16_);}
	.st21{fill:url(#SVGID_17_);}
	.st22{fill:url(#SVGID_18_);}
	.st23{fill:url(#SVGID_19_);}
	.st24{fill:#EDEDED;}
	.st25{fill:url(#SVGID_20_);}
	.st26{fill:url(#SVGID_21_);}
	.st27{fill:url(#SVGID_22_);}
	.st28{fill:url(#SVGID_23_);}
	.st29{fill:url(#SVGID_24_);}
	.st30{fill:url(#SVGID_25_);}
	.st31{fill:url(#SVGID_26_);}
	.st32{fill:url(#SVGID_27_);}
	.st33{fill:url(#SVGID_28_);}
	.st34{fill:url(#SVGID_29_);}
	.st35{fill:url(#SVGID_30_);}
	.st36{fill:#C4C4C4;}
	.st37{fill:url(#SVGID_31_);}
	.st38{fill:url(#SVGID_32_);}
	.st39{fill:url(#SVGID_33_);}
	.st40{fill:url(#SVGID_34_);}
	.st41{fill:url(#SVGID_35_);}
	.st42{fill:url(#SVGID_36_);}
	.st43{fill:url(#SVGID_37_);}
	.st44{fill:#C3C3C3;stroke:#4F4F4F;stroke-width:0.75;stroke-miterlimit:10;}
</style>
<g id="Add_Task_1_">
	<linearGradient id="SVGID_1_" gradientUnits="userSpaceOnUse" x1="0" y1="16.9558" x2="33.6704" y2="16.9558">
		<stop  offset="0" style="stop-color:#D6D6D6"/>
		<stop  offset="1" style="stop-color:#C4C4C4"/>
	</linearGradient>
	<ellipse class="st0" cx="16.84" cy="16.96" rx="16.84" ry="16.96"/>
	<g>
		<path class="st1" d="M17.25,4.72c0.3,0.09,0.62,0.15,0.9,0.28c0.58,0.25,0.99,0.69,1.23,1.27c0.07,0.16,0.15,0.21,0.32,0.21
			c0.45-0.01,0.89-0.01,1.34,0c0.11,0,0.22,0,0.33,0.02c0.35,0.05,0.49,0.22,0.49,0.58c0,0.27,0,0.54,0,0.85c0.09,0,0.18,0,0.26,0
			c0.76,0.01,1.53,0,2.29,0.05c0.98,0.07,1.92,1,2.05,1.98c0.03,0.23,0.05,0.46,0.05,0.69c0,5.34-0.03,10.69,0.02,16.03
			c0.01,1.54-1.14,2.52-2.53,2.52c-1.41,0-2.82,0-4.23,0c-3.3,0-6.59,0-9.89,0c-0.78,0-1.47-0.22-2.02-0.81
			c-0.37-0.39-0.56-0.86-0.56-1.4c0-1.03,0-2.05,0-3.08c0-4.47,0-8.93,0-13.4c0-1.23,0.7-2.17,1.9-2.49
			c0.22-0.06,0.46-0.07,0.68-0.08c0.61-0.01,1.21,0,1.82,0c0.08,0,0.16-0.01,0.26-0.01c0-0.3,0-0.58,0-0.87
			c0-0.35,0.16-0.54,0.52-0.55c0.54-0.02,1.08-0.01,1.62-0.03c0.09,0,0.22-0.07,0.25-0.14c0.4-0.86,1.07-1.39,2-1.56
			c0.03-0.01,0.05-0.03,0.08-0.04C16.71,4.72,16.98,4.72,17.25,4.72z M21.87,9.13c0,0.37,0,0.75,0,1.13c0,0.66-0.2,0.87-0.87,0.87
			c-2.73,0-5.46,0-8.2,0c-0.06,0-0.13,0-0.19,0c-0.41-0.02-0.65-0.25-0.65-0.67c-0.01-0.37,0-0.75,0-1.12
			c0-0.08-0.01-0.15-0.01-0.22c-0.05-0.01-0.07-0.02-0.09-0.02c-0.65,0-1.29,0-1.94,0C9,9.1,8.47,9.63,8.47,10.55
			c0,5.39,0,10.78,0,16.18c0,0.06,0,0.11,0,0.17c0,0.48,0.23,0.83,0.68,1c0.25,0.09,0.54,0.14,0.81,0.14
			c4.64,0.01,9.27,0.01,13.91,0c0.12,0,0.24-0.01,0.36-0.02c0.78-0.08,1.14-0.5,1.14-1.28c0-5.39,0-10.78,0-16.18
			c0-0.06,0-0.11,0-0.17c-0.02-0.68-0.51-1.24-1.18-1.27c-0.75-0.04-1.5-0.01-2.24-0.02C21.93,9.1,21.91,9.11,21.87,9.13z
			 M20.68,7.64c-0.49,0-0.95,0-1.41,0c-0.53,0-0.69-0.12-0.84-0.62c-0.23-0.72-0.84-1.2-1.54-1.21c-0.71,0-1.34,0.48-1.57,1.2
			C15.15,7.53,15,7.64,14.45,7.64c-0.43,0-0.87,0-1.3,0c0,0.79,0,1.55,0,2.32c2.52,0,5.02,0,7.53,0
			C20.68,9.18,20.68,8.42,20.68,7.64z"/>
		<path class="st1" d="M12.41,17.01c-0.55,0-1.1,0-1.65,0c-0.45,0-0.66-0.21-0.66-0.66c0-0.98,0-1.96,0-2.94
			c0-0.49,0.23-0.71,0.72-0.71c1.06,0,2.12,0,3.18,0c0.51,0,0.73,0.21,0.73,0.73c0,0.96,0,1.93,0,2.89c0,0.5-0.19,0.69-0.69,0.69
			C13.49,17.01,12.95,17.01,12.41,17.01z M13.56,13.88c-0.77,0-1.52,0-2.27,0c0,0.66,0,1.31,0,1.95c0.77,0,1.52,0,2.27,0
			C13.56,15.18,13.56,14.54,13.56,13.88z"/>
		<path class="st1" d="M19.66,24.82c-1.04,0-2.08,0-3.13,0c-0.14,0-0.29-0.01-0.42-0.06c-0.23-0.08-0.37-0.32-0.35-0.57
			c0.02-0.25,0.18-0.45,0.43-0.51c0.11-0.02,0.22-0.04,0.33-0.04c2.11,0,4.22,0,6.32,0c0.17,0,0.37,0.04,0.52,0.13
			c0.21,0.11,0.28,0.32,0.23,0.56c-0.05,0.24-0.19,0.4-0.43,0.45c-0.12,0.02-0.24,0.03-0.35,0.03
			C21.76,24.83,20.71,24.82,19.66,24.82z"/>
		<path class="st1" d="M19.67,15.5c-1.06,0-2.12,0-3.18,0c-0.25,0-0.48-0.03-0.63-0.26c-0.22-0.33-0.07-0.77,0.32-0.87
			c0.1-0.03,0.2-0.04,0.31-0.04c2.13,0,4.25,0,6.38,0c0.26,0,0.49,0.04,0.64,0.28c0.22,0.35,0.03,0.79-0.38,0.86
			c-0.11,0.02-0.22,0.02-0.33,0.02C21.76,15.5,20.72,15.5,19.67,15.5z"/>
		<path class="st1" d="M19.69,19c1.07,0,2.15,0,3.22,0c0.22,0,0.43,0.04,0.57,0.23c0.25,0.33,0.1,0.79-0.3,0.9
			c-0.09,0.02-0.19,0.03-0.28,0.03c-2.15,0-4.3,0-6.45,0c-0.44,0-0.71-0.24-0.69-0.61c0.01-0.31,0.24-0.53,0.58-0.55
			c0.37-0.01,0.73,0,1.1-0.01C18.19,19,18.94,19,19.69,19z"/>
		<path class="st1" d="M12,19.48c0.57-0.55,1.14-1.08,1.7-1.62c0.08-0.08,0.17-0.15,0.26-0.21c0.24-0.15,0.54-0.09,0.73,0.12
			c0.19,0.21,0.2,0.49,0.02,0.72c-0.05,0.06-0.11,0.12-0.16,0.17c-0.68,0.65-1.36,1.29-2.04,1.94c-0.4,0.38-0.67,0.37-1.06-0.03
			c-0.32-0.33-0.64-0.66-0.97-0.99c-0.06-0.06-0.12-0.13-0.16-0.2c-0.15-0.24-0.12-0.57,0.08-0.74c0.2-0.18,0.52-0.2,0.74,0
			C11.44,18.9,11.7,19.18,12,19.48z"/>
		<path class="st1" d="M12,24.14c0.61-0.58,1.2-1.14,1.79-1.7c0.25-0.23,0.5-0.28,0.74-0.15c0.36,0.2,0.44,0.63,0.14,0.92
			c-0.75,0.73-1.51,1.44-2.27,2.15c-0.28,0.26-0.57,0.24-0.84-0.04c-0.36-0.36-0.72-0.73-1.07-1.09c-0.07-0.07-0.14-0.16-0.19-0.25
			c-0.12-0.23-0.07-0.54,0.12-0.7c0.2-0.17,0.49-0.19,0.7-0.02c0.21,0.18,0.4,0.39,0.6,0.58C11.8,23.95,11.89,24.04,12,24.14z"/>
	</g>
</g>
</svg>
