<?xml version="1.0" encoding="utf-8"?>
<!-- Generator: Adobe Illustrator 24.0.1, SVG Export Plug-In . SVG Version: 6.00 Build 0)  -->
<svg version="1.1" id="Light_Theme_Icons" xmlns="http://www.w3.org/2000/svg" xmlns:xlink="http://www.w3.org/1999/xlink" x="0px"
	 y="0px" viewBox="0 0 33.67 33.91" style="enable-background:new 0 0 33.67 33.91;" xml:space="preserve">
<style type="text/css">
	.st0{fill:url(#SVGID_1_);}
	.st1{fill:#5B5B5B;}
	.st2{fill:url(#SVGID_2_);}
	.st3{fill:url(#SVGID_3_);}
	.st4{fill:url(#SVGID_4_);}
	.st5{display:none;fill:#5B5B5B;}
	.st6{fill:url(#SVGID_5_);}
	.st7{fill:url(#SVGID_6_);}
	.st8{fill:#4F4F4F;}
	.st9{fill:url(#SVGID_7_);}
	.st10{fill:url(#SVGID_8_);}
	.st11{fill:url(#SVGID_9_);}
	.st12{fill:url(#SVGID_10_);}
	.st13{fill:url(#SVGID_11_);}
	.st14{fill:none;stroke:#4F4F4F;stroke-miterlimit:10;}
	.st15{fill:url(#SVGID_12_);}
	.st16{fill:url(#SVGID_13_);}
	.st17{fill:url(#SVGID_14_);}
	.st18{fill:url(#SVGID_15_);}
	.st19{fill:#2D2D2D;}
	.st20{fill:url(#SVGID_16_);}
	.st21{fill:url(#SVGID_17_);}
	.st22{fill:url(#SVGID_18_);}
	.st23{fill:url(#SVGID_19_);}
	.st24{fill:#EDEDED;}
	.st25{fill:url(#SVGID_20_);}
	.st26{fill:url(#SVGID_21_);}
	.st27{fill:url(#SVGID_22_);}
	.st28{fill:url(#SVGID_23_);}
	.st29{fill:url(#SVGID_24_);}
	.st30{fill:url(#SVGID_25_);}
	.st31{fill:url(#SVGID_26_);}
	.st32{fill:url(#SVGID_27_);}
	.st33{fill:url(#SVGID_28_);}
	.st34{fill:url(#SVGID_29_);}
	.st35{fill:url(#SVGID_30_);}
	.st36{fill:#C4C4C4;}
	.st37{fill:url(#SVGID_31_);}
	.st38{fill:url(#SVGID_32_);}
	.st39{fill:url(#SVGID_33_);}
	.st40{fill:url(#SVGID_34_);}
	.st41{fill:url(#SVGID_35_);}
	.st42{fill:url(#SVGID_36_);}
	.st43{fill:url(#SVGID_37_);}
	.st44{fill:#C3C3C3;stroke:#4F4F4F;stroke-width:0.75;stroke-miterlimit:10;}
</style>
<g id="Hide_Labels_1_">
	<ellipse class="st1" cx="16.84" cy="16.96" rx="16.84" ry="16.96"/>
	<g>
		<g>
			<path class="st24" d="M19.37,17.6c0.43,0.74,0.81,1.4,1.19,2.06c0.76,1.29,1.52,2.58,2.27,3.87c0.38,0.65,0.2,0.97-0.55,0.95
				c-1.68-0.03-3.35-0.07-5.03-0.14c-0.37-0.01-0.56,0.11-0.73,0.43c-0.74,1.41-1.49,2.82-2.26,4.22c-0.13,0.23-0.4,0.51-0.61,0.52
				c-0.21,0.01-0.52-0.24-0.65-0.46c-2.88-4.88-5.74-9.78-8.61-14.67c-0.22-0.37-0.22-0.67-0.01-1.04c0.76-1.35,1.55-2.7,2.24-4.09
				C7.13,8.2,8.02,7.53,8.82,6.75c0.82-0.8,1.67-1.56,2.5-2.35c0.28-0.27,0.56-0.34,0.96-0.23c5.47,1.45,10.95,2.88,16.43,4.32
				c0.11,0.03,0.23,0.06,0.34,0.1c0.68,0.21,0.79,0.62,0.27,1.1c-1.18,1.11-2.35,2.22-3.56,3.3c-0.34,0.3-0.38,0.56-0.25,0.97
				c0.49,1.5,0.94,3,1.4,4.5c0.24,0.77-0.06,1.09-0.85,0.88c-2-0.52-3.99-1.05-5.99-1.58C19.88,17.72,19.67,17.67,19.37,17.6z
				 M21.42,23.28C21.42,23.32,21.43,23.29,21.42,23.28c-2.67-4.55-5.34-9.1-8.02-13.64c-0.09-0.16-0.37-0.28-0.57-0.29
				C11.35,9.28,9.87,9.27,8.39,9.2C7.99,9.18,7.8,9.33,7.63,9.67c-0.67,1.27-1.35,2.54-2.06,3.79C5.39,13.77,5.41,14,5.59,14.31
				c1.53,2.57,3.05,5.15,4.57,7.73c1.14,1.93,2.28,3.86,3.47,5.86c0.75-1.37,1.49-2.67,2.17-3.99c0.25-0.49,0.57-0.66,1.12-0.64
				C18.41,23.3,19.91,23.28,21.42,23.28z M27.96,9.48c-0.08-0.07-0.1-0.09-0.11-0.1C22.72,8.02,17.6,6.64,12.46,5.29
				c-0.19-0.05-0.49,0.05-0.65,0.19c-0.84,0.75-1.65,1.53-2.47,2.3C9.25,7.88,9.17,8,9.08,8.1c0.01,0.06,0.03,0.12,0.04,0.17
				c1.34,0,2.67,0.02,4.01-0.01c0.56-0.01,0.89,0.19,1.17,0.69c1.32,2.31,2.67,4.6,4.03,6.88c0.13,0.22,0.41,0.42,0.66,0.5
				c1.11,0.33,2.24,0.61,3.36,0.91c1.07,0.29,2.15,0.57,3.31,0.88c-0.47-1.53-0.88-2.97-1.34-4.38c-0.16-0.49-0.06-0.8,0.31-1.13
				C25.75,11.58,26.85,10.53,27.96,9.48z"/>
			<path class="st24" d="M8.2,12.95c0.01-1.06,0.84-1.88,1.93-1.88c1.1,0,1.94,0.84,1.93,1.94c-0.01,1.06-0.86,1.88-1.94,1.88
				C9.02,14.89,8.19,14.05,8.2,12.95z M10.94,12.98c-0.01-0.4-0.4-0.8-0.8-0.8c-0.43,0-0.85,0.42-0.82,0.84
				c0.02,0.4,0.43,0.78,0.83,0.77C10.56,13.77,10.95,13.38,10.94,12.98z"/>
		</g>
	</g>
</g>
</svg>
