<?xml version="1.0" encoding="utf-8"?>
<!-- Generator: Adobe Illustrator 24.0.1, SVG Export Plug-In . SVG Version: 6.00 Build 0)  -->
<svg version="1.1" id="Light_Theme_Icons" xmlns="http://www.w3.org/2000/svg" xmlns:xlink="http://www.w3.org/1999/xlink" x="0px"
	 y="0px" viewBox="0 0 33.67 33.91" style="enable-background:new 0 0 33.67 33.91;" xml:space="preserve">
<style type="text/css">
	.st0{fill:url(#SVGID_1_);}
	.st1{fill:#5B5B5B;}
	.st2{fill:url(#SVGID_2_);}
	.st3{fill:url(#SVGID_3_);}
	.st4{fill:url(#SVGID_4_);}
	.st5{display:none;fill:#5B5B5B;}
	.st6{fill:url(#SVGID_5_);}
	.st7{fill:url(#SVGID_6_);}
	.st8{fill:#4F4F4F;}
	.st9{fill:url(#SVGID_7_);}
	.st10{fill:url(#SVGID_8_);}
	.st11{fill:url(#SVGID_9_);}
	.st12{fill:url(#SVGID_10_);}
	.st13{fill:url(#SVGID_11_);}
	.st14{fill:none;stroke:#4F4F4F;stroke-miterlimit:10;}
	.st15{fill:url(#SVGID_12_);}
	.st16{fill:url(#SVGID_13_);}
	.st17{fill:url(#SVGID_14_);}
	.st18{fill:url(#SVGID_15_);}
	.st19{fill:#2D2D2D;}
	.st20{fill:url(#SVGID_16_);}
	.st21{fill:url(#SVGID_17_);}
	.st22{fill:url(#SVGID_18_);}
	.st23{fill:url(#SVGID_19_);}
	.st24{fill:#EDEDED;}
	.st25{fill:url(#SVGID_20_);}
	.st26{fill:url(#SVGID_21_);}
	.st27{fill:url(#SVGID_22_);}
	.st28{fill:url(#SVGID_23_);}
	.st29{fill:url(#SVGID_24_);}
	.st30{fill:url(#SVGID_25_);}
	.st31{fill:url(#SVGID_26_);}
	.st32{fill:url(#SVGID_27_);}
	.st33{fill:url(#SVGID_28_);}
	.st34{fill:url(#SVGID_29_);}
	.st35{fill:url(#SVGID_30_);}
	.st36{fill:#C4C4C4;}
	.st37{fill:url(#SVGID_31_);}
	.st38{fill:url(#SVGID_32_);}
	.st39{fill:url(#SVGID_33_);}
	.st40{fill:url(#SVGID_34_);}
	.st41{fill:url(#SVGID_35_);}
	.st42{fill:url(#SVGID_36_);}
	.st43{fill:url(#SVGID_37_);}
	.st44{fill:#C3C3C3;stroke:#4F4F4F;stroke-width:0.75;stroke-miterlimit:10;}
</style>
<g id="Dark_Theme">
	<ellipse class="st1" cx="16.84" cy="16.96" rx="16.84" ry="16.96"/>
	<g>
		<g>
			<path class="st24" d="M26.99,27.23v-1c0.94,0,1.7-0.76,1.7-1.7V10.02c0-0.94-0.76-1.7-1.7-1.7H6.49c-0.94,0-1.7,0.76-1.7,1.7
				v14.51c0,0.94,0.76,1.7,1.7,1.7h9.46v1H6.49c-1.49,0-2.7-1.21-2.7-2.7V10.02c0-1.49,1.21-2.7,2.7-2.7h20.5
				c1.49,0,2.7,1.21,2.7,2.7v14.51C29.69,26.02,28.48,27.23,26.99,27.23z"/>
			<rect x="4.3" y="12.46" class="st24" width="24.9" height="1"/>
		</g>
		<circle class="st24" cx="7.24" cy="10.29" r="0.87"/>
		<circle class="st24" cx="10.69" cy="10.29" r="0.87"/>
		<circle class="st24" cx="14.15" cy="10.29" r="0.87"/>
		<g>
			<path class="st24" d="M21.98,23.6c0-3.74-2.42-6.86-5.63-7.6c0.52-0.11,1.06-0.17,1.61-0.17c4.29,0,7.77,3.48,7.77,7.77
				c0,4.29-3.48,7.77-7.77,7.77c-0.55,0-1.09-0.06-1.61-0.17C19.56,30.46,21.98,27.34,21.98,23.6z"/>
			<polygon class="st24" points="12.77,16.42 11.88,18.23 9.89,18.52 11.33,19.92 10.99,21.91 12.77,20.97 14.56,21.91 14.22,19.92 
				15.66,18.52 13.67,18.23 			"/>
			<polygon class="st24" points="17.51,21.38 16.94,22.54 15.66,22.72 16.59,23.63 16.37,24.9 17.51,24.3 18.66,24.9 18.44,23.63 
				19.37,22.72 18.09,22.54 			"/>
		</g>
	</g>
</g>
</svg>
