<?xml version="1.0" encoding="utf-8"?>
<!-- Generator: Adobe Illustrator 24.0.1, SVG Export Plug-In . SVG Version: 6.00 Build 0)  -->
<svg version="1.1" id="Light_Theme_Icons" xmlns="http://www.w3.org/2000/svg" xmlns:xlink="http://www.w3.org/1999/xlink" x="0px"
	 y="0px" viewBox="0 0 33.67 33.91" style="enable-background:new 0 0 33.67 33.91;" xml:space="preserve">
<style type="text/css">
	.st0{fill:url(#SVGID_1_);}
	.st1{fill:#5B5B5B;}
	.st2{fill:url(#SVGID_2_);}
	.st3{fill:url(#SVGID_3_);}
	.st4{fill:url(#SVGID_4_);}
	.st5{display:none;fill:#5B5B5B;}
	.st6{fill:url(#SVGID_5_);}
	.st7{fill:url(#SVGID_6_);}
	.st8{fill:#4F4F4F;}
	.st9{fill:url(#SVGID_7_);}
	.st10{fill:url(#SVGID_8_);}
	.st11{fill:url(#SVGID_9_);}
	.st12{fill:url(#SVGID_10_);}
	.st13{fill:url(#SVGID_11_);}
	.st14{fill:none;stroke:#4F4F4F;stroke-miterlimit:10;}
	.st15{fill:url(#SVGID_12_);}
	.st16{fill:url(#SVGID_13_);}
	.st17{fill:url(#SVGID_14_);}
	.st18{fill:url(#SVGID_15_);}
	.st19{fill:#2D2D2D;}
	.st20{fill:url(#SVGID_16_);}
	.st21{fill:url(#SVGID_17_);}
	.st22{fill:url(#SVGID_18_);}
	.st23{fill:url(#SVGID_19_);}
	.st24{fill:#EDEDED;}
	.st25{fill:url(#SVGID_20_);}
	.st26{fill:url(#SVGID_21_);}
	.st27{fill:url(#SVGID_22_);}
	.st28{fill:url(#SVGID_23_);}
	.st29{fill:url(#SVGID_24_);}
	.st30{fill:url(#SVGID_25_);}
	.st31{fill:url(#SVGID_26_);}
	.st32{fill:url(#SVGID_27_);}
	.st33{fill:url(#SVGID_28_);}
	.st34{fill:url(#SVGID_29_);}
	.st35{fill:url(#SVGID_30_);}
	.st36{fill:#C4C4C4;}
	.st37{fill:url(#SVGID_31_);}
	.st38{fill:url(#SVGID_32_);}
	.st39{fill:url(#SVGID_33_);}
	.st40{fill:url(#SVGID_34_);}
	.st41{fill:url(#SVGID_35_);}
	.st42{fill:url(#SVGID_36_);}
	.st43{fill:url(#SVGID_37_);}
	.st44{fill:#C3C3C3;stroke:#4F4F4F;stroke-width:0.75;stroke-miterlimit:10;}
</style>
<g id="Download_x2F_Save">
	<linearGradient id="SVGID_1_" gradientUnits="userSpaceOnUse" x1="16.8352" y1="0" x2="16.8352" y2="33.9116">
		<stop  offset="0" style="stop-color:#D6D6D6"/>
		<stop  offset="1" style="stop-color:#C4C4C4"/>
	</linearGradient>
	<ellipse class="st0" cx="16.84" cy="16.96" rx="16.84" ry="16.96"/>
	<g>
		<g>
			<path class="st1" d="M23.32,16.05h-0.56c-0.27,0-0.49,0.22-0.49,0.49v2.91c0,0.27,0.22,0.49,0.49,0.49h0.56
				c0.27,0,0.49-0.22,0.49-0.49v-2.91C23.81,16.27,23.59,16.05,23.32,16.05z"/>
			<g>
				<g>
					<path class="st1" d="M15.99,11.53c0.58-0.58,0.87-1.26,0.63-1.49c-0.24-0.24-0.91,0.04-1.49,0.63l-0.56,0.56
						c-0.58,0.58-1.06,0.39-1.06-0.44V7.8c0-0.83-0.22-1.5-0.49-1.5s-0.49,0.68-0.49,1.5v2.98c0,0.83-0.48,1.02-1.06,0.44
						l-0.56-0.56c-0.58-0.58-1.26-0.87-1.49-0.63c-0.24,0.24,0.04,0.91,0.63,1.49l1.92,1.92c0.58,0.58,1.54,0.58,2.12,0L15.99,11.53
						z"/>
				</g>
				<g>
					<path class="st1" d="M23.54,9.99c-0.41-0.42-0.92-0.76-1.54-1.01c-0.3-0.12-0.63-0.18-0.94-0.26c0.13-3.16-2.05-5.4-4.12-6
						c-3.24-0.93-5.61,0.29-7.29,3.09C9.62,5.8,9.6,5.79,9.58,5.78C7.52,4.38,5,5.84,4.76,8.04C4.74,8.23,4.64,8.29,4.5,8.36
						c-1.63,0.75-2.59,2-2.69,3.8c-0.13,2.54,1.83,4.6,4.4,4.61c1.79,0.01,3.58,0,5.37,0v-0.91c-1.74,0-3.48,0-5.21,0
						c-1.54,0-2.7-0.66-3.35-2.07c-0.9-1.96,0.22-4.26,2.31-4.82c0.09-0.02,0.18-0.05,0.3-0.08c-0.1-1.14,0.25-2.06,1.32-2.53
						C8.2,5.8,9.18,6.33,10.02,7.35c0.45-1.57,1.31-2.76,2.74-3.49c0.97-0.49,2.01-0.65,3.09-0.48c0.94,0.15,1.77,0.53,2.49,1.15
						c0.72,0.61,1.23,1.37,1.54,2.27c0.3,0.9,0.33,1.81,0.15,2.73c0.41,0.03,0.8,0.03,1.16,0.09c0.69,0.13,1.28,0.49,1.73,0.99
						c0.22,0.25,0.4,0.53,0.53,0.84l0.67-0.67C23.96,10.49,23.76,10.23,23.54,9.99z"/>
				</g>
			</g>
			<path class="st1" d="M23.58,11.92L23.58,11.92c0.21,0.21,0.54,0.21,0.75,0l4.16-4.16c0.21-0.21,0.21-0.54,0-0.75l0,0
				c-0.21-0.21-0.54-0.21-0.75,0l-4.16,4.16C23.37,11.38,23.37,11.72,23.58,11.92z"/>
			<path class="st1" d="M6.85,28.68L6.85,28.68c0.21,0.21,0.54,0.21,0.75,0l5.72-5.72c0.21-0.21,0.21-0.54,0-0.75l0,0
				c-0.21-0.21-0.54-0.21-0.75,0l-5.72,5.72C6.64,28.13,6.64,28.47,6.85,28.68z"/>
			<g>
				<path class="st1" d="M23.26,15.32H22.6c-0.32,0-0.59,0.26-0.59,0.59v3.48c0,0.32,0.26,0.59,0.59,0.59h0.66
					c0.32,0,0.59-0.26,0.59-0.59v-3.48C23.85,15.59,23.59,15.32,23.26,15.32z"/>
				<path class="st1" d="M27.98,16.84l-1.39-1.35c-0.11-0.11-0.26-0.17-0.41-0.17h-0.5v5.9c0,0.32-0.26,0.59-0.59,0.59h-7.15
					c-0.32,0-0.59-0.26-0.59-0.59v-5.31c0-0.01,0-0.01,0-0.02c-0.01-0.32-0.27-0.57-0.58-0.57h-0.49h-0.66
					c-0.32,0-0.59,0.26-0.59,0.59v0.28v0.38v1.64v9.64c0,0.32,0.26,0.59,0.59,0.59h11.95c0.32,0,0.59-0.26,0.59-0.59v-10.6
					C28.16,17.1,28.1,16.95,27.98,16.84z M25.75,26.87c0,0.25-0.2,0.45-0.45,0.45h-7.39c-0.25,0-0.45-0.2-0.45-0.45v-0.48
					c0-0.25,0.2-0.45,0.45-0.45h7.39c0.25,0,0.45,0.2,0.45,0.45V26.87z M25.75,24.5c0,0.25-0.2,0.45-0.45,0.45h-7.39
					c-0.25,0-0.45-0.2-0.45-0.45v-0.48c0-0.25,0.2-0.45,0.45-0.45h7.39c0.25,0,0.45,0.2,0.45,0.45V24.5z"/>
			</g>
		</g>
	</g>
</g>
</svg>
