<?xml version="1.0" encoding="utf-8"?>
<!-- Generator: Adobe Illustrator 24.0.1, SVG Export Plug-In . SVG Version: 6.00 Build 0)  -->
<svg version="1.1" id="Light_Theme_Icons" xmlns="http://www.w3.org/2000/svg" xmlns:xlink="http://www.w3.org/1999/xlink" x="0px"
	 y="0px" viewBox="0 0 33.91 33.91" style="enable-background:new 0 0 33.91 33.91;" xml:space="preserve">
<style type="text/css">
	.st0{fill:url(#SVGID_1_);}
	.st1{fill:#5B5B5B;}
	.st2{fill:url(#SVGID_2_);}
	.st3{fill:url(#SVGID_3_);}
	.st4{fill:url(#SVGID_4_);}
	.st5{display:none;fill:#5B5B5B;}
	.st6{fill:url(#SVGID_5_);}
	.st7{fill:url(#SVGID_6_);}
	.st8{fill:#4F4F4F;}
	.st9{fill:url(#SVGID_7_);}
	.st10{fill:url(#SVGID_8_);}
	.st11{fill:url(#SVGID_9_);}
	.st12{fill:url(#SVGID_10_);}
	.st13{fill:url(#SVGID_11_);}
	.st14{fill:none;stroke:#4F4F4F;stroke-miterlimit:10;}
	.st15{fill:url(#SVGID_12_);}
	.st16{fill:url(#SVGID_13_);}
	.st17{fill:url(#SVGID_14_);}
	.st18{fill:url(#SVGID_15_);}
	.st19{fill:#2D2D2D;}
	.st20{fill:url(#SVGID_16_);}
	.st21{fill:url(#SVGID_17_);}
	.st22{fill:url(#SVGID_18_);}
	.st23{fill:url(#SVGID_19_);}
	.st24{fill:#EDEDED;}
	.st25{fill:url(#SVGID_20_);}
	.st26{fill:url(#SVGID_21_);}
	.st27{fill:url(#SVGID_22_);}
	.st28{fill:url(#SVGID_23_);}
	.st29{fill:url(#SVGID_24_);}
	.st30{fill:url(#SVGID_25_);}
	.st31{fill:url(#SVGID_26_);}
	.st32{fill:url(#SVGID_27_);}
	.st33{fill:url(#SVGID_28_);}
	.st34{fill:url(#SVGID_29_);}
	.st35{fill:url(#SVGID_30_);}
	.st36{fill:#C4C4C4;}
	.st37{fill:url(#SVGID_31_);}
	.st38{fill:url(#SVGID_32_);}
	.st39{fill:url(#SVGID_33_);}
	.st40{fill:url(#SVGID_34_);}
	.st41{fill:url(#SVGID_35_);}
	.st42{fill:url(#SVGID_36_);}
	.st43{fill:url(#SVGID_37_);}
	.st44{fill:#C3C3C3;stroke:#4F4F4F;stroke-width:0.75;stroke-miterlimit:10;}
</style>
<g id="Approve">
	<linearGradient id="SVGID_1_" gradientUnits="userSpaceOnUse" x1="16.9558" y1="0" x2="16.9558" y2="33.9116">
		<stop  offset="0" style="stop-color:#D6D6D6"/>
		<stop  offset="1" style="stop-color:#C4C4C4"/>
	</linearGradient>
	<circle class="st0" cx="16.96" cy="16.96" r="16.96"/>
	<path class="st8" d="M27.11,10.97c-0.45-0.55-1.34-0.54-2.03,0.02l-11.94,9.85l-3.69-4.48c-0.56-0.68-1.43-0.86-1.99-0.41
		c-0.55,0.45-0.54,1.34,0.02,2.03l4.22,5.12c0.36,0.43,0.84,0.66,1.29,0.66c0.03,0,0.06-0.01,0.1-0.01
		c0.08-0.01,0.16-0.02,0.23-0.05c0.27-0.06,0.55-0.16,0.8-0.37L26.7,12.95C27.38,12.39,27.56,11.52,27.11,10.97z"/>
</g>
</svg>
