<?xml version="1.0" encoding="utf-8"?>
<!-- Generator: Adobe Illustrator 24.0.1, SVG Export Plug-In . SVG Version: 6.00 Build 0)  -->
<svg version="1.1" id="Light_Theme_Icons" xmlns="http://www.w3.org/2000/svg" xmlns:xlink="http://www.w3.org/1999/xlink" x="0px"
	 y="0px" viewBox="0 0 33.67 33.91" style="enable-background:new 0 0 33.67 33.91;" xml:space="preserve">
<style type="text/css">
	.st0{fill:url(#SVGID_1_);}
	.st1{fill:#5B5B5B;}
	.st2{fill:url(#SVGID_2_);}
	.st3{fill:url(#SVGID_3_);}
	.st4{fill:url(#SVGID_4_);}
	.st5{display:none;fill:#5B5B5B;}
	.st6{fill:url(#SVGID_5_);}
	.st7{fill:url(#SVGID_6_);}
	.st8{fill:#4F4F4F;}
	.st9{fill:url(#SVGID_7_);}
	.st10{fill:url(#SVGID_8_);}
	.st11{fill:url(#SVGID_9_);}
	.st12{fill:url(#SVGID_10_);}
	.st13{fill:url(#SVGID_11_);}
	.st14{fill:none;stroke:#4F4F4F;stroke-miterlimit:10;}
	.st15{fill:url(#SVGID_12_);}
	.st16{fill:url(#SVGID_13_);}
	.st17{fill:url(#SVGID_14_);}
	.st18{fill:url(#SVGID_15_);}
	.st19{fill:#2D2D2D;}
	.st20{fill:url(#SVGID_16_);}
	.st21{fill:url(#SVGID_17_);}
	.st22{fill:url(#SVGID_18_);}
	.st23{fill:url(#SVGID_19_);}
	.st24{fill:#EDEDED;}
	.st25{fill:url(#SVGID_20_);}
	.st26{fill:url(#SVGID_21_);}
	.st27{fill:url(#SVGID_22_);}
	.st28{fill:url(#SVGID_23_);}
	.st29{fill:url(#SVGID_24_);}
	.st30{fill:url(#SVGID_25_);}
	.st31{fill:url(#SVGID_26_);}
	.st32{fill:url(#SVGID_27_);}
	.st33{fill:url(#SVGID_28_);}
	.st34{fill:url(#SVGID_29_);}
	.st35{fill:url(#SVGID_30_);}
	.st36{fill:#C4C4C4;}
	.st37{fill:url(#SVGID_31_);}
	.st38{fill:url(#SVGID_32_);}
	.st39{fill:url(#SVGID_33_);}
	.st40{fill:url(#SVGID_34_);}
	.st41{fill:url(#SVGID_35_);}
	.st42{fill:url(#SVGID_36_);}
	.st43{fill:url(#SVGID_37_);}
	.st44{fill:#C3C3C3;stroke:#4F4F4F;stroke-width:0.75;stroke-miterlimit:10;}
</style>
<g id="Add_File_Node_1_">
	<linearGradient id="SVGID_1_" gradientUnits="userSpaceOnUse" x1="0" y1="16.9558" x2="33.6704" y2="16.9558">
		<stop  offset="0" style="stop-color:#D6D6D6"/>
		<stop  offset="1" style="stop-color:#C4C4C4"/>
	</linearGradient>
	<ellipse class="st0" cx="16.84" cy="16.96" rx="16.84" ry="16.96"/>
	<g>
		<path class="st1" d="M18.36,21.81H11.6c-0.27,0-0.5-0.22-0.5-0.5v0c0-0.27,0.22-0.5,0.5-0.5h6.76c0.27,0,0.5,0.22,0.5,0.5v0
			C18.86,21.59,18.63,21.81,18.36,21.81z"/>
		<path class="st1" d="M22.07,19.37H11.6c-0.27,0-0.5-0.22-0.5-0.5v0c0-0.27,0.22-0.5,0.5-0.5h10.47c0.27,0,0.5,0.22,0.5,0.5v0
			C22.56,19.15,22.34,19.37,22.07,19.37z"/>
		<path class="st1" d="M22.07,17.15H11.6c-0.27,0-0.5-0.22-0.5-0.5l0,0c0-0.27,0.22-0.5,0.5-0.5h10.47c0.27,0,0.5,0.22,0.5,0.5l0,0
			C22.56,16.92,22.34,17.15,22.07,17.15z"/>
	</g>
	<g>
		<path class="st1" d="M20.31,5.47h-9.16c-1.97,0-3.58,1.62-3.58,3.61v15.75c0,1.99,1.61,3.61,3.58,3.61h11.38
			c1.97,0,3.58-1.62,3.58-3.61V12.63L20.31,5.47z M20.75,8.71l2.73,3.37h-2.73V8.71z M22.52,26.74H11.15
			c-1.04,0-1.89-0.85-1.89-1.91V9.08c0-1.05,0.85-1.91,1.89-1.91h7.92v6.61h5.35v11.05C24.42,25.88,23.57,26.74,22.52,26.74z"/>
	</g>
</g>
</svg>
