<?xml version="1.0" encoding="utf-8"?>
<!-- Generator: Adobe Illustrator 24.0.1, SVG Export Plug-In . SVG Version: 6.00 Build 0)  -->
<svg version="1.1" id="Light_Theme_Icons" xmlns="http://www.w3.org/2000/svg" xmlns:xlink="http://www.w3.org/1999/xlink" x="0px"
	 y="0px" viewBox="0 0 33.67 33.91" style="enable-background:new 0 0 33.67 33.91;" xml:space="preserve">
<style type="text/css">
	.st0{fill:url(#SVGID_1_);}
	.st1{fill:#5B5B5B;}
	.st2{fill:url(#SVGID_2_);}
	.st3{fill:url(#SVGID_3_);}
	.st4{fill:url(#SVGID_4_);}
	.st5{display:none;fill:#5B5B5B;}
	.st6{fill:url(#SVGID_5_);}
	.st7{fill:url(#SVGID_6_);}
	.st8{fill:#4F4F4F;}
	.st9{fill:url(#SVGID_7_);}
	.st10{fill:url(#SVGID_8_);}
	.st11{fill:url(#SVGID_9_);}
	.st12{fill:url(#SVGID_10_);}
	.st13{fill:url(#SVGID_11_);}
	.st14{fill:none;stroke:#4F4F4F;stroke-miterlimit:10;}
	.st15{fill:url(#SVGID_12_);}
	.st16{fill:url(#SVGID_13_);}
	.st17{fill:url(#SVGID_14_);}
	.st18{fill:url(#SVGID_15_);}
	.st19{fill:#2D2D2D;}
	.st20{fill:url(#SVGID_16_);}
	.st21{fill:url(#SVGID_17_);}
	.st22{fill:url(#SVGID_18_);}
	.st23{fill:url(#SVGID_19_);}
	.st24{fill:#EDEDED;}
	.st25{fill:url(#SVGID_20_);}
	.st26{fill:url(#SVGID_21_);}
	.st27{fill:url(#SVGID_22_);}
	.st28{fill:url(#SVGID_23_);}
	.st29{fill:url(#SVGID_24_);}
	.st30{fill:url(#SVGID_25_);}
	.st31{fill:url(#SVGID_26_);}
	.st32{fill:url(#SVGID_27_);}
	.st33{fill:url(#SVGID_28_);}
	.st34{fill:url(#SVGID_29_);}
	.st35{fill:url(#SVGID_30_);}
	.st36{fill:#C4C4C4;}
	.st37{fill:url(#SVGID_31_);}
	.st38{fill:url(#SVGID_32_);}
	.st39{fill:url(#SVGID_33_);}
	.st40{fill:url(#SVGID_34_);}
	.st41{fill:url(#SVGID_35_);}
	.st42{fill:url(#SVGID_36_);}
	.st43{fill:url(#SVGID_37_);}
	.st44{fill:#C3C3C3;stroke:#4F4F4F;stroke-width:0.75;stroke-miterlimit:10;}
</style>
<g id="Replace_Node_1_">
	<linearGradient id="SVGID_1_" gradientUnits="userSpaceOnUse" x1="16.8352" y1="0" x2="16.8352" y2="33.9116">
		<stop  offset="0" style="stop-color:#D6D6D6"/>
		<stop  offset="1" style="stop-color:#C4C4C4"/>
	</linearGradient>
	<ellipse class="st0" cx="16.84" cy="16.96" rx="16.84" ry="16.96"/>
	<g>
		<path class="st8" d="M7.96,5.75c-0.22,0.22-0.21,0.58,0.01,0.8l2.01,1.97c-0.15,0-0.3-0.01-0.44,0C9.18,8.55,8.81,8.6,8.45,8.69
			C8.08,8.78,7.73,8.91,7.38,9.06C7.03,9.22,6.7,9.4,6.37,9.62c-0.32,0.22-0.63,0.47-0.92,0.74c-0.29,0.28-0.56,0.58-0.8,0.91
			c-0.25,0.33-0.47,0.69-0.66,1.07c-0.19,0.38-0.35,0.77-0.47,1.17c-0.12,0.39-0.21,0.79-0.26,1.19c-0.05,0.4-0.07,0.79-0.05,1.18
			c0.02,0.39,0.06,0.77,0.15,1.14c0.08,0.37,0.19,0.73,0.34,1.08c0.14,0.34,0.32,0.67,0.52,0.98c0.2,0.31,0.43,0.6,0.69,0.86
			c0.26,0.26,0.55,0.5,0.86,0.71c0.03,0.02,0.07,0.04,0.11,0.05c0.04,0.01,0.07,0.02,0.11,0.03c0.04,0.01,0.08,0.01,0.11,0
			c0.04,0,0.07-0.01,0.11-0.02c0.04-0.01,0.07-0.02,0.1-0.04c0.03-0.02,0.07-0.04,0.1-0.06c0.03-0.02,0.06-0.05,0.08-0.08
			c0.02-0.03,0.05-0.06,0.06-0.1c0.02-0.03,0.03-0.06,0.04-0.09c0.01-0.03,0.02-0.06,0.02-0.1c0-0.03,0-0.06,0-0.1
			c0-0.03-0.01-0.06-0.02-0.09C6.58,20.03,6.57,20,6.56,19.98c-0.01-0.03-0.03-0.06-0.05-0.08c-0.02-0.03-0.04-0.05-0.06-0.07
			c-0.02-0.02-0.05-0.04-0.08-0.06c-0.26-0.17-0.49-0.36-0.71-0.58c-0.21-0.22-0.4-0.45-0.57-0.71c-0.17-0.25-0.31-0.53-0.42-0.81
			c-0.12-0.29-0.21-0.59-0.27-0.9c-0.06-0.31-0.1-0.63-0.11-0.95c-0.01-0.32,0.01-0.65,0.05-0.99c0.05-0.33,0.12-0.66,0.22-1
			c0.1-0.33,0.24-0.66,0.4-0.98c0.16-0.32,0.35-0.62,0.55-0.9c0.21-0.28,0.43-0.54,0.67-0.77c0.24-0.23,0.5-0.44,0.76-0.63
			c0.27-0.18,0.55-0.34,0.83-0.47c0.29-0.13,0.58-0.24,0.88-0.31c0.3-0.08,0.6-0.12,0.91-0.14c0.14-0.01,0.28-0.01,0.41,0l-1.95,2
			c-0.22,0.22-0.22,0.59,0,0.8c0.22,0.22,0.58,0.21,0.8-0.01l2.87-2.93c0.23-0.24,0.23-0.62-0.01-0.85L8.77,5.75
			C8.54,5.53,8.18,5.53,7.96,5.75z"/>
		<path class="st8" d="M27.69,13.17c-0.04-0.01-0.08-0.01-0.11,0c-0.04,0-0.07,0.01-0.11,0.02c-0.04,0.01-0.07,0.02-0.1,0.04
			c-0.03,0.02-0.07,0.04-0.1,0.06c-0.03,0.02-0.06,0.05-0.08,0.08c-0.02,0.03-0.05,0.06-0.06,0.1c-0.02,0.03-0.03,0.06-0.04,0.09
			c-0.01,0.03-0.02,0.06-0.02,0.1c0,0.03,0,0.06,0,0.1c0,0.03,0.01,0.06,0.02,0.09c0.01,0.03,0.02,0.06,0.03,0.09
			c0.01,0.03,0.03,0.06,0.05,0.08c0.02,0.03,0.04,0.05,0.06,0.07c0.02,0.02,0.05,0.04,0.08,0.06c0.26,0.17,0.49,0.36,0.71,0.58
			c0.21,0.22,0.4,0.45,0.57,0.71c0.17,0.25,0.31,0.53,0.42,0.81c0.12,0.29,0.21,0.59,0.27,0.9c0.06,0.31,0.1,0.63,0.11,0.95
			c0.01,0.32-0.01,0.65-0.05,0.99c-0.05,0.33-0.12,0.66-0.22,1c-0.1,0.33-0.23,0.66-0.4,0.98c-0.16,0.32-0.35,0.62-0.55,0.9
			c-0.21,0.28-0.43,0.54-0.67,0.77c-0.24,0.23-0.5,0.44-0.76,0.63c-0.27,0.18-0.55,0.34-0.83,0.47c-0.29,0.13-0.58,0.24-0.88,0.31
			c-0.3,0.08-0.6,0.12-0.91,0.14c-0.14,0.01-0.28,0.01-0.41,0l1.95-2c0.22-0.22,0.22-0.59,0-0.8c-0.22-0.22-0.58-0.21-0.8,0.01
			l-2.87,2.93c-0.23,0.24-0.23,0.62,0.01,0.85l2.93,2.87c0.22,0.22,0.59,0.22,0.8,0c0.22-0.22,0.21-0.58-0.01-0.8l-2.01-1.97
			c0.15,0,0.3,0.01,0.44,0c0.37-0.02,0.74-0.08,1.1-0.17c0.36-0.09,0.72-0.21,1.07-0.37c0.35-0.16,0.68-0.34,1.01-0.56
			c0.32-0.22,0.63-0.47,0.92-0.74c0.29-0.28,0.56-0.58,0.8-0.91c0.25-0.33,0.47-0.69,0.66-1.07c0.19-0.38,0.35-0.77,0.47-1.17
			c0.12-0.39,0.21-0.79,0.26-1.19c0.05-0.4,0.07-0.79,0.05-1.18c-0.02-0.39-0.06-0.77-0.15-1.14c-0.08-0.37-0.19-0.73-0.34-1.08
			c-0.14-0.34-0.32-0.67-0.52-0.98c-0.2-0.31-0.43-0.6-0.69-0.86c-0.26-0.26-0.55-0.5-0.86-0.71c-0.03-0.02-0.07-0.04-0.11-0.05
			C27.77,13.19,27.73,13.18,27.69,13.17z"/>
		<polygon class="st14" points="8.83,21.13 8.83,26.72 13.66,29.51 18.5,26.72 18.5,21.13 13.66,18.34 		"/>
		<polygon class="st14" points="15.17,7.2 15.17,12.78 20.01,15.57 24.84,12.78 24.84,7.2 20.01,4.4 		"/>
	</g>
</g>
</svg>
