<?xml version="1.0" encoding="utf-8"?>
<!-- Generator: Adobe Illustrator 24.0.1, SVG Export Plug-In . SVG Version: 6.00 Build 0)  -->
<svg version="1.1" id="Light_Theme_Icons" xmlns="http://www.w3.org/2000/svg" xmlns:xlink="http://www.w3.org/1999/xlink" x="0px"
	 y="0px" viewBox="0 0 33.67 33.91" style="enable-background:new 0 0 33.67 33.91;" xml:space="preserve">
<style type="text/css">
	.st0{fill:url(#SVGID_1_);}
	.st1{fill:#5B5B5B;}
	.st2{fill:url(#SVGID_2_);}
	.st3{fill:url(#SVGID_3_);}
	.st4{fill:url(#SVGID_4_);}
	.st5{display:none;fill:#5B5B5B;}
	.st6{fill:url(#SVGID_5_);}
	.st7{fill:url(#SVGID_6_);}
	.st8{fill:#4F4F4F;}
	.st9{fill:url(#SVGID_7_);}
	.st10{fill:url(#SVGID_8_);}
	.st11{fill:url(#SVGID_9_);}
	.st12{fill:url(#SVGID_10_);}
	.st13{fill:url(#SVGID_11_);}
	.st14{fill:none;stroke:#4F4F4F;stroke-miterlimit:10;}
	.st15{fill:url(#SVGID_12_);}
	.st16{fill:url(#SVGID_13_);}
	.st17{fill:url(#SVGID_14_);}
	.st18{fill:url(#SVGID_15_);}
	.st19{fill:#2D2D2D;}
	.st20{fill:url(#SVGID_16_);}
	.st21{fill:url(#SVGID_17_);}
	.st22{fill:url(#SVGID_18_);}
	.st23{fill:url(#SVGID_19_);}
	.st24{fill:#EDEDED;}
	.st25{fill:url(#SVGID_20_);}
	.st26{fill:url(#SVGID_21_);}
	.st27{fill:url(#SVGID_22_);}
	.st28{fill:url(#SVGID_23_);}
	.st29{fill:url(#SVGID_24_);}
	.st30{fill:url(#SVGID_25_);}
	.st31{fill:url(#SVGID_26_);}
	.st32{fill:url(#SVGID_27_);}
	.st33{fill:url(#SVGID_28_);}
	.st34{fill:url(#SVGID_29_);}
	.st35{fill:url(#SVGID_30_);}
	.st36{fill:#C4C4C4;}
	.st37{fill:url(#SVGID_31_);}
	.st38{fill:url(#SVGID_32_);}
	.st39{fill:url(#SVGID_33_);}
	.st40{fill:url(#SVGID_34_);}
	.st41{fill:url(#SVGID_35_);}
	.st42{fill:url(#SVGID_36_);}
	.st43{fill:url(#SVGID_37_);}
	.st44{fill:#C3C3C3;stroke:#4F4F4F;stroke-width:0.75;stroke-miterlimit:10;}
</style>
<g id="Load">
	<linearGradient id="SVGID_1_" gradientUnits="userSpaceOnUse" x1="16.8352" y1="0" x2="16.8352" y2="33.9116">
		<stop  offset="0" style="stop-color:#D6D6D6"/>
		<stop  offset="1" style="stop-color:#C4C4C4"/>
	</linearGradient>
	<ellipse class="st0" cx="16.84" cy="16.96" rx="16.84" ry="16.96"/>
	<g>
		<g>
			<g>
				<path class="st1" d="M17.74,13.46c-0.53,0-0.97,0.43-0.97,0.97v2.63c0,0.53,0.43,0.97,0.97,0.97c0.53,0,0.97-0.43,0.97-0.97
					v-2.63C18.71,13.89,18.27,13.46,17.74,13.46z"/>
				<path class="st1" d="M13.65,15.63c-0.38-0.38-0.99-0.38-1.37,0c-0.38,0.38-0.38,0.99,0,1.37l1.86,1.86
					c0.19,0.19,0.44,0.28,0.68,0.28c0.25,0,0.5-0.09,0.68-0.28c0,0,0,0,0,0c0.18-0.18,0.28-0.43,0.28-0.68c0-0.26-0.1-0.5-0.28-0.68
					L13.65,15.63z"/>
				<path class="st1" d="M14.52,21.04c0-0.53-0.43-0.97-0.97-0.97h-2.63c-0.53,0-0.97,0.43-0.97,0.97S10.39,22,10.92,22h2.63
					C14.08,22,14.52,21.57,14.52,21.04z"/>
				<path class="st1" d="M15.36,23.27c-0.18-0.18-0.43-0.28-0.68-0.28c-0.26,0-0.5,0.1-0.68,0.28l-1.86,1.86
					c-0.38,0.38-0.38,0.99,0,1.37c0.19,0.19,0.44,0.28,0.68,0.28s0.5-0.09,0.68-0.28l1.86-1.86c0.18-0.18,0.28-0.43,0.28-0.68
					C15.64,23.7,15.54,23.45,15.36,23.27C15.36,23.27,15.36,23.27,15.36,23.27z"/>
				<path class="st1" d="M17.54,24.26c-0.53,0-0.97,0.43-0.97,0.97v2.63c0,0.53,0.43,0.97,0.97,0.97s0.97-0.43,0.97-0.97v-2.63
					C18.5,24.69,18.07,24.26,17.54,24.26z"/>
				<path class="st1" d="M21.14,23.41c-0.38-0.38-0.99-0.38-1.37,0h0c-0.38,0.38-0.38,0.99,0,1.37l1.86,1.86
					c0.19,0.19,0.44,0.28,0.68,0.28c0.25,0,0.5-0.09,0.68-0.28c0.38-0.38,0.38-0.99,0-1.37L21.14,23.41z"/>
				<path class="st1" d="M24.35,20.27h-2.63c-0.53,0-0.97,0.43-0.97,0.97s0.43,0.97,0.97,0.97h2.63c0.53,0,0.97-0.43,0.97-0.97
					S24.88,20.27,24.35,20.27z"/>
				<path class="st1" d="M20.6,19.29c0.26,0,0.5-0.1,0.68-0.28l1.86-1.86c0.38-0.38,0.38-0.99,0-1.37c-0.38-0.38-0.99-0.38-1.37,0
					l-1.86,1.86c-0.18,0.18-0.28,0.43-0.28,0.68c0,0.26,0.1,0.5,0.28,0.68C20.1,19.19,20.34,19.29,20.6,19.29z"/>
			</g>
			<path class="st1" d="M32.25,17.84c-0.36-2.09-1.56-3.5-3.51-4.28c-0.41-0.16-0.85-0.24-1.28-0.36c0.18-4.28-2.77-7.32-5.59-8.13
				c-4.4-1.27-7.61,0.39-9.89,4.2c-0.02-0.01-0.06-0.03-0.08-0.05c-2.78-1.89-6.21,0.08-6.53,3.07c-0.03,0.25-0.16,0.33-0.36,0.42
				c-2.21,1.01-3.52,2.71-3.64,5.16c-0.18,3.45,2.49,6.24,5.97,6.26c0.53,0,1.05,0,1.58,0.01c-0.16-0.4-0.3-0.81-0.41-1.24
				c-0.32,0-0.64,0-0.96,0c-2.09,0-3.66-0.9-4.55-2.81c-1.23-2.66,0.29-5.78,3.13-6.54c0.12-0.03,0.24-0.06,0.4-0.1
				c-0.14-1.54,0.34-2.79,1.79-3.44c1.71-0.76,3.04-0.05,4.18,1.34c0.61-2.13,1.78-3.74,3.71-4.73c1.32-0.67,2.72-0.88,4.19-0.65
				c1.27,0.2,2.4,0.72,3.37,1.55c0.98,0.83,1.67,1.86,2.08,3.08c0.41,1.21,0.44,2.45,0.2,3.7c0.56,0.04,1.08,0.04,1.58,0.13
				c2.07,0.38,3.56,2.31,3.43,4.44c-0.12,2.11-1.81,3.84-3.9,4c-0.01,0-0.02,0-0.03,0c-0.11,0.43-0.25,0.85-0.42,1.26
				c0.02,0,0.04,0,0.06,0c2.58-0.01,4.71-1.69,5.35-4.14c0.07-0.25,0.12-0.51,0.18-0.76c0-0.41,0-0.82,0-1.23
				C32.29,17.94,32.26,17.89,32.25,17.84z"/>
		</g>
	</g>
</g>
</svg>
