<?xml version="1.0" encoding="utf-8"?>
<!-- Generator: Adobe Illustrator 24.0.1, SVG Export Plug-In . SVG Version: 6.00 Build 0)  -->
<svg version="1.1" id="Light_Theme_Icons" xmlns="http://www.w3.org/2000/svg" xmlns:xlink="http://www.w3.org/1999/xlink" x="0px"
	 y="0px" viewBox="0 0 33.67 33.91" style="enable-background:new 0 0 33.67 33.91;" xml:space="preserve">
<style type="text/css">
	.st0{fill:url(#SVGID_1_);}
	.st1{fill:#5B5B5B;}
	.st2{fill:url(#SVGID_2_);}
	.st3{fill:url(#SVGID_3_);}
	.st4{fill:url(#SVGID_4_);}
	.st5{display:none;fill:#5B5B5B;}
	.st6{fill:url(#SVGID_5_);}
	.st7{fill:url(#SVGID_6_);}
	.st8{fill:#4F4F4F;}
	.st9{fill:url(#SVGID_7_);}
	.st10{fill:url(#SVGID_8_);}
	.st11{fill:url(#SVGID_9_);}
	.st12{fill:url(#SVGID_10_);}
	.st13{fill:url(#SVGID_11_);}
	.st14{fill:none;stroke:#4F4F4F;stroke-miterlimit:10;}
	.st15{fill:url(#SVGID_12_);}
	.st16{fill:url(#SVGID_13_);}
	.st17{fill:url(#SVGID_14_);}
	.st18{fill:url(#SVGID_15_);}
	.st19{fill:#2D2D2D;}
	.st20{fill:url(#SVGID_16_);}
	.st21{fill:url(#SVGID_17_);}
	.st22{fill:url(#SVGID_18_);}
	.st23{fill:url(#SVGID_19_);}
	.st24{fill:#EDEDED;}
	.st25{fill:url(#SVGID_20_);}
	.st26{fill:url(#SVGID_21_);}
	.st27{fill:url(#SVGID_22_);}
	.st28{fill:url(#SVGID_23_);}
	.st29{fill:url(#SVGID_24_);}
	.st30{fill:url(#SVGID_25_);}
	.st31{fill:url(#SVGID_26_);}
	.st32{fill:url(#SVGID_27_);}
	.st33{fill:url(#SVGID_28_);}
	.st34{fill:url(#SVGID_29_);}
	.st35{fill:url(#SVGID_30_);}
	.st36{fill:#C4C4C4;}
	.st37{fill:url(#SVGID_31_);}
	.st38{fill:url(#SVGID_32_);}
	.st39{fill:url(#SVGID_33_);}
	.st40{fill:url(#SVGID_34_);}
	.st41{fill:url(#SVGID_35_);}
	.st42{fill:url(#SVGID_36_);}
	.st43{fill:url(#SVGID_37_);}
	.st44{fill:#C3C3C3;stroke:#4F4F4F;stroke-width:0.75;stroke-miterlimit:10;}
</style>
<g id="Hide_Files_1_">
	<ellipse class="st1" cx="16.84" cy="16.96" rx="16.84" ry="16.96"/>
	<g>
		<g>
			<path class="st24" d="M20.52,4.88h-9.71c-2.09,0-3.79,1.7-3.79,3.79v16.57c0,2.09,1.7,3.79,3.79,3.79h12.05
				c2.09,0,3.79-1.7,3.79-3.79V12.4L20.52,4.88z M20.98,8.28l2.89,3.55h-2.89V8.28z M22.86,27.25H10.81c-1.11,0-2-0.9-2-2V8.67
				c0-1.11,0.9-2,2-2h8.39v6.95h5.67v11.63C24.87,26.35,23.97,27.25,22.86,27.25z"/>
		</g>
		<g>
			<path class="st24" d="M21.05,29.65c-2.66-0.06-4.58-1.07-6.28-2.52c-0.9-0.77-1.68-1.69-2.5-2.54c-0.25-0.26-0.33-0.58-0.09-0.89
				c1.76-2.21,3.81-4.06,6.59-4.89c2.47-0.74,4.7-0.04,6.77,1.32c1.43,0.94,2.64,2.11,3.7,3.45c0.23,0.28,0.33,0.58,0.09,0.89
				c-1.77,2.21-3.81,4.05-6.59,4.88C22.09,29.54,21.39,29.59,21.05,29.65z M13.4,24.08c1.39,1.6,2.89,2.97,4.82,3.81
				c1.06,0.46,2.17,0.7,3.33,0.49c2.77-0.48,4.73-2.21,6.48-4.25c0.02-0.02,0.01-0.07,0.02-0.13c-1.3-1.5-2.76-2.82-4.6-3.67
				c-1.76-0.81-3.54-0.83-5.31-0.04C16.26,21.14,14.77,22.48,13.4,24.08z"/>
			<path class="st1" d="M13.44,24.08c1.37-1.59,2.86-2.94,4.75-3.78c1.77-0.79,3.54-0.77,5.31,0.04c1.84,0.85,3.3,2.17,4.6,3.67
				c-0.01,0.06,0,0.11-0.02,0.13c-1.76,2.03-3.72,3.76-6.48,4.25c-1.16,0.2-2.27-0.03-3.33-0.49
				C16.33,27.05,14.82,25.68,13.44,24.08z M24.25,24.08c0-1.93-1.53-3.46-3.45-3.46c-1.92,0-3.46,1.54-3.46,3.46
				c0,1.92,1.53,3.45,3.46,3.46C22.72,27.53,24.25,26,24.25,24.08z"/>
			<path class="st24" d="M24.21,24.08c0,1.93-1.53,3.46-3.45,3.45c-1.92,0-3.46-1.53-3.46-3.46c0-1.92,1.54-3.46,3.46-3.46
				C22.68,20.62,24.21,22.15,24.21,24.08z M18.5,24.09c0.01,1.25,1.05,2.28,2.29,2.26c1.22-0.02,2.24-1.05,2.25-2.26
				c0.01-1.24-1.02-2.27-2.28-2.28C19.51,21.81,18.49,22.83,18.5,24.09z"/>
			<path class="st24" d="M18.5,24.09c-0.01-1.26,1.01-2.28,2.27-2.28c1.25,0,2.28,1.04,2.28,2.28c-0.01,1.21-1.03,2.24-2.25,2.26
				C19.54,26.37,18.5,25.33,18.5,24.09z"/>
		</g>
	</g>
</g>
</svg>
