<svg height="512" viewBox="0 0 64 64" width="512" xmlns="http://www.w3.org/2000/svg"><g id="Database-3" data-name="Database"><path d="m32 45c-13.25 0-24-2.69-24-6v16c0 3.31 10.75 6 24 6s24-2.69 24-6v-16c0 3.31-10.75 6-24 6z" fill="#9bc9ff"/><path d="m32 13c-13.25 0-24-1.69-24-5v16c0 3.31 10.75 5 24 5s24-1.69 24-5v-16c0 3.31-10.75 5-24 5z" fill="#9bc9ff"/><g fill="#57a4ff"><path d="m18.152 18.885c-1.4-.251-2.695-.544-3.854-.871a1 1 0 1 0 -.542 1.925c1.221.344 2.58.652 4.042.915a1.078 1.078 0 0 0 .178.015 1 1 0 0 0 .176-1.984z"/><path d="m22.062 19.457a1 1 0 1 0 -.229 1.986 89.287 89.287 0 0 0 10.167.557 89.366 89.366 0 0 0 10.141-.554 1 1 0 1 0 -.228-1.986 87.455 87.455 0 0 1 -9.913.54 87.345 87.345 0 0 1 -9.938-.543z"/><path d="m22.062 35.457a1 1 0 1 0 -.229 1.986 89.287 89.287 0 0 0 10.167.557 89.366 89.366 0 0 0 10.141-.554 1 1 0 1 0 -.228-1.986 87.455 87.455 0 0 1 -9.913.54 87.345 87.345 0 0 1 -9.938-.543z"/><path d="m41.913 51.46a87.455 87.455 0 0 1 -9.913.54 87.345 87.345 0 0 1 -9.938-.543 1 1 0 1 0 -.229 1.986 89.287 89.287 0 0 0 10.167.557 89.366 89.366 0 0 0 10.141-.554 1 1 0 1 0 -.228-1.986z"/><path d="m18.152 34.885c-1.4-.251-2.695-.544-3.854-.871a1 1 0 1 0 -.542 1.925c1.221.344 2.58.652 4.042.915a1.078 1.078 0 0 0 .178.015 1 1 0 0 0 .176-1.984z"/><path d="m18.152 50.885c-1.4-.251-2.695-.544-3.854-.871a1 1 0 1 0 -.542 1.925c1.221.344 2.58.652 4.042.915a1.078 1.078 0 0 0 .178.015 1 1 0 0 0 .176-1.984z"/><path d="m49.135 3.186a109.613 109.613 0 0 0 -17.135-1.186 109.613 109.613 0 0 0 -17.135 1.186c-6.971 1.161-7.865 2.648-7.865 3.814v48c0 4.6 12.577 7 25 7s25-2.4 25-7v-48c0-1.166-.894-2.653-7.865-3.814zm5.865 35.814c0 2.039-8.96 5-23 5s-23-2.961-23-5v-12.185c4.519 2.708 15.7 3.185 23 3.185s18.481-.477 23-3.185zm0-15c0 1.661-7.136 4-23 4s-23-2.339-23-4v-13.185c4.519 2.708 15.7 3.185 23 3.185s18.481-.477 23-3.185zm-46-16.924c.741-1.061 8.321-3.076 23-3.076s22.259 2.015 23 3.076v.924c0 1.661-7.136 4-23 4s-23-2.339-23-4zm23 52.924c-14.04 0-23-2.961-23-5v-13.076c4.029 2.685 13.556 4.076 23 4.076s18.971-1.391 23-4.076v13.076c0 2.039-8.96 5-23 5z"/></g></g></svg>